<svg width="24" height="24" viewBox="0 0 24 24" fill="none" xmlns="http://www.w3.org/2000/svg">
<path d="M23.3873 10.2815C23.1385 9.90581 22.7613 9.64689 22.3228 9.54875C22.6057 9.00767 22.5941 8.33256 22.2338 7.78856C21.9774 7.40129 21.5907 7.15117 21.1697 7.0565C21.2448 6.91331 21.3003 6.75877 21.3334 6.59581C21.4254 6.14262 21.3356 5.68083 21.0802 5.29539C20.8314 4.91948 20.4542 4.66057 20.0156 4.5626C20.2985 4.02153 20.287 3.34642 19.9266 2.80223C19.3998 2.00664 18.3235 1.78782 17.5278 2.3148L15.8047 3.45592C14.8863 2.9901 13.9094 2.65959 12.8956 2.47136C12.5751 1.98485 12.2025 1.53258 11.7854 1.12828L11.0726 0.437422C10.5505 -0.0686818 9.73187 -0.144671 9.12579 0.25688C8.40875 0.731672 8.21173 1.7014 8.68652 2.41844C8.7052 2.44682 8.72351 2.47539 8.74164 2.50395C6.40503 2.97673 4.27551 4.21672 2.69934 6.03367C0.988953 8.00554 0.046875 10.5309 0.046875 13.1446C0.046875 13.6456 0.0811157 14.1474 0.148865 14.636C0.670898 18.4338 3.20068 21.7066 6.75073 23.1775C8.06726 23.7231 9.46417 24 10.9021 24C13.1794 24 15.3593 23.3025 17.2062 21.9833C19.0131 20.6924 20.365 18.9109 21.1159 16.8316C21.186 16.6379 21.0855 16.4238 20.8918 16.3539C20.6979 16.2839 20.484 16.3843 20.4141 16.5782C19.7148 18.5145 18.4556 20.1734 16.7723 21.3759C15.0527 22.6044 13.0228 23.2536 10.9021 23.2536C9.80566 23.2536 8.73505 23.0806 7.71039 22.7393L10.7466 20.7286C10.7468 20.7284 10.747 20.7284 10.7472 20.7283C10.7474 20.7283 10.7474 20.7281 10.7476 20.7279L13.2709 19.0569H13.2711C13.4976 18.9067 13.6523 18.6775 13.7065 18.4111C13.7607 18.1446 13.708 17.8729 13.5579 17.6464L13.5245 17.5959L14.0147 17.2712C14.3644 17.0396 14.785 16.9488 15.1992 17.0152C15.7989 17.1116 16.4079 16.9797 16.914 16.6445L20.9797 13.9521C20.9518 14.3047 20.9061 14.6554 20.8422 15.0002C20.8044 15.2029 20.9383 15.3977 21.141 15.4352C21.1639 15.4396 21.187 15.4416 21.2095 15.4416C21.3858 15.4416 21.5425 15.316 21.5759 15.1364C21.6793 14.5799 21.7388 14.0099 21.7542 13.4392L22.8999 12.6804C23.2853 12.4252 23.5485 12.035 23.6404 11.582C23.7325 11.1288 23.6426 10.667 23.3873 10.2815ZM15.0802 3.93565L13.94 4.69078L13.7155 4.08598C13.6218 3.83366 13.5143 3.58629 13.3953 3.34422C13.9737 3.49089 14.5369 3.68864 15.0802 3.93565ZM3.26312 6.52275C4.77795 4.77647 6.84137 3.60258 9.09869 3.19554C9.46088 4.07298 9.54767 5.05333 9.33124 5.98771L8.42139 9.91844C8.27838 9.76573 8.09271 9.66044 7.88361 9.61796C7.617 9.56358 7.34546 9.6165 7.11896 9.76665L4.54175 11.4732C4.54156 11.4732 4.54156 11.4732 4.54138 11.4734C4.54138 11.4734 4.5412 11.4734 4.5412 11.4736L0.824158 13.935C0.803833 13.6728 0.793213 13.4086 0.793213 13.1446C0.793213 10.7107 1.67047 8.35893 3.26312 6.52275ZM12.9752 18.2622C12.9608 18.3332 12.9194 18.3946 12.8588 18.4347H12.8589L10.6426 19.9023L6.52917 13.7677C6.41437 13.5965 6.18256 13.5509 6.01135 13.6657C5.84033 13.7805 5.79456 14.0121 5.90936 14.1833L10.0203 20.3144L6.85638 22.4097C3.71246 21.0346 1.46265 18.1305 0.921753 14.7513L4.64319 12.295L5.07147 12.934C5.14362 13.0413 5.26154 13.0993 5.38184 13.0993C5.45325 13.0993 5.52557 13.079 5.58929 13.0362C5.7605 12.9214 5.80627 12.6896 5.69147 12.5184L5.26611 11.8839L7.53113 10.3888C7.59137 10.3487 7.6637 10.3348 7.73474 10.3493C7.80579 10.3638 7.86713 10.4051 7.90723 10.4656L12.9357 18.0586C12.9756 18.1188 12.9897 18.1911 12.9752 18.2622ZM22.9091 11.4333C22.8567 11.6911 22.7071 11.913 22.4877 12.0582L21.178 12.9256C21.1776 12.9258 21.1772 12.9261 21.1767 12.9263L16.5018 16.0223C16.1521 16.2539 15.7315 16.3449 15.3173 16.2782C14.7178 16.1821 14.1088 16.3138 13.6025 16.649L13.1124 16.9737L8.99396 10.7549L10.0585 6.15617C10.3326 4.97148 10.1882 3.72362 9.66595 2.63652C9.66119 2.62517 9.65607 2.61418 9.65021 2.60338C9.54987 2.39793 9.43597 2.19853 9.30872 2.00627C9.06116 1.63237 9.16388 1.12681 9.53796 0.879072C9.854 0.669783 10.281 0.709333 10.5531 0.973188L11.2659 1.66423C12.037 2.41185 12.6422 3.33909 13.0157 4.34581L13.4039 5.39152C13.4046 5.39354 13.4053 5.39519 13.4061 5.39702C13.407 5.3994 13.4081 5.40196 13.409 5.40434C13.4117 5.41075 13.4143 5.41661 13.4171 5.42155C13.4246 5.4373 13.4328 5.45286 13.4427 5.4677C13.5566 5.63963 13.788 5.68669 13.9598 5.5728L17.9399 2.93718C18.3926 2.63743 19.0047 2.76176 19.3044 3.2144C19.6042 3.66704 19.4799 4.27916 19.0272 4.5789L18.6817 4.80778C18.6817 4.80778 18.6815 4.80778 18.6813 4.80797L17.9106 5.31846C17.9095 5.3192 17.9088 5.31993 17.9077 5.32048C17.9033 5.32359 17.8991 5.32652 17.8956 5.32945C17.7363 5.44646 17.6951 5.66893 17.8055 5.83555C17.9193 6.00749 18.1509 6.05455 18.3228 5.94066L19.0941 5.42979C19.3132 5.28496 19.5756 5.23387 19.8333 5.28624C20.0909 5.33861 20.313 5.4882 20.458 5.70756C20.6032 5.92674 20.6545 6.1895 20.6021 6.44713C20.5497 6.70494 20.4001 6.92686 20.1808 7.07207L19.0642 7.81163C18.8923 7.92534 18.8452 8.15678 18.9591 8.32872C19.0309 8.43712 19.1495 8.49589 19.2706 8.49589C19.3412 8.49589 19.4128 8.47575 19.4762 8.43382L19.649 8.31938L20.2471 7.92332C20.6999 7.62358 21.3118 7.74791 21.6116 8.20054C21.9113 8.65336 21.787 9.2653 21.3344 9.56523L20.7766 9.93455C20.7737 9.93638 20.7708 9.9384 20.7678 9.94041L20.2178 10.3046C20.0458 10.4183 19.9988 10.6499 20.1127 10.8219C20.1844 10.9303 20.3031 10.9891 20.4241 10.9891C20.4948 10.9891 20.5664 10.9689 20.6298 10.927L20.8026 10.8125C20.8026 10.8125 20.8026 10.8124 20.8028 10.8124L21.4008 10.4165C21.62 10.2713 21.8826 10.22 22.1404 10.2726C22.3982 10.3248 22.6201 10.4745 22.7653 10.6937C22.9103 10.9129 22.9614 11.1756 22.9091 11.4333Z" fill="#F18F15"/>
</svg>
