<svg width="24" height="24" viewBox="0 0 24 24" fill="none" xmlns="http://www.w3.org/2000/svg">
<g clip-path="url(#clip0_202_1646)">
<path d="M7.19992 18.9982V23.6C7.19992 23.7061 7.24207 23.8078 7.31708 23.8828C7.3921 23.9579 7.49384 24 7.59992 24H21.1999C21.306 24 21.4078 23.9579 21.4828 23.8828C21.5578 23.8078 21.5999 23.7061 21.5999 23.6V14C21.5996 13.6718 21.5189 13.3486 21.3646 13.0589L18.3999 7.5V0.4C18.3999 0.293913 18.3578 0.192172 18.2828 0.117157C18.2078 0.0421427 18.106 0 17.9999 0H7.59992C7.49384 0 7.3921 0.0421427 7.31708 0.117157C7.24207 0.192172 7.19992 0.293913 7.19992 0.4V1.8036L2.68042 3.21825C2.63029 3.23394 2.58374 3.25935 2.54343 3.29304C2.50311 3.32672 2.46983 3.36801 2.44548 3.41456C2.42113 3.4611 2.40618 3.51199 2.4015 3.56431C2.39681 3.61664 2.40248 3.66937 2.41817 3.7195L7.19992 18.9982ZM6.69017 5.31655L6.45112 4.55275L7.19992 4.31835V10.9622L5.66462 6.05675L6.42797 5.81775C6.5292 5.78605 6.61369 5.71544 6.66286 5.62145C6.71203 5.52746 6.72186 5.41778 6.69017 5.31655ZM20.7999 14V23.2H18.3999C17.4586 23.1989 16.555 22.8296 15.8825 22.171C15.2099 21.5124 14.8216 20.6169 14.8007 19.6758C14.8208 19.5717 14.7987 19.4639 14.7394 19.3761L12.1449 15.5358C12.0551 15.4053 11.9921 15.2583 11.9594 15.1032C11.9267 14.9482 11.925 14.7882 11.9545 14.6326C11.9839 14.4769 12.0439 14.3286 12.131 14.1962C12.218 14.0638 12.3304 13.95 12.4617 13.8613C12.593 13.7726 12.7405 13.7108 12.8958 13.6794C13.0511 13.648 13.2111 13.6477 13.3665 13.6785C13.522 13.7092 13.6697 13.7705 13.8014 13.8586C13.933 13.9468 14.0459 14.0602 14.1335 14.1922C14.1358 14.1957 14.1385 14.1991 14.1407 14.2025L16.476 17.4343C16.513 17.4856 16.5617 17.5273 16.618 17.5561C16.6743 17.5849 16.7367 17.6 16.7999 17.6H17.9999C18.106 17.6 18.2078 17.5579 18.2828 17.4828C18.3578 17.4078 18.3999 17.3061 18.3999 17.2V9.2L20.6588 13.4353C20.7513 13.6092 20.7997 13.8031 20.7999 14ZM10.3999 20.4H9.59992V3.6H10.3999C10.506 3.6 10.6078 3.55786 10.6828 3.48284C10.7578 3.40783 10.7999 3.30609 10.7999 3.2V2.4H14.7999V3.2C14.7999 3.30609 14.8421 3.40783 14.9171 3.48284C14.9921 3.55786 15.0938 3.6 15.1999 3.6H15.9999V15.41L14.7924 13.7389C14.7453 13.6699 14.6939 13.604 14.6385 13.5415C14.9473 13.173 15.1382 12.7204 15.1867 12.2422C15.2352 11.764 15.1389 11.2822 14.9103 10.8593C14.6818 10.4365 14.3315 10.092 13.9049 9.87057C13.4783 9.64912 12.995 9.5609 12.5176 9.61735C12.0403 9.6738 11.5909 9.87231 11.2277 10.1872C10.8645 10.502 10.6042 10.9187 10.4806 11.3832C10.357 11.8477 10.3758 12.3386 10.5344 12.7923C10.6931 13.246 10.9844 13.6417 11.3705 13.9279C11.2016 14.2486 11.1227 14.6092 11.1423 14.9712C11.1619 15.3332 11.2792 15.6831 11.4818 15.9837L14.0013 19.7128C14.0175 20.37 14.1818 21.0151 14.4819 21.6H10.7999V20.8C10.7999 20.6939 10.7578 20.5922 10.6828 20.5172C10.6078 20.4421 10.506 20.4 10.3999 20.4ZM12.0193 13.2068C11.9715 13.2391 11.9257 13.2736 11.8813 13.3094C11.6159 13.1232 11.4134 12.8609 11.3004 12.5571C11.1874 12.2533 11.1694 11.9224 11.2486 11.6081C11.3279 11.2939 11.5007 11.0111 11.7443 10.7972C11.9878 10.5833 12.2906 10.4485 12.6124 10.4105C12.9343 10.3725 13.2601 10.4331 13.5468 10.5844C13.8334 10.7357 14.0674 10.9704 14.2177 11.2576C14.3679 11.5447 14.4275 11.8708 14.3884 12.1925C14.3492 12.5143 14.2133 12.8166 13.9986 13.0594C13.6844 12.9096 13.3365 12.8444 12.9894 12.8703C12.6422 12.8962 12.3079 13.0122 12.0193 13.2068ZM7.99992 0.8H17.5999V16.8H17.0044L16.7999 16.517V3.2C16.7999 3.09391 16.7578 2.99217 16.6828 2.91716C16.6078 2.84214 16.506 2.8 16.3999 2.8H15.5999V2C15.5999 1.89391 15.5578 1.79217 15.4828 1.71716C15.4078 1.64214 15.306 1.6 15.1999 1.6H10.3999C10.2938 1.6 10.1921 1.64214 10.1171 1.71716C10.0421 1.79217 9.99992 1.89391 9.99992 2V2.8H9.19992C9.09384 2.8 8.9921 2.84214 8.91708 2.91716C8.84207 2.99217 8.79992 3.09391 8.79992 3.2V20.8C8.79992 20.9061 8.84207 21.0078 8.91708 21.0828C8.9921 21.1579 9.09384 21.2 9.19992 21.2H9.99992V22C9.99992 22.1061 10.0421 22.2078 10.1171 22.2828C10.1921 22.3579 10.2938 22.4 10.3999 22.4H15.0094C15.2609 22.704 15.5519 22.973 15.8746 23.2H7.99992V0.8ZM7.19992 2.64185V3.48L5.83042 3.9087C5.72919 3.94039 5.64468 4.011 5.5955 4.10499C5.54632 4.19898 5.53649 4.30866 5.56817 4.4099L5.80722 5.17375L5.04387 5.4127C4.99374 5.4284 4.9472 5.45381 4.90689 5.4875C4.86659 5.52118 4.83331 5.56248 4.80896 5.60902C4.78461 5.65557 4.76967 5.70645 4.76499 5.75877C4.76031 5.81109 4.76598 5.86382 4.78167 5.91395L7.19992 13.6406V16.3197L3.30112 3.86225L7.19992 2.64185Z" fill="#F18F15"/>
</g>
<defs>
<clipPath id="clip0_202_1646">
<rect width="24" height="24" fill="white"/>
</clipPath>
</defs>
</svg>
