<svg width="22" height="22" viewBox="0 0 22 22" fill="none" xmlns="http://www.w3.org/2000/svg">
<path d="M1.36385 11.6363L7.66385 17.9363C7.83359 18.1002 8.06093 18.1909 8.29691 18.1889C8.53288 18.1868 8.75862 18.0922 8.92548 17.9253C9.09235 17.7584 9.187 17.5327 9.18905 17.2967C9.1911 17.0607 9.10039 16.8334 8.93645 16.6637L4.17275 11.9L20.0001 11.9C20.2388 11.9 20.4678 11.8052 20.6365 11.6364C20.8053 11.4676 20.9001 11.2387 20.9001 11C20.9001 10.7613 20.8053 10.5324 20.6365 10.3636C20.4678 10.1948 20.2388 10.1 20.0001 10.1L4.17275 10.1L8.93645 5.33629C9.0224 5.25326 9.09097 5.15395 9.13814 5.04415C9.18531 4.93435 9.21013 4.81625 9.21117 4.69675C9.21221 4.57725 9.18944 4.45874 9.14419 4.34813C9.09893 4.23752 9.0321 4.13704 8.9476 4.05253C8.8631 3.96803 8.76261 3.9012 8.652 3.85595C8.5414 3.8107 8.42289 3.78792 8.30339 3.78896C8.18388 3.79 8.06579 3.81483 7.95598 3.862C7.84618 3.90917 7.74687 3.97773 7.66385 4.06369L1.36385 10.3637C1.19512 10.5325 1.10034 10.7613 1.10034 11C1.10034 11.2386 1.19512 11.4675 1.36385 11.6363V11.6363Z" fill="#364545"/>
</svg>
