<svg width="24" height="24" viewBox="0 0 24 24" fill="none" xmlns="http://www.w3.org/2000/svg">
<g clip-path="url(#clip0_594_2487)">
<path d="M22.5735 3.05455V3.0273C22.7047 2.65377 22.6828 2.24351 22.5126 1.88607C22.3424 1.52862 22.0377 1.25303 21.665 1.11944L20.4612 0.701527C20.0876 0.571573 19.6779 0.59406 19.3208 0.764115C18.9637 0.93417 18.6879 1.23809 18.5534 1.61003L13.3658 16.5095C13.3385 16.5822 13.9427 19.8801 13.9427 19.8801C13.4884 21.1792 12.3846 21.6971 12.0076 21.6244C11.8577 21.5971 12.0076 20.9884 12.0394 20.8067C12.1711 19.7529 11.3489 19.1714 10.3405 20.7659C10.186 21.0112 9.80446 21.5835 9.64093 21.5472C9.4774 21.5108 9.5955 20.9566 9.64093 20.7431C9.79537 19.7483 9.67273 18.431 7.21068 20.4933C6.32943 21.2292 5.13929 22.2603 4.44428 22.0514C4.20807 21.9787 3.74473 21.4245 3.89009 21.3246C5.16654 20.4524 6.99264 17.9268 6.73371 16.564C6.69999 16.3388 6.59632 16.1299 6.43736 15.9669C6.27839 15.8039 6.07219 15.6949 5.84792 15.6555C5.51023 15.5844 5.15954 15.6069 4.83371 15.7206C4.50788 15.8343 4.21929 16.0348 3.99911 16.3006C2.94525 17.4725 2.5773 19.712 2.77717 20.9566C1.89275 21.4773 0.967594 21.9255 0.0107777 22.2967C-0.0452964 22.3173 -0.0967677 22.3487 -0.140698 22.3892C-0.184628 22.4296 -0.220156 22.4784 -0.245253 22.5326C-0.270351 22.5868 -0.284528 22.6454 -0.286972 22.7051C-0.289417 22.7647 -0.280083 22.8243 -0.259502 22.8804C-0.238922 22.9365 -0.207499 22.9879 -0.167026 23.0319C-0.126554 23.0758 -0.077825 23.1113 -0.0236221 23.1364C0.0305808 23.1615 0.0891963 23.1757 0.148878 23.1782C0.208559 23.1806 0.268138 23.1713 0.324212 23.1507C1.26583 22.7872 2.17719 22.3498 3.04973 21.8424C3.14604 22.0931 3.29594 22.3198 3.48896 22.5065C3.68197 22.6933 3.91344 22.8356 4.16719 22.9236C5.33462 23.2733 6.69283 22.1195 7.80121 21.1883C8.10556 20.9294 8.49167 20.6023 8.75059 20.4252C8.75059 20.5115 8.66429 21.8197 8.99135 22.1877C9.06439 22.2724 9.15414 22.3411 9.25497 22.3896C9.35579 22.4381 9.46554 22.4652 9.57733 22.4693C10.2224 22.5011 10.6675 21.8697 11.0764 21.311C11.0342 21.6576 11.1306 22.0069 11.3444 22.2831C11.432 22.3767 11.5395 22.4494 11.659 22.4958C11.7786 22.5422 11.907 22.5611 12.0348 22.5511C12.6726 22.4671 13.2724 22.2002 13.7618 21.7827C14.2511 21.3651 14.609 20.8147 14.7922 20.198C14.7922 20.198 17.3723 17.9813 17.3996 17.9268L22.251 3.97669C22.3055 3.77682 23.1595 4.10388 23.0732 4.46728L21.824 8.23757C21.786 8.35203 21.7951 8.47686 21.8492 8.58463C21.9033 8.69239 21.998 8.77425 22.1124 8.8122C22.2269 8.85015 22.3517 8.84108 22.4595 8.78699C22.5672 8.73289 22.6491 8.6382 22.6871 8.52375L23.9317 4.75346C24.2951 3.72685 23.1141 3.08635 22.5735 3.05455ZM4.66686 16.9411C5.31645 16.2551 5.79795 16.4868 5.83884 16.7366C5.97965 17.4816 4.76226 19.4622 3.63117 20.3707C3.59937 19.3168 3.9446 17.7042 4.66686 16.9411ZM20.1614 1.57369L21.3606 1.9916C21.4341 2.0171 21.5018 2.05686 21.5599 2.10861C21.618 2.16035 21.6653 2.22306 21.699 2.29312C21.7328 2.36319 21.7524 2.43924 21.7567 2.5169C21.761 2.59456 21.7499 2.6723 21.724 2.74566L21.6241 3.0273L19.2983 2.20056L19.3983 1.91892C19.4543 1.77242 19.5659 1.65395 19.7088 1.5893C19.8517 1.52465 20.0144 1.51904 20.1614 1.57369ZM19.0122 3.07727L21.3288 3.88584L16.6909 17.1863L14.3742 16.3823L19.0122 3.07727ZM14.7149 19.0806L14.3879 17.3499L16.0686 17.9268L14.7149 19.0806Z" fill="#F18F15"/>
</g>
<defs>
<clipPath id="clip0_594_2487">
<rect width="24" height="24" fill="white"/>
</clipPath>
</defs>
</svg>
