<svg width="24" height="24" viewBox="0 0 24 24" fill="none" xmlns="http://www.w3.org/2000/svg">
<path d="M18.0876 12.123C17.105 12.123 16.1768 12.4434 15.4033 13.0494C15.2507 13.169 15.2239 13.3897 15.3435 13.5422C15.463 13.6948 15.6838 13.7216 15.8363 13.602C16.4851 13.0937 17.2635 12.825 18.0876 12.825C20.1028 12.825 21.7422 14.4645 21.7422 16.4796C21.7422 18.4948 20.1028 20.1342 18.0876 20.1342C16.0725 20.1342 14.433 18.4948 14.433 16.4796C14.433 15.7905 14.6266 15.1186 14.9929 14.5366C15.0961 14.3726 15.0468 14.1559 14.8828 14.0526C14.7187 13.9493 14.502 13.9987 14.3987 14.1627C13.9619 14.8569 13.731 15.6581 13.731 16.4796C13.731 18.8819 15.6853 20.8363 18.0876 20.8363C20.4899 20.8363 22.4443 18.8819 22.4443 16.4796C22.4443 14.0775 20.4899 12.123 18.0876 12.123Z" fill="#F18F15"/>
<path d="M20.8406 16.6524H18.4387V14.2504C18.4387 14.0566 18.2815 13.8994 18.0877 13.8994C17.8938 13.8994 17.7367 14.0566 17.7367 14.2504V17.0034C17.7367 17.1973 17.8938 17.3544 18.0877 17.3544H20.8406C21.0345 17.3544 21.1916 17.1973 21.1916 17.0034C21.1916 16.8096 21.0345 16.6524 20.8406 16.6524Z" fill="#F18F15"/>
<path d="M21.4471 11.6174V5.52874C21.4471 4.61383 20.7028 3.86946 19.7878 3.86946H19.0345V3.0056C19.0345 2.23492 18.4075 1.60797 17.6369 1.60797C16.8662 1.60797 16.2392 2.23492 16.2392 3.0056V3.86941H14.4257V3.0056C14.4257 2.23492 13.7987 1.60797 13.0281 1.60797C12.2574 1.60797 11.6304 2.23492 11.6304 3.0056V3.86941H9.81689V3.0056C9.81689 2.23492 9.18994 1.60797 8.41927 1.60797C7.64859 1.60797 7.02164 2.23492 7.02164 3.0056V3.86941H5.20809V3.0056C5.20809 2.23492 4.58114 1.60797 3.81047 1.60797C3.0398 1.60797 2.4127 2.23492 2.4127 3.0056V3.86941H1.65928C0.744375 3.86941 0 4.61374 0 5.52874V5.70189C0 5.89572 0.157172 6.05289 0.351 6.05289C0.544828 6.05289 0.702 5.89572 0.702 5.70189V5.52874C0.702 5.00092 1.13147 4.57146 1.65928 4.57146H2.41261C2.41261 4.57146 2.41261 5.43522 2.41261 5.43527C2.41261 6.20594 3.03956 6.83289 3.81023 6.83289C4.58091 6.83289 5.20786 6.20594 5.20786 5.43522V4.57146H7.02141C7.02141 4.57146 7.02141 5.43522 7.02141 5.43527C7.02141 6.20594 7.64836 6.83289 8.41903 6.83289C9.1897 6.83289 9.81666 6.20594 9.81666 5.43522V4.57146H11.6302C11.6302 4.57146 11.6302 5.43522 11.6302 5.43527C11.6302 6.20594 12.2572 6.83289 13.0278 6.83289C13.7985 6.83289 14.4255 6.20594 14.4255 5.43522V4.57146H16.239C16.239 4.57146 16.239 5.43522 16.239 5.43527C16.239 6.20594 16.866 6.83289 17.6366 6.83289C18.4073 6.83289 19.0343 6.20594 19.0343 5.43522V4.57146H19.7876C20.3154 4.57146 20.7449 5.00092 20.7449 5.52874V8.00608H0.702V7.10589C0.702 6.91206 0.544828 6.75489 0.351 6.75489C0.157172 6.75489 0 6.91202 0 7.10589V19.2194C0 20.1344 0.744375 20.8787 1.65928 20.8787H14.1419C15.1891 21.8191 16.5726 22.3921 18.0876 22.3921C19.3526 22.3921 20.5594 21.9978 21.5776 21.2521C21.7341 21.1375 21.768 20.9178 21.6534 20.7615C21.5388 20.605 21.3191 20.5712 21.1628 20.6857C20.2657 21.3428 19.2024 21.69 18.0876 21.69C15.2145 21.69 12.8772 19.3526 12.8772 16.4797C12.8772 13.6067 15.2146 11.2693 18.0876 11.2693C18.6074 11.2693 19.1251 11.3471 19.6221 11.5C19.6319 11.503 19.6416 11.5061 19.6515 11.5092C21.7627 12.175 23.298 14.1513 23.298 16.4797C23.298 17.6809 22.8792 18.8532 22.119 19.7806C21.996 19.9305 22.0179 20.1517 22.1678 20.2745C22.3177 20.3974 22.5389 20.3755 22.6618 20.2257C23.5247 19.1732 24 17.8428 24 16.4797C24 14.4666 22.9884 12.6856 21.4471 11.6174ZM4.50586 5.43522C4.50586 5.8188 4.19381 6.13085 3.81023 6.13085C3.42666 6.13085 3.11461 5.81885 3.11461 5.43522V3.0056C3.11461 2.62202 3.42661 2.30997 3.81023 2.30997C4.19381 2.30997 4.50586 2.62197 4.50586 3.0056V5.43522ZM9.1147 5.43522C9.1147 5.8188 8.80266 6.13085 8.41908 6.13085C8.0355 6.13085 7.72345 5.81885 7.72345 5.43522V3.0056C7.72345 2.62202 8.0355 2.30997 8.41908 2.30997C8.80266 2.30997 9.1147 2.62197 9.1147 3.0056V5.43522ZM13.7236 5.43522C13.7236 5.8188 13.4115 6.13085 13.028 6.13085C12.6444 6.13085 12.3323 5.81885 12.3323 5.43522V3.0056C12.3323 2.62202 12.6444 2.30997 13.028 2.30997C13.4115 2.30997 13.7236 2.62197 13.7236 3.0056V5.43522ZM18.3324 5.43522C18.3324 5.8188 18.0204 6.13085 17.6368 6.13085C17.2532 6.13085 16.9412 5.81885 16.9412 5.43522V3.0056C16.9412 2.62202 17.2532 2.30997 17.6368 2.30997C18.0204 2.30997 18.3324 2.62197 18.3324 3.0056V5.43522ZM9.00005 8.70808H12.447V12.0629H9.00005V8.70808ZM4.149 20.1767H1.65928C1.13147 20.1767 0.702 19.7472 0.702 19.2194V16.8218H4.14895V20.1767H4.149ZM4.149 16.1198H0.702V12.765H4.14895V16.1198H4.149ZM4.149 12.0629H0.702V8.70808H4.14895V12.0629H4.149ZM4.851 12.765H8.29795V16.1198H4.851V12.765ZM8.29805 20.1767H4.85109V16.8219H8.29805V20.1767ZM8.29805 12.0629H4.85109V8.70808H8.29805V12.0629ZM9 12.765H12.447V14.7065C12.3052 15.1569 12.216 15.6305 12.1865 16.1199H9V12.765ZM13.4721 20.1767H9.00005V16.8219H12.1851C12.2547 18.0609 12.7013 19.2205 13.4721 20.1767ZM13.1491 13.233V12.765H13.4918C13.3702 12.9151 13.2558 13.0713 13.1491 13.233ZM16.596 10.7581C15.6796 10.9971 14.8492 11.4513 14.1619 12.0629H13.1491V8.70808H16.596V10.7581ZM20.7451 11.197C20.4145 11.0305 20.0697 10.8965 19.7152 10.7952C19.7077 10.793 19.7001 10.7909 19.6926 10.7887C19.1712 10.6414 18.6295 10.5672 18.0877 10.5672C17.82 10.5673 17.5565 10.5855 17.2981 10.6201V8.70799H20.7451V11.197Z" fill="#F18F15"/>
</svg>
