<svg width="24" height="24" viewBox="0 0 24 24" fill="none" xmlns="http://www.w3.org/2000/svg">
<path d="M8.76923 0H2.30769C1.69588 0.000732857 1.10933 0.244099 0.676717 0.676717C0.244099 1.10933 0.000732857 1.69588 0 2.30769V8.76923C0.000732857 9.38104 0.244099 9.96759 0.676717 10.4002C1.10933 10.8328 1.69588 11.0762 2.30769 11.0769H8.76923C9.38104 11.0762 9.96759 10.8328 10.4002 10.4002C10.8328 9.96759 11.0762 9.38104 11.0769 8.76923V2.30769C11.0762 1.69588 10.8328 1.10933 10.4002 0.676717C9.96759 0.244099 9.38104 0.000732857 8.76923 0ZM10.1538 8.76923C10.1538 9.13645 10.008 9.48864 9.7483 9.7483C9.48864 10.008 9.13645 10.1538 8.76923 10.1538H2.30769C1.94047 10.1538 1.58829 10.008 1.32862 9.7483C1.06896 9.48864 0.923077 9.13645 0.923077 8.76923V2.30769C0.923077 1.94047 1.06896 1.58829 1.32862 1.32862C1.58829 1.06896 1.94047 0.923077 2.30769 0.923077H8.76923C9.13645 0.923077 9.48864 1.06896 9.7483 1.32862C10.008 1.58829 10.1538 1.94047 10.1538 2.30769V8.76923ZM21.6923 0H15.2308C14.619 0.000732857 14.0324 0.244099 13.5998 0.676717C13.1672 1.10933 12.9238 1.69588 12.9231 2.30769V8.76923C12.9238 9.38104 13.1672 9.96759 13.5998 10.4002C14.0324 10.8328 14.619 11.0762 15.2308 11.0769H21.6923C22.3041 11.0762 22.8907 10.8328 23.3233 10.4002C23.7559 9.96759 23.9993 9.38104 24 8.76923V2.30769C23.9993 1.69588 23.7559 1.10933 23.3233 0.676717C22.8907 0.244099 22.3041 0.000732857 21.6923 0ZM23.0769 8.76923C23.0769 9.13645 22.931 9.48864 22.6714 9.7483C22.4117 10.008 22.0595 10.1538 21.6923 10.1538H15.2308C14.8635 10.1538 14.5114 10.008 14.2517 9.7483C13.992 9.48864 13.8462 9.13645 13.8462 8.76923V2.30769C13.8462 1.94047 13.992 1.58829 14.2517 1.32862C14.5114 1.06896 14.8635 0.923077 15.2308 0.923077H21.6923C22.0595 0.923077 22.4117 1.06896 22.6714 1.32862C22.931 1.58829 23.0769 1.94047 23.0769 2.30769V8.76923ZM8.76923 12.9231H2.30769C1.69588 12.9238 1.10933 13.1672 0.676717 13.5998C0.244099 14.0324 0.000732857 14.619 0 15.2308V21.6923C0.000732857 22.3041 0.244099 22.8907 0.676717 23.3233C1.10933 23.7559 1.69588 23.9993 2.30769 24H8.76923C9.38104 23.9993 9.96759 23.7559 10.4002 23.3233C10.8328 22.8907 11.0762 22.3041 11.0769 21.6923V15.2308C11.0762 14.619 10.8328 14.0324 10.4002 13.5998C9.96759 13.1672 9.38104 12.9238 8.76923 12.9231ZM10.1538 21.6923C10.1538 22.0595 10.008 22.4117 9.7483 22.6714C9.48864 22.931 9.13645 23.0769 8.76923 23.0769H2.30769C1.94047 23.0769 1.58829 22.931 1.32862 22.6714C1.06896 22.4117 0.923077 22.0595 0.923077 21.6923V15.2308C0.923077 14.8635 1.06896 14.5114 1.32862 14.2517C1.58829 13.992 1.94047 13.8462 2.30769 13.8462H8.76923C9.13645 13.8462 9.48864 13.992 9.7483 14.2517C10.008 14.5114 10.1538 14.8635 10.1538 15.2308V21.6923ZM18.4615 12.9231C17.3661 12.9231 16.2953 13.2479 15.3845 13.8565C14.4737 14.4651 13.7639 15.33 13.3447 16.3421C12.9255 17.3541 12.8158 18.4677 13.0295 19.542C13.2432 20.6164 13.7707 21.6033 14.5453 22.3778C15.3198 23.1524 16.3067 23.6799 17.381 23.8936C18.4554 24.1073 19.569 23.9976 20.581 23.5784C21.593 23.1592 22.458 22.4493 23.0666 21.5385C23.6752 20.6277 24 19.5569 24 18.4615C23.9984 16.9931 23.4144 15.5853 22.3761 14.547C21.3377 13.5087 19.9299 12.9247 18.4615 12.9231ZM18.4615 23.0769C17.5487 23.0769 16.6564 22.8062 15.8974 22.2991C15.1384 21.7919 14.5468 21.0711 14.1975 20.2278C13.8482 19.3844 13.7568 18.4564 13.9348 17.5611C14.1129 16.6658 14.5525 15.8434 15.198 15.198C15.8434 14.5525 16.6658 14.1129 17.5611 13.9348C18.4564 13.7568 19.3844 13.8482 20.2278 14.1975C21.0711 14.5468 21.7919 15.1384 22.2991 15.8974C22.8062 16.6564 23.0769 17.5487 23.0769 18.4615C23.0756 19.6852 22.5889 20.8584 21.7236 21.7236C20.8584 22.5889 19.6852 23.0756 18.4615 23.0769Z" fill="#F18F15"/>
</svg>
