<svg width="512" height="512" viewBox="0 0 512 512" fill="none" xmlns="http://www.w3.org/2000/svg">
<path d="M255 16C114.39 16 0 116.928 0 241C0 293.412 20.742 344.198 58.491 384.452C65.962 415.258 56.894 447.894 34.394 470.394C24.986 479.803 31.639 496 45 496C87.744 496 128.95 479.257 159.565 449.726C189.858 460.536 221.909 466 255 466C395.61 466 512 365.072 512 241C512 116.928 395.61 16 255 16ZM137 286C112.186 286 92 265.814 92 241C92 216.186 112.186 196 137 196C161.814 196 182 216.186 182 241C182 265.814 161.814 286 137 286ZM257 286C232.186 286 212 265.814 212 241C212 216.186 232.186 196 257 196C281.814 196 302 216.186 302 241C302 265.814 281.814 286 257 286ZM377 286C352.186 286 332 265.814 332 241C332 216.186 352.186 196 377 196C401.814 196 422 216.186 422 241C422 265.814 401.814 286 377 286Z" fill="black"/>
</svg>
