<svg width="24" height="24" viewBox="0 0 24 24" fill="none" xmlns="http://www.w3.org/2000/svg">
<path d="M12 0C9.62663 0 7.30655 0.703788 5.33316 2.02236C3.35977 3.34094 1.8217 5.21509 0.913451 7.4078C0.0051994 9.60051 -0.232441 12.0133 0.230582 14.3411C0.693605 16.6689 1.83649 18.8071 3.51472 20.4853C5.19295 22.1635 7.33115 23.3064 9.65892 23.7694C11.9867 24.2324 14.3995 23.9948 16.5922 23.0866C18.7849 22.1783 20.6591 20.6402 21.9776 18.6668C23.2962 16.6935 24 14.3734 24 12C24 8.8174 22.7357 5.76515 20.4853 3.51472C18.2348 1.26428 15.1826 0 12 0ZM17.1429 12.8571H12.8571V17.1429C12.8571 17.3702 12.7668 17.5882 12.6061 17.7489C12.4454 17.9097 12.2273 18 12 18C11.7727 18 11.5547 17.9097 11.3939 17.7489C11.2332 17.5882 11.1429 17.3702 11.1429 17.1429V12.8571H6.85715C6.62982 12.8571 6.4118 12.7668 6.25106 12.6061C6.09031 12.4453 6.00001 12.2273 6.00001 12C6.00001 11.7727 6.09031 11.5547 6.25106 11.3939C6.4118 11.2332 6.62982 11.1429 6.85715 11.1429H11.1429V6.85714C11.1429 6.62981 11.2332 6.4118 11.3939 6.25105C11.5547 6.09031 11.7727 6 12 6C12.2273 6 12.4454 6.09031 12.6061 6.25105C12.7668 6.4118 12.8571 6.62981 12.8571 6.85714V11.1429H17.1429C17.3702 11.1429 17.5882 11.2332 17.749 11.3939C17.9097 11.5547 18 11.7727 18 12C18 12.2273 17.9097 12.4453 17.749 12.6061C17.5882 12.7668 17.3702 12.8571 17.1429 12.8571Z" fill="white"/>
</svg>
