<svg width="24" height="24" viewBox="0 0 24 24" fill="none" xmlns="http://www.w3.org/2000/svg">
<path d="M22.0342 5.04132L12.2377 1.54132C12.083 1.48672 11.9143 1.48672 11.7596 1.54132L1.96556 5.04132C1.68797 5.14138 1.50293 5.40477 1.50293 5.69984C1.50293 5.99492 1.68797 6.25831 1.96556 6.35837L6.75006 8.06777V10.25C6.75006 11.6108 11.4628 11.65 12.0001 11.65C12.5373 11.65 17.2501 11.6108 17.2501 10.25V8.06777L18.3001 7.69502V8.50002C18.3001 8.88662 18.6135 9.20002 19.0001 9.20002H19.7001C20.0867 9.20002 20.4001 8.88662 20.4001 8.50002V7.45002C20.399 7.28794 20.3599 7.12838 20.286 6.98417L22.036 6.35837C22.3136 6.25831 22.4986 5.99492 22.4986 5.69984C22.4986 5.40477 22.3136 5.14138 22.036 5.04132H22.0342ZM16.5501 9.48002C15.2169 8.87312 12.4078 8.85002 12.0001 8.85002C11.5923 8.85002 8.78321 8.87312 7.45006 9.48002V6.43082C7.66006 6.16132 9.31066 5.70002 12.0001 5.70002C14.6895 5.70002 16.3401 6.16132 16.5501 6.43082V9.48002ZM12.0001 10.95C9.41006 10.95 7.78361 10.5223 7.47946 10.25C7.78361 9.97772 9.41076 9.55002 12.0001 9.55002C14.5894 9.55002 16.2165 9.97772 16.5207 10.25C16.2165 10.5223 14.5901 10.95 12.0001 10.95V10.95ZM18.4642 6.89177L17.2501 7.32472V6.40002C17.2501 5.03922 12.5373 5.00002 12.0001 5.00002C11.4628 5.00002 6.75006 5.03922 6.75006 6.40002V7.32437L2.20006 5.70002L12.005 2.20002L19.0001 4.69972V6.46442C18.7788 6.54306 18.5901 6.6935 18.4642 6.89177ZM19.7001 8.50002H19.0001V7.45002C19.0001 7.25672 19.1568 7.10002 19.3501 7.10002C19.5434 7.10002 19.7001 7.25672 19.7001 7.45002V8.50002ZM19.7001 6.45042V4.94997L21.8001 5.70002L19.7001 6.45042Z" fill="#F18F15"/>
<path d="M21.45 12.3501C21.429 12.35 21.408 12.3519 21.3873 12.3557C18.2819 12.8385 15.1427 13.0707 12 13.0501C8.85733 13.0707 5.71809 12.8385 2.61265 12.3557C2.59195 12.3522 2.571 12.3503 2.55 12.3501C2.305 12.3501 1.5 12.6276 1.5 16.2001C1.5 19.7725 2.305 20.0501 2.55 20.0501C2.57102 20.0497 2.59197 20.0475 2.61265 20.0438C4.99885 19.6658 7.40744 19.4463 9.82265 19.3865L9.13945 21.0252C9.03449 21.2876 9.0983 21.5874 9.30102 21.7843C9.50375 21.9812 9.80528 22.0362 10.0645 21.9236L10.3323 21.8092L10.4481 22.0755C10.5575 22.3338 10.8113 22.5012 11.0918 22.5001H11.1005C11.3831 22.4979 11.6364 22.3254 11.742 22.0633L12.35 20.608L12.9558 22.0577C13.0605 22.3223 13.315 22.4972 13.5995 22.5001H13.61C13.8886 22.5012 14.1409 22.3359 14.2512 22.0801L14.3681 21.8116L14.6317 21.9247C14.892 22.0396 15.196 21.9849 15.3999 21.7864C15.6038 21.5878 15.6667 21.2854 15.5588 21.022L14.8889 19.4155C17.0665 19.4927 19.2373 19.703 21.3891 20.0455C21.4092 20.0489 21.4296 20.0504 21.45 20.0501C21.695 20.0501 22.5 19.7725 22.5 16.2001C22.5 12.6276 21.695 12.3501 21.45 12.3501V12.3501ZM13.12 13.7396C13.2653 14.274 13.35 14.8232 13.3724 15.3765C12.5788 15.0075 11.648 15.094 10.936 15.603C10.9181 14.9745 10.8375 14.3493 10.6956 13.7368C11.1195 13.7457 11.5543 13.7501 12 13.7501C12.3825 13.7501 12.7539 13.7459 13.12 13.7396V13.7396ZM12.35 19.3501C11.3835 19.3501 10.6 18.5666 10.6 17.6001C10.6 16.6336 11.3835 15.8501 12.35 15.8501C13.3165 15.8501 14.1 16.6336 14.1 17.6001C14.0988 18.5661 13.316 19.3489 12.35 19.3501V19.3501ZM2.55 13.2251C2.81818 14.193 2.93622 15.1964 2.9 16.2001C2.93622 17.2038 2.81818 18.2072 2.55 19.1751C2.28182 18.2072 2.16378 17.2038 2.2 16.2001C2.16378 15.1964 2.28182 14.193 2.55 13.2251ZM3.257 19.2346C3.44845 18.6795 3.6 17.7506 3.6 16.2001C3.6 14.6496 3.44845 13.7207 3.25665 13.1649C5.48076 13.4721 7.72004 13.657 9.9644 13.7189C10.1743 14.5287 10.2704 15.3638 10.25 16.2001C10.25 16.2508 10.25 16.2991 10.2479 16.3478C9.82789 17.0449 9.78556 17.9061 10.1352 18.641L10.1198 18.6781C7.82353 18.7344 5.53227 18.9204 3.257 19.2353V19.2346ZM11.0924 21.8001L10.8369 21.2121C10.7601 21.0355 10.5551 20.9542 10.3781 21.0301L9.78905 21.2905L10.6098 19.3228C10.9468 19.6642 11.3766 19.8991 11.846 19.9983L11.0924 21.8001ZM14.3219 21.0301C14.1449 20.9542 13.9399 21.0355 13.8631 21.2121L13.604 21.7942L12.8536 19.9976C13.3234 19.8984 13.7536 19.6634 14.0909 19.3217L14.9099 21.2817L14.3219 21.0301ZM21.38 19.3326C19.1314 18.9865 16.8639 18.7761 14.59 18.7026L14.5651 18.6424C15.0053 17.7149 14.8166 16.6109 14.0933 15.8823C14.0906 15.1565 14.0068 14.4332 13.8434 13.7259C16.3672 13.6694 18.8847 13.4494 21.38 13.0672C21.5424 13.343 21.8 14.434 21.8 16.2001C21.8 17.9662 21.5406 19.0568 21.38 19.3326V19.3326Z" fill="#F18F15"/>
</svg>
