<svg width="24" height="24" viewBox="0 0 24 24" fill="none" xmlns="http://www.w3.org/2000/svg">
<path d="M20.0532 14.4177C19.8776 14.3149 19.6529 14.3736 19.5508 14.5488L15.3415 21.728C15.0374 22.2542 14.3629 22.4356 13.8529 22.1411L13.0329 21.6097C12.8625 21.4992 12.6352 21.5477 12.525 21.7181C12.4145 21.8881 12.4633 22.1158 12.6333 22.2259L13.4694 22.7672C13.7577 22.9339 14.0731 23.0128 14.3845 23.0128C15.0194 23.0128 15.6371 22.6842 15.976 22.0974L20.1838 14.92C20.2863 14.7452 20.228 14.5201 20.0532 14.4177Z" fill="#F18F15"/>
<path d="M21.164 0.987122H15.2887C14.1526 0.987122 13.3062 1.3488 12.4587 2.19632C12.3151 2.33992 12.3151 2.57199 12.4587 2.71554C12.6023 2.85914 12.8343 2.85914 12.9779 2.71554C13.6932 2.00022 14.3413 1.7215 15.2887 1.7215H21.164C21.7713 1.7215 22.2656 2.21577 22.2656 2.82312V8.69844C22.2656 9.64621 21.9869 10.2939 21.2712 11.0092L10.3659 21.93C9.94951 22.3457 9.22391 22.346 8.80826 21.93L2.05716 15.1789C1.84898 14.9707 1.73438 14.6942 1.73438 14.3996C1.73438 14.1055 1.84893 13.829 2.05678 13.6212L11.9133 3.7786C12.065 3.81716 12.217 3.85571 12.3745 3.89793C13.8683 4.29817 15.0471 4.71166 15.9258 5.0807C15.7528 5.4009 15.6559 5.75966 15.6559 6.12797C15.6559 7.34306 16.644 8.3312 17.8591 8.3312C19.0742 8.3312 20.0623 7.34306 20.0623 6.12797C20.0623 4.91288 19.0742 3.92474 17.8591 3.92474C17.656 3.92474 17.4919 4.08925 17.4919 4.29193C17.4919 4.49461 17.656 4.65912 17.8591 4.65912C18.6692 4.65912 19.3279 5.31789 19.3279 6.12793C19.3279 6.938 18.6691 7.59673 17.8591 7.59673C17.0491 7.59673 16.3903 6.93796 16.3903 6.12793C16.3903 5.86354 16.4626 5.60539 16.596 5.38068C17.232 5.68508 17.6296 5.94177 17.7868 6.10555C17.7196 6.12466 17.6157 6.14596 17.4589 6.15951C17.257 6.1775 17.1075 6.35561 17.1255 6.55756C17.1424 6.74849 17.3025 6.89282 17.4909 6.89282C17.5015 6.89282 17.5125 6.89209 17.5236 6.89135C17.7494 6.87117 18.4364 6.81058 18.5686 6.31813C18.9303 4.96718 13.6305 3.47411 12.5644 3.18842C10.9337 2.75143 9.36755 2.45253 8.15392 2.3468C6.66269 2.21646 5.93636 2.38609 5.79978 2.89649C5.73441 3.14143 5.56 3.79172 8.53729 4.96568C8.72569 5.04021 8.93938 4.94769 9.01357 4.75895C9.08776 4.57021 8.99519 4.35686 8.80646 4.28268C7.36812 3.71534 6.77212 3.29966 6.58119 3.10395C7.03397 2.97102 8.58248 3.00958 11.0762 3.57652L1.53794 13.1016C1.19093 13.4486 1 13.9094 1 14.3996C1 14.8903 1.19093 15.3514 1.53794 15.6981L8.289 22.4491C8.63528 22.7958 9.09649 22.9867 9.58671 22.9867C10.0773 22.9867 10.5381 22.7958 10.8852 22.4488L21.7908 11.5285C22.6386 10.681 23 9.83456 23 8.69844V2.82316C23 1.81075 22.1764 0.987122 21.164 0.987122Z" fill="#F18F15"/>
<path d="M13.0101 10.6421C12.8666 10.4985 12.6345 10.4985 12.4909 10.6421L12.2926 10.8404C12.0021 10.648 11.6555 10.5345 11.2817 10.5345C10.2693 10.5345 9.44566 11.3581 9.44566 12.3705C9.44566 12.9177 9.67149 13.3502 9.86832 13.6664C10.0519 13.9612 10.1801 14.3813 10.1801 14.5738C10.1801 15.1811 9.68582 15.6754 9.07847 15.6754C8.47112 15.6754 7.97685 15.1811 7.97685 14.5738C7.97685 14.3508 8.04329 14.136 8.1689 13.9525C8.28346 13.7854 8.24051 13.5566 8.07342 13.4421C7.90598 13.3279 7.67757 13.3705 7.56302 13.5375C7.35332 13.8438 7.24243 14.2022 7.24243 14.5738C7.24243 14.9476 7.3559 15.2942 7.5483 15.5847L7.35001 15.783C7.20641 15.9265 7.20641 16.1587 7.35001 16.3022C7.42161 16.3738 7.51564 16.4098 7.60962 16.4098C7.70364 16.4098 7.79763 16.3738 7.86923 16.3022L8.06752 16.1039C8.35799 16.2963 8.70461 16.4098 9.07843 16.4098C10.0908 16.4098 10.9145 15.5862 10.9145 14.5738C10.9145 14.2161 10.7367 13.6712 10.4918 13.2779C10.2733 12.9272 10.18 12.6559 10.18 12.3705C10.18 11.7632 10.6743 11.2689 11.2817 11.2689C11.5762 11.2689 11.8424 11.3864 12.0399 11.5755C12.0462 11.5821 12.0484 11.5909 12.0546 11.5975C12.0612 11.6038 12.07 11.606 12.0766 11.6122C12.2658 11.8098 12.3832 12.076 12.3832 12.3705C12.3832 12.6649 12.2683 12.9422 12.0597 13.1508C11.9161 13.294 11.9161 13.5264 12.0593 13.67C12.2022 13.8136 12.435 13.8132 12.5786 13.6704C12.9259 13.323 13.1176 12.8614 13.1176 12.3705C13.1176 11.9967 13.0041 11.65 12.8117 11.3596L13.01 11.1613C13.1537 11.0177 13.1537 10.7856 13.0101 10.6421Z" fill="#F18F15"/>
</svg>
