<svg width="20" height="20" viewBox="0 0 20 20" fill="none" xmlns="http://www.w3.org/2000/svg">
<path d="M14.2857 4.28576C14.2857 4.68076 13.9657 5.00004 13.5714 5.00004H6.17432C5.63789 5.75789 4.3879 6.21432 3.77791 6.39789C3.40505 6.51146 3.00291 6.30146 2.88863 5.92075C2.77434 5.54361 2.98791 5.14504 3.36505 5.03076C4.02505 4.83076 4.74004 4.47505 4.96147 4.24719C4.80504 4.04648 4.35433 3.70362 3.94934 3.4872C3.60148 3.30077 3.47077 2.86792 3.65648 2.52006C3.84291 2.17221 4.27648 2.04149 4.62362 2.22721C5.03361 2.44721 5.83218 2.93792 6.21432 3.57148H7.05288C6.7986 2.46221 6.03646 1.51721 5.76432 0.697219C5.73289 0.602934 5.79432 0.499363 5.88861 0.467934C9.83501 -0.853484 10.0479 1.09507 13.7921 0.603648C13.9528 0.582219 14.0664 0.762932 13.965 0.890074C13.3778 1.62435 13.025 2.54506 12.91 3.57148H13.5714C13.9657 3.57148 14.2857 3.89077 14.2857 4.28576Z" fill="#000"/>
<path d="M13.6607 6.07141H6.29574C4.87075 7.84497 2.14291 9.93781 2.14291 13.2592C2.14291 17.0042 4.28575 19.9999 10 19.9999C15.7142 19.9999 17.8571 17.0042 17.8571 13.2592C17.8571 9.90567 15.0735 7.87283 13.6607 6.07141ZM5.89074 13.5714C8.12287 13.5714 9.47143 14.9106 9.47143 17.1428C7.2393 17.1428 5.89074 15.8035 5.89074 13.5714ZM9.99643 14.6428C8.33001 13.3049 8.33644 11.6949 10.0036 10.3571C11.67 11.6949 11.6628 13.3049 9.99643 14.6428ZM10.5286 17.1428C10.5286 14.9106 11.8771 13.5714 14.1093 13.5714C14.1093 15.8035 12.7607 17.1428 10.5286 17.1428Z" fill="#000"/>
</svg>
