<svg width="16" height="16" viewBox="0 0 16 16" fill="none" xmlns="http://www.w3.org/2000/svg">
<path d="M13.0722 5.9668C12.8664 3.3487 10.6701 1.28125 7.99998 1.28125C5.716 1.28125 3.7554 2.7647 3.12278 4.92826C1.31821 5.55466 0.0852051 7.26425 0.0852051 9.19602C0.0852051 11.6897 2.11421 13.7188 4.60793 13.7188H11.9574C14.1396 13.7188 15.9147 11.9436 15.9147 9.76136C15.9147 7.98111 14.7445 6.45299 13.0722 5.9668ZM10.661 9.03038L8.39967 11.2917C8.28943 11.402 8.1447 11.4574 7.99998 11.4574C7.85525 11.4574 7.71052 11.402 7.60028 11.2917L5.33892 9.03038C5.17723 8.86869 5.12861 8.62559 5.21624 8.41416C5.30387 8.20328 5.51022 8.06534 5.73861 8.06534H6.8693V5.80398C6.8693 5.17984 7.37584 4.6733 7.99998 4.6733C8.62411 4.6733 9.13066 5.17984 9.13066 5.80398V8.06534H10.2613C10.4897 8.06534 10.6961 8.20328 10.7837 8.41416C10.8713 8.62559 10.8227 8.86869 10.661 9.03038Z" fill="#143360"/>
</svg>
