<svg width="16" height="16" viewBox="0 0 16 16" fill="none" xmlns="http://www.w3.org/2000/svg">
<path d="M12.9692 6.93764C12.7103 6.93764 12.5004 7.14752 12.5004 7.40641V14.2816C12.5004 14.7124 12.1499 15.0629 11.7191 15.0629H1.71881C1.28801 15.0629 0.93753 14.7124 0.93753 14.2816V4.28131C0.93753 3.85051 1.28801 3.50003 1.71881 3.50003H8.59403C8.85291 3.50003 9.06279 3.29015 9.06279 3.03127C9.06279 2.77238 8.85291 2.5625 8.59403 2.5625H1.71881C0.771056 2.5625 0 3.33356 0 4.28131V14.2816C0 15.2294 0.771056 16.0004 1.71881 16.0004H11.7191C12.6669 16.0004 13.4379 15.2294 13.4379 14.2816V7.40641C13.4379 7.14752 13.2281 6.93764 12.9692 6.93764Z" fill="white"/>
<path d="M15.6809 1.20377L14.797 0.319838C14.3706 -0.106613 13.6767 -0.106613 13.2502 0.319838L6.17892 7.39113C6.11348 7.45657 6.06888 7.53991 6.0507 7.63067L5.60871 9.84046C5.57799 9.99415 5.62609 10.153 5.73693 10.2638C5.82572 10.3526 5.94532 10.4012 6.06838 10.4012C6.09898 10.4012 6.12973 10.3982 6.16029 10.3921L8.37008 9.95009C8.46084 9.93193 8.54418 9.8873 8.60962 9.82186L15.6809 2.7506C15.6809 2.7506 15.681 2.7506 15.681 2.75057C16.1074 2.32415 16.1074 1.63026 15.6809 1.20377ZM8.04707 9.05859L6.66597 9.33485L6.94222 7.95374L12.6977 2.19815L13.8026 3.30306L8.04707 9.05859ZM15.018 2.08768L14.4656 2.64013L13.3607 1.53522L13.9131 0.982797C13.974 0.921858 14.0731 0.921827 14.1341 0.982766L15.018 1.8667C15.079 1.92761 15.079 2.02677 15.018 2.08768Z" fill="white"/>
</svg>
