<svg width="16" height="17" viewBox="0 0 16 17" fill="none" xmlns="http://www.w3.org/2000/svg">
<path d="M7.99998 15.6098C7.7722 15.6098 7.5526 15.5273 7.38146 15.3774C6.73509 14.8122 6.11193 14.2811 5.56212 13.8126L5.55932 13.8102C3.94738 12.4365 2.55541 11.2502 1.58691 10.0816C0.504271 8.77525 0 7.53661 0 6.18346C0 4.86877 0.450805 3.65588 1.26928 2.76806C2.09753 1.86975 3.234 1.375 4.46972 1.375C5.3933 1.375 6.23912 1.66699 6.98363 2.2428C7.35936 2.53345 7.69994 2.88916 7.99998 3.30407C8.30015 2.88916 8.64061 2.53345 9.01646 2.2428C9.76097 1.66699 10.6068 1.375 11.5304 1.375C12.766 1.375 13.9026 1.86975 14.7308 2.76806C15.5493 3.65588 16 4.86877 16 6.18346C16 7.53661 15.4958 8.77525 14.4132 10.0815C13.4447 11.2502 12.0528 12.4364 10.4411 13.8099C9.89036 14.2791 9.26622 14.8111 8.61839 15.3777C8.44737 15.5273 8.22764 15.6098 7.99998 15.6098ZM4.46972 2.31225C3.49889 2.31225 2.60705 2.6997 1.95825 3.40332C1.2998 4.11755 0.937132 5.10485 0.937132 6.18346C0.937132 7.32152 1.3601 8.33934 2.30847 9.48363C3.22509 10.5897 4.58849 11.7516 6.1671 13.0969L6.17003 13.0993C6.72191 13.5697 7.34752 14.1029 7.99864 14.6722C8.65367 14.1018 9.28026 13.5677 9.83323 13.0967C11.4117 11.7513 12.775 10.5897 13.6916 9.48363C14.6399 8.33934 15.0628 7.32152 15.0628 6.18346C15.0628 5.10485 14.7002 4.11755 14.0417 3.40332C13.393 2.6997 12.5011 2.31225 11.5304 2.31225C10.8192 2.31225 10.1662 2.53833 9.5897 2.98413C9.07591 3.38159 8.718 3.88403 8.50816 4.23559C8.40025 4.41638 8.21031 4.52429 7.99998 4.52429C7.78966 4.52429 7.59972 4.41638 7.49181 4.23559C7.28209 3.88403 6.92418 3.38159 6.41027 2.98413C5.83373 2.53833 5.18078 2.31225 4.46972 2.31225Z" fill="#143360"/>
</svg>
