<svg width="25" height="24" viewBox="0 0 25 24" fill="none" xmlns="http://www.w3.org/2000/svg">
<g clip-path="url(#clip0_178_1000)">
<path d="M24.1918 16.1321L20.585 12.5247C21.4564 11.3765 22.0004 10.0001 22.1399 8.557C22.3107 6.78601 21.8696 4.99671 20.8977 3.5185C20.791 3.35627 20.5729 3.31123 20.4108 3.41798C20.2486 3.52473 20.2036 3.74281 20.3103 3.90504C22.1496 6.70215 21.7638 10.4534 19.393 12.8245C16.6239 15.5937 12.1186 15.5937 9.34965 12.8245C6.58055 10.0552 6.58055 5.54914 9.34965 2.77986C12.1186 0.0105743 16.6241 0.0105743 19.3921 2.77894L19.4113 2.79835C19.5482 2.93604 19.7707 2.93696 19.9084 2.8C20.0463 2.66322 20.047 2.44056 19.9102 2.30287L19.8901 2.28254C16.8469 -0.760848 11.8955 -0.760848 8.85234 2.28254C8.75676 2.37812 8.66429 2.47554 8.57475 2.57478H0.851562C0.65747 2.57478 0.5 2.73225 0.5 2.92634V4.48127C0.5 4.67554 0.65747 4.83301 0.851562 4.83301C1.04584 4.83301 1.20312 4.67554 1.20312 4.48127V3.27808H8.01079C7.74217 3.65546 7.51109 4.05134 7.31755 4.46094H2.9375C2.7434 4.46094 2.58593 4.61823 2.58593 4.81251C2.58593 5.00678 2.7434 5.16407 2.9375 5.16407H7.0266C6.92571 5.44642 6.84166 5.73334 6.77428 6.02356H2.9375C2.7434 6.02356 2.58593 6.18085 2.58593 6.37512C2.58593 6.56922 2.7434 6.72669 2.9375 6.72669H6.64427C6.60491 7.01178 6.58129 7.29871 6.57341 7.586H2.9375C2.7434 7.586 2.58593 7.74347 2.58593 7.93774C2.58593 8.13183 2.7434 8.28931 2.9375 8.28931H6.58568C6.64904 9.31067 6.91106 10.3218 7.37267 11.2587H6.78142C6.58715 11.2587 6.42986 11.4162 6.42986 11.6105V22.0182C6.42986 22.2124 6.58715 22.3699 6.78142 22.3699H9.59391C9.78819 22.3699 9.94548 22.2124 9.94548 22.0182V14.2323C10.2621 14.4504 10.5911 14.6427 10.9298 14.8088V22.0182C10.9298 22.2124 11.0873 22.3699 11.2814 22.3699H14.0939C14.2882 22.3699 14.4455 22.2124 14.4455 22.0182V15.6036C14.7196 15.6009 14.9933 15.5842 15.266 15.5531V20.9838C15.266 21.1781 15.4232 21.3355 15.6175 21.3355C15.8116 21.3355 15.9691 21.1781 15.9691 20.9838V15.4399C17.0804 15.2092 18.1506 14.735 19.0936 14.017L22.6997 17.6236C22.8991 17.8229 23.164 17.9327 23.4456 17.9327C23.7274 17.9327 23.9924 17.8229 24.1916 17.6236C24.6027 17.2127 24.6029 16.5437 24.1918 16.1321ZM9.24235 21.6666H7.13298V11.962H7.76634C8.07048 12.4449 8.4323 12.9015 8.85234 13.3218C8.97905 13.4485 9.10942 13.5695 9.24235 13.6856V21.6666ZM11.6332 21.6666V15.1113C12.315 15.3656 13.0255 15.5212 13.7425 15.5787V21.6666H11.6332ZM23.6947 17.1263C23.6282 17.1928 23.5397 17.2294 23.4458 17.2294C23.3519 17.2294 23.2634 17.1928 23.1972 17.1263L19.6356 13.5646C19.7218 13.4856 19.8068 13.4051 19.8901 13.3218C19.9732 13.2386 20.0542 13.1539 20.1331 13.0673L23.6943 16.6292C23.8314 16.7663 23.8316 16.9895 23.6947 17.1263Z" fill="#777777"/>
<path d="M15.6176 22.1483C15.4235 22.1483 15.266 22.3055 15.266 22.4998V23.2969H1.20312V6.00513C1.20312 5.81085 1.04584 5.65356 0.851562 5.65356C0.657471 5.65356 0.5 5.81085 0.5 6.00513V23.6484C0.5 23.8427 0.657471 24 0.851562 24H15.6176C15.8118 24 15.9691 23.8427 15.9691 23.6484V22.4998C15.9691 22.3055 15.8118 22.1483 15.6176 22.1483Z" fill="#777777"/>
<path d="M2.02344 14.4231V22.0181C2.02344 22.2122 2.18091 22.3697 2.375 22.3697H5.18768C5.38177 22.3697 5.53925 22.2122 5.53925 22.0181V14.4231C5.53925 14.229 5.38177 14.0715 5.18768 14.0715H2.375C2.18091 14.0715 2.02344 14.229 2.02344 14.4231ZM2.72656 14.7748H4.83612V21.6664H2.72656V14.7748Z" fill="#777777"/>
<path d="M5.56635 9.85223C5.76062 9.85223 5.91791 9.69476 5.91791 9.50049C5.91791 9.3064 5.76062 9.14893 5.56635 9.14893H2.9375C2.74341 9.14893 2.58594 9.3064 2.58594 9.50049C2.58594 9.69476 2.74341 9.85223 2.9375 9.85223H5.56635Z" fill="#777777"/>
<path d="M14.3713 1.40564C12.6604 1.40564 11.0535 2.07031 9.8468 3.27716C8.64014 4.48401 7.97546 6.09113 7.97546 7.80225C7.97546 9.51337 8.64014 11.1205 9.8468 12.3273C11.0536 13.5342 12.6604 14.1989 14.3713 14.1989C16.0823 14.1989 17.689 13.5342 18.8959 12.3273C20.1025 11.1205 20.767 9.51337 20.767 7.80225C20.767 6.09113 20.1025 4.48401 18.8959 3.27716C17.689 2.07031 16.0823 1.40564 14.3713 1.40564ZM18.3986 11.83C17.3246 12.9041 15.8944 13.4955 14.3713 13.4955C12.8481 13.4955 11.418 12.9041 10.3441 11.83C9.27002 10.7559 8.67859 9.3255 8.67859 7.80225C8.67859 6.27881 9.27002 4.84839 10.3441 3.77429C11.4543 2.66394 12.9129 2.10858 14.3713 2.10858C15.8298 2.10858 17.2884 2.66394 18.3986 3.77429C19.4725 4.84839 20.0639 6.27881 20.0639 7.80225C20.0639 9.3255 19.4725 10.7559 18.3986 11.83Z" fill="#777777"/>
</g>
<defs>
<clipPath id="clip0_178_1000">
<rect width="24" height="24" fill="white" transform="translate(0.5)"/>
</clipPath>
</defs>
</svg>
