<svg width="24" height="24" viewBox="0 0 24 24" fill="none" xmlns="http://www.w3.org/2000/svg">
<path d="M23.6918 16.1321L20.085 12.5247C20.9564 11.3765 21.5004 10.0001 21.6399 8.557C21.8107 6.78601 21.3696 4.99671 20.3977 3.5185C20.291 3.35627 20.0729 3.31123 19.9108 3.41798C19.7486 3.52473 19.7036 3.74281 19.8103 3.90504C21.6496 6.70215 21.2638 10.4534 18.893 12.8245C16.1239 15.5937 11.6186 15.5937 8.84965 12.8245C6.08055 10.0552 6.08055 5.54914 8.84965 2.77986C11.6186 0.0105743 16.1241 0.0105743 18.8921 2.77894L18.9113 2.79835C19.0482 2.93604 19.2707 2.93696 19.4084 2.8C19.5463 2.66322 19.547 2.44056 19.4102 2.30287L19.3901 2.28254C16.3469 -0.760848 11.3955 -0.760848 8.35234 2.28254C8.25676 2.37812 8.16429 2.47554 8.07475 2.57478H0.351562C0.15747 2.57478 0 2.73225 0 2.92634V4.48127C0 4.67554 0.15747 4.83301 0.351562 4.83301C0.545836 4.83301 0.703124 4.67554 0.703124 4.48127V3.27808H7.51079C7.24217 3.65546 7.01109 4.05134 6.81755 4.46094H2.4375C2.2434 4.46094 2.08593 4.61823 2.08593 4.81251C2.08593 5.00678 2.2434 5.16407 2.4375 5.16407H6.5266C6.42571 5.44642 6.34166 5.73334 6.27428 6.02356H2.4375C2.2434 6.02356 2.08593 6.18085 2.08593 6.37512C2.08593 6.56922 2.2434 6.72669 2.4375 6.72669H6.14427C6.10491 7.01178 6.08129 7.29871 6.07341 7.586H2.4375C2.2434 7.586 2.08593 7.74347 2.08593 7.93774C2.08593 8.13183 2.2434 8.28931 2.4375 8.28931H6.08568C6.14904 9.31067 6.41106 10.3218 6.87267 11.2587H6.28142C6.08715 11.2587 5.92986 11.4162 5.92986 11.6105V22.0182C5.92986 22.2124 6.08715 22.3699 6.28142 22.3699H9.09391C9.28819 22.3699 9.44548 22.2124 9.44548 22.0182V14.2323C9.76207 14.4504 10.0911 14.6427 10.4298 14.8088V22.0182C10.4298 22.2124 10.5873 22.3699 10.7814 22.3699H13.5939C13.7882 22.3699 13.9455 22.2124 13.9455 22.0182V15.6036C14.2196 15.6009 14.4933 15.5842 14.766 15.5531V20.9838C14.766 21.1781 14.9232 21.3355 15.1175 21.3355C15.3116 21.3355 15.4691 21.1781 15.4691 20.9838V15.4399C16.5804 15.2092 17.6506 14.735 18.5936 14.017L22.1997 17.6236C22.3991 17.8229 22.664 17.9327 22.9456 17.9327C23.2274 17.9327 23.4924 17.8229 23.6916 17.6236C24.1027 17.2127 24.1029 16.5437 23.6918 16.1321ZM8.74235 21.6666H6.63298V11.962H7.26634C7.57048 12.4449 7.9323 12.9015 8.35234 13.3218C8.47905 13.4485 8.60942 13.5695 8.74235 13.6856V21.6666ZM11.1332 21.6666V15.1113C11.815 15.3656 12.5255 15.5212 13.2425 15.5787V21.6666H11.1332ZM23.1947 17.1263C23.1282 17.1928 23.0397 17.2294 22.9458 17.2294C22.8519 17.2294 22.7634 17.1928 22.6972 17.1263L19.1356 13.5646C19.2218 13.4856 19.3068 13.4051 19.3901 13.3218C19.4732 13.2386 19.5542 13.1539 19.6331 13.0673L23.1943 16.6292C23.3314 16.7663 23.3316 16.9895 23.1947 17.1263Z" fill="#F18F15"/>
<path d="M15.1176 22.1483C14.9235 22.1483 14.766 22.3055 14.766 22.4998V23.2969H0.703125V6.00513C0.703125 5.81085 0.545837 5.65356 0.351562 5.65356C0.157471 5.65356 0 5.81085 0 6.00513V23.6484C0 23.8427 0.157471 24 0.351562 24H15.1176C15.3118 24 15.4691 23.8427 15.4691 23.6484V22.4998C15.4691 22.3055 15.3118 22.1483 15.1176 22.1483Z" fill="#F18F15"/>
<path d="M1.52344 14.4231V22.0181C1.52344 22.2122 1.68091 22.3697 1.875 22.3697H4.68768C4.88177 22.3697 5.03925 22.2122 5.03925 22.0181V14.4231C5.03925 14.229 4.88177 14.0715 4.68768 14.0715H1.875C1.68091 14.0715 1.52344 14.229 1.52344 14.4231ZM2.22656 14.7748H4.33612V21.6664H2.22656V14.7748Z" fill="#F18F15"/>
<path d="M5.06635 9.85223C5.26062 9.85223 5.41791 9.69476 5.41791 9.50049C5.41791 9.3064 5.26062 9.14893 5.06635 9.14893H2.4375C2.24341 9.14893 2.08594 9.3064 2.08594 9.50049C2.08594 9.69476 2.24341 9.85223 2.4375 9.85223H5.06635Z" fill="#F18F15"/>
<path d="M13.8713 1.40564C12.1604 1.40564 10.5535 2.07031 9.3468 3.27716C8.14014 4.48401 7.47546 6.09113 7.47546 7.80225C7.47546 9.51337 8.14014 11.1205 9.3468 12.3273C10.5536 13.5342 12.1604 14.1989 13.8713 14.1989C15.5823 14.1989 17.189 13.5342 18.3959 12.3273C19.6025 11.1205 20.267 9.51337 20.267 7.80225C20.267 6.09113 19.6025 4.48401 18.3959 3.27716C17.189 2.07031 15.5823 1.40564 13.8713 1.40564ZM17.8986 11.83C16.8246 12.9041 15.3944 13.4955 13.8713 13.4955C12.3481 13.4955 10.918 12.9041 9.84412 11.83C8.77002 10.7559 8.17859 9.3255 8.17859 7.80225C8.17859 6.27881 8.77002 4.84839 9.84412 3.77429C10.9543 2.66394 12.4129 2.10858 13.8713 2.10858C15.3298 2.10858 16.7884 2.66394 17.8986 3.77429C18.9725 4.84839 19.5639 6.27881 19.5639 7.80225C19.5639 9.3255 18.9725 10.7559 17.8986 11.83Z" fill="#F18F15"/>
</svg>
