<svg width="24" height="25" viewBox="0 0 24 25" fill="none" xmlns="http://www.w3.org/2000/svg">
<g clip-path="url(#clip0_324_134)">
<path d="M1.92003 6.13376H22.08C22.1979 6.13376 22.311 6.08694 22.3943 6.00359C22.4776 5.92024 22.5245 5.80719 22.5245 5.68932C22.5245 5.57144 22.4776 5.4584 22.3943 5.37505C22.311 5.2917 22.1979 5.24487 22.08 5.24487H1.92003C1.80216 5.24487 1.68911 5.2917 1.60576 5.37505C1.52241 5.4584 1.47559 5.57144 1.47559 5.68932C1.47559 5.80719 1.52241 5.92024 1.60576 6.00359C1.68911 6.08694 1.80216 6.13376 1.92003 6.13376Z" fill="#143360"/>
<path d="M2.95659 4.26831H21.0433C21.1612 4.26831 21.2743 4.22149 21.3576 4.13814C21.441 4.05479 21.4878 3.94174 21.4878 3.82387C21.4878 3.706 21.441 3.59295 21.3576 3.5096C21.2743 3.42625 21.1612 3.37943 21.0433 3.37943H2.95659C2.83872 3.37943 2.72567 3.42625 2.64232 3.5096C2.55897 3.59295 2.51215 3.706 2.51215 3.82387C2.51215 3.94174 2.55897 4.05479 2.64232 4.13814C2.72567 4.22149 2.83872 4.26831 2.95659 4.26831Z" fill="#143360"/>
<path d="M3.95006 2.37766H20.05C20.1678 2.37766 20.2809 2.33083 20.3642 2.24748C20.4476 2.16413 20.4944 2.05109 20.4944 1.93321C20.4944 1.81534 20.4476 1.70229 20.3642 1.61894C20.2809 1.53559 20.1678 1.48877 20.05 1.48877H3.95006C3.83219 1.48877 3.71914 1.53559 3.63579 1.61894C3.55244 1.70229 3.50562 1.81534 3.50562 1.93321C3.50562 2.05109 3.55244 2.16413 3.63579 2.24748C3.71914 2.33083 3.83219 2.37766 3.95006 2.37766Z" fill="#143360"/>
<path d="M1.42578 7.80362H22.5742C23.0855 7.80362 23.5 8.2181 23.5 8.7294V22.085C23.5 22.5962 23.0855 23.0107 22.5742 23.0107H1.42578C0.914483 23.0107 0.5 22.5962 0.5 22.085V8.7294C0.5 8.2181 0.914485 7.80362 1.42578 7.80362Z" stroke="#143360"/>
<path d="M12 17.4447C13.1437 17.4447 14.071 16.5175 14.071 15.3737C14.071 14.2299 13.1437 13.3027 12 13.3027C10.8562 13.3027 9.92896 14.2299 9.92896 15.3737C9.92896 16.5175 10.8562 17.4447 12 17.4447Z" fill="#143360"/>
<path d="M8.25429 11.628L7.55916 10.9329C6.37124 12.1208 5.71704 13.6979 5.71704 15.3737C5.71704 17.0495 6.37124 18.6266 7.55919 19.8145L8.25432 19.1194C7.25204 18.1171 6.70011 16.7869 6.70011 15.3737C6.70011 13.9605 7.25204 12.6303 8.25429 11.628Z" fill="#143360"/>
<path d="M6.76586 10.1396L6.07077 9.44449C4.48461 11.0306 3.61108 13.1363 3.61108 15.3737C3.61108 17.6111 4.48461 19.7168 6.07077 21.3029L6.7659 20.6078C5.36544 19.2073 4.59416 17.3485 4.59416 15.3737C4.59416 13.3989 5.36544 11.5401 6.76586 10.1396Z" fill="#143360"/>
<path d="M17.9292 9.44449L17.2341 10.1396C18.6345 11.5401 19.4058 13.3989 19.4058 15.3737C19.4058 17.3485 18.6345 19.2073 17.2341 20.6078L17.9292 21.3029C19.5154 19.7168 20.3889 17.6111 20.3889 15.3737C20.3889 13.1363 19.5154 11.0306 17.9292 9.44449Z" fill="#143360"/>
<path d="M16.4408 10.9329L15.7456 11.628C16.7479 12.6303 17.2998 13.9605 17.2998 15.3737C17.2998 16.7869 16.7478 18.1171 15.7456 19.1194L16.4407 19.8145C17.6286 18.6266 18.2829 17.0495 18.2829 15.3737C18.2829 13.6979 17.6287 12.1208 16.4408 10.9329Z" fill="#143360"/>
<path d="M14.9523 12.4214L14.2571 13.1165C14.8612 13.7205 15.1938 14.5222 15.1938 15.3737C15.1938 16.2252 14.8612 17.0269 14.2571 17.6309L14.9523 18.326C15.742 17.5363 16.1769 16.4878 16.1769 15.3737C16.1769 14.2596 15.742 13.2111 14.9523 12.4214Z" fill="#143360"/>
<path d="M9.04764 12.4214C8.25791 13.2111 7.823 14.2595 7.823 15.3737C7.823 16.4878 8.25791 17.5363 9.04764 18.326L9.74278 17.6309C9.13874 17.0269 8.8061 16.2252 8.8061 15.3737C8.8061 14.5222 9.13874 13.7205 9.74278 13.1165L9.04764 12.4214Z" fill="#143360"/>
</g>
<defs>
<clipPath id="clip0_324_134">
<rect width="24" height="24" fill="white" transform="translate(0 0.5)"/>
</clipPath>
</defs>
</svg>
