<svg width="25" height="24" viewBox="0 0 25 24" fill="none" xmlns="http://www.w3.org/2000/svg">
<g clip-path="url(#clip0_294_84)">
<path d="M21.0355 12.8119H19.1795C19.3686 13.3299 19.472 13.8888 19.472 14.4715V21.4863C19.472 21.7292 19.4297 21.9624 19.3528 22.1792H22.4213C23.5675 22.1792 24.5 21.2467 24.5 20.1005V16.2764C24.5001 14.3661 22.9459 12.8119 21.0355 12.8119Z" fill="#000"/>
<path d="M5.52804 14.4716C5.52804 13.8889 5.6314 13.33 5.82059 12.812H3.96453C2.05419 12.812 0.5 14.3662 0.5 16.2765V20.1007C0.5 21.2468 1.43248 22.1794 2.57872 22.1794H5.64725C5.57033 21.9624 5.52804 21.7293 5.52804 21.4864V14.4716Z" fill="#000"/>
<path d="M14.6216 11.0071H10.3784C8.46805 11.0071 6.91386 12.5613 6.91386 14.4716V21.4865C6.91386 21.8691 7.22408 22.1794 7.60677 22.1794H17.3932C17.7759 22.1794 18.0861 21.8691 18.0861 21.4865V14.4716C18.0861 12.5613 16.532 11.0071 14.6216 11.0071Z" fill="#000"/>
<path d="M12.5 1.82068C10.2026 1.82068 8.33348 3.68977 8.33348 5.98725C8.33348 7.54561 9.19359 8.90663 10.4638 9.62119C11.0663 9.9601 11.7609 10.1538 12.5 10.1538C13.2391 10.1538 13.9337 9.9601 14.5362 9.62119C15.8065 8.90663 16.6665 7.54557 16.6665 5.98725C16.6665 3.68982 14.7974 1.82068 12.5 1.82068Z" fill="#000"/>
<path d="M5.18365 5.70422C3.46545 5.70422 2.06764 7.10204 2.06764 8.82024C2.06764 10.5384 3.46545 11.9363 5.18365 11.9363C5.6195 11.9363 6.03453 11.846 6.41154 11.6837C7.06339 11.4031 7.60085 10.9063 7.93343 10.284C8.16687 9.84727 8.29967 9.34904 8.29967 8.82024C8.29967 7.10208 6.90186 5.70422 5.18365 5.70422Z" fill="#000"/>
<path d="M19.8164 5.70422C18.0982 5.70422 16.7004 7.10204 16.7004 8.82024C16.7004 9.34908 16.8332 9.84732 17.0666 10.284C17.3992 10.9063 17.9367 11.4031 18.5885 11.6837C18.9655 11.846 19.3806 11.9363 19.8164 11.9363C21.5346 11.9363 22.9324 10.5384 22.9324 8.82024C22.9324 7.10204 21.5346 5.70422 19.8164 5.70422Z" fill="#000"/>
</g>
<defs>
<clipPath id="clip0_294_84">
<rect width="24" height="24" fill="white" transform="translate(0.5)"/>
</clipPath>
</defs>
</svg>
