<svg width="25" height="24" viewBox="0 0 25 24" fill="none" xmlns="http://www.w3.org/2000/svg">
<path d="M23.8541 10.4388C23.8536 10.4383 23.853 10.4377 23.8525 10.4372L14.0624 0.647461C13.6451 0.22998 13.0903 0 12.5001 0C11.91 0 11.3552 0.229797 10.9377 0.647278L1.15273 10.4321C1.14944 10.4354 1.14614 10.4388 1.14285 10.4421C0.285913 11.304 0.287378 12.7024 1.14706 13.5621C1.53982 13.955 2.05856 14.1826 2.61318 14.2064C2.63571 14.2086 2.65841 14.2097 2.6813 14.2097H3.0715V21.4144C3.0715 22.84 4.23147 24 5.65749 24H9.48769C9.87588 24 10.1908 23.6852 10.1908 23.2969V17.6484C10.1908 16.9979 10.72 16.4687 11.3706 16.4687H13.6297C14.2803 16.4687 14.8095 16.9979 14.8095 17.6484V23.2969C14.8095 23.6852 15.1242 24 15.5126 24H19.3428C20.7688 24 21.9288 22.84 21.9288 21.4144V14.2097H22.2906C22.8806 14.2097 23.4354 13.9799 23.853 13.5624C24.7136 12.7013 24.714 11.3005 23.8541 10.4388Z" fill="#000"/>
</svg>
