<svg width="24" height="20" viewBox="0 0 24 20" fill="none" xmlns="http://www.w3.org/2000/svg">
<path fill-rule="evenodd" clip-rule="evenodd" d="M9.46667 9.66667C9.46667 11.1395 8.27276 12.3333 6.79999 12.3333C5.32722 12.3333 4.1333 11.1395 4.1333 9.66667C4.1333 8.19389 5.32722 7 6.79999 7C8.27276 7 9.46667 8.19389 9.46667 9.66667ZM8.26666 9.66667C8.26666 10.4767 7.61002 11.1333 6.79999 11.1333C5.98997 11.1333 5.33331 10.4767 5.33331 9.66667C5.33331 8.85666 5.98997 8.20001 6.79999 8.20001C7.61002 8.20001 8.26666 8.85666 8.26666 9.66667Z" fill="#F18F15"/>
<path d="M4.20001 16.6C4.20001 15.1641 5.36408 13.9999 6.80004 13.9999C8.23599 13.9999 9.40006 15.1641 9.40006 16.6H10.6C10.6 14.5013 8.89874 12.7999 6.80004 12.7999C4.70133 12.7999 3 14.5013 3 16.6H4.20001Z" fill="#F18F15"/>
<path fill-rule="evenodd" clip-rule="evenodd" d="M20.4002 8.19999C20.4002 8.53131 20.1315 8.79999 19.8002 8.79999H13.2001C12.8688 8.79999 12.6001 8.53131 12.6001 8.19999C12.6001 7.86866 12.8688 7.59998 13.2001 7.59998H19.8002C20.1315 7.59998 20.4002 7.86866 20.4002 8.19999Z" fill="#F18F15"/>
<path fill-rule="evenodd" clip-rule="evenodd" d="M20.4002 11.8001C20.4002 12.1314 20.1315 12.4001 19.8002 12.4001H13.2001C12.8688 12.4001 12.6001 12.1314 12.6001 11.8001C12.6001 11.4688 12.8688 11.2001 13.2001 11.2001H19.8002C20.1315 11.2001 20.4002 11.4688 20.4002 11.8001Z" fill="#F18F15"/>
<path fill-rule="evenodd" clip-rule="evenodd" d="M20.4002 15.4C20.4002 15.7314 20.1315 16 19.8002 16H13.2001C12.8688 16 12.6001 15.7314 12.6001 15.4C12.6001 15.0687 12.8688 14.8 13.2001 14.8H19.8002C20.1315 14.8 20.4002 15.0687 20.4002 15.4Z" fill="#F18F15"/>
<path fill-rule="evenodd" clip-rule="evenodd" d="M8.40009 0.399902C7.40596 0.399902 6.60007 1.20579 6.60007 2.19992H3.00003C1.34316 2.19992 0 3.54308 0 5.19995V16.6001C0 18.2569 1.34316 19.6001 3.00003 19.6001H21.0002C22.6571 19.6001 24.0002 18.2569 24.0002 16.6001V5.19995C24.0002 3.54308 22.6571 2.19992 21.0002 2.19992H17.4002C17.4002 1.20579 16.5942 0.399902 15.6002 0.399902H8.40009ZM17.4002 3.39993C17.4002 4.39405 16.5942 5.19995 15.6002 5.19995H8.40009C7.40596 5.19995 6.60007 4.39405 6.60007 3.39993H3.00003C2.0059 3.39993 1.20001 4.20582 1.20001 5.19995V16.6001C1.20001 17.5941 2.0059 18.4001 3.00003 18.4001H21.0002C21.9943 18.4001 22.8002 17.5941 22.8002 16.6001V5.19995C22.8002 4.20582 21.9943 3.39993 21.0002 3.39993H17.4002ZM7.80008 2.19992C7.80008 1.86855 8.06871 1.59991 8.40009 1.59991H15.6002C15.9315 1.59991 16.2002 1.86855 16.2002 2.19992V3.39993C16.2002 3.7313 15.9315 3.99994 15.6002 3.99994H8.40009C8.06871 3.99994 7.80008 3.7313 7.80008 3.39993V2.19992Z" fill="#F18F15"/>
</svg>
