<svg width="24" height="24" viewBox="0 0 24 24" fill="none" xmlns="http://www.w3.org/2000/svg">
<path d="M12 23.25C9.77497 23.25 7.5999 22.5902 5.74984 21.3541C3.89979 20.1179 2.45785 18.3609 1.60636 16.3052C0.754875 14.2495 0.532087 11.9875 0.966171 9.80525C1.40025 7.62296 2.47171 5.6184 4.04506 4.04506C5.6184 2.47171 7.62296 1.40025 9.80525 0.966171C11.9875 0.532087 14.2495 0.754875 16.3052 1.60636C18.3609 2.45785 20.1179 3.89979 21.3541 5.74984C22.5902 7.5999 23.25 9.77497 23.25 12C23.2466 14.9827 22.0603 17.8422 19.9512 19.9512C17.8422 22.0603 14.9827 23.2466 12 23.25ZM12 1.50001C9.92331 1.50001 7.89324 2.11582 6.16652 3.26958C4.4398 4.42333 3.09399 6.06321 2.29927 7.98183C1.50455 9.90046 1.29662 12.0117 1.70176 14.0485C2.10691 16.0853 3.10693 17.9562 4.57539 19.4246C6.04384 20.8931 7.91476 21.8931 9.95156 22.2983C11.9884 22.7034 14.0996 22.4955 16.0182 21.7008C17.9368 20.906 19.5767 19.5602 20.7305 17.8335C21.8842 16.1068 22.5 14.0767 22.5 12C22.4968 9.21621 21.3896 6.54734 19.4211 4.57889C17.4527 2.61045 14.7838 1.50318 12 1.50001Z" fill="black"/>
<path d="M11.25 3.02963C11.1506 3.0335 11.0536 2.99771 10.9806 2.93013C10.9075 2.86255 10.8643 2.76871 10.8604 2.66925C10.8565 2.56979 10.8923 2.47287 10.9599 2.3998C11.0275 2.32673 11.1213 2.2835 11.2208 2.27962C11.4788 2.2605 11.7413 2.25 12 2.25C12.0995 2.25 12.1949 2.28951 12.2652 2.35984C12.3355 2.43016 12.375 2.52554 12.375 2.625C12.375 2.72446 12.3355 2.81984 12.2652 2.89016C12.1949 2.96049 12.0995 3 12 3C11.7608 3 11.5181 3.00938 11.2796 3.0285L11.25 3.02963Z" fill="black"/>
<path d="M2.62501 12.375C2.52556 12.375 2.43017 12.3355 2.35985 12.2652C2.28952 12.1949 2.25001 12.0995 2.25001 12C2.24661 9.82027 2.97508 7.70248 4.31868 5.98606C5.66228 4.26964 7.54321 3.05398 9.66002 2.5339C9.75664 2.51003 9.85879 2.52552 9.94399 2.57697C10.0292 2.62841 10.0905 2.71159 10.1143 2.80822C10.1382 2.90484 10.1227 3.00698 10.0713 3.09218C10.0198 3.17738 9.93664 3.23866 9.84002 3.26253C7.88619 3.74272 6.15009 4.86483 4.90988 6.4491C3.66967 8.03336 2.99713 9.98806 3.00001 12C3.00001 12.0995 2.9605 12.1949 2.89018 12.2652C2.81985 12.3355 2.72447 12.375 2.62501 12.375Z" fill="black"/>
<path d="M12 9C11.6292 9 11.2667 8.89003 10.9583 8.68401C10.65 8.47798 10.4096 8.18514 10.2677 7.84253C10.1258 7.49992 10.0887 7.12292 10.161 6.75921C10.2334 6.39549 10.412 6.0614 10.6742 5.79918C10.9364 5.53695 11.2705 5.35838 11.6342 5.28603C11.9979 5.21368 12.3749 5.25081 12.7175 5.39273C13.0602 5.53464 13.353 5.77496 13.559 6.08331C13.765 6.39165 13.875 6.75416 13.875 7.125C13.8744 7.6221 13.6767 8.09867 13.3252 8.45017C12.9737 8.80167 12.4971 8.99941 12 9ZM12 6C11.7775 6 11.56 6.06598 11.375 6.1896C11.19 6.31321 11.0458 6.48892 10.9606 6.69448C10.8755 6.90005 10.8532 7.12625 10.8966 7.34448C10.94 7.56271 11.0472 7.76316 11.2045 7.9205C11.3618 8.07783 11.5623 8.18498 11.7805 8.22838C11.9988 8.27179 12.225 8.24951 12.4305 8.16437C12.6361 8.07922 12.8118 7.93502 12.9354 7.75002C13.059 7.56501 13.125 7.34751 13.125 7.125C13.125 6.82663 13.0065 6.54048 12.7955 6.32951C12.5845 6.11853 12.2984 6 12 6Z" fill="black"/>
<path d="M11.9955 19.5C11.967 19.5 11.9385 19.5 11.91 19.4981C11.4288 19.475 10.975 19.2676 10.6426 18.9188C10.3103 18.57 10.1249 18.1067 10.125 17.625V12.75C9.72718 12.75 9.34564 12.592 9.06434 12.3107C8.78304 12.0294 8.625 11.6478 8.625 11.25C8.625 10.8522 8.78304 10.4706 9.06434 10.1893C9.34564 9.90804 9.72718 9.75 10.125 9.75H12C12.4971 9.7506 12.9737 9.94833 13.3252 10.2998C13.6767 10.6513 13.8744 11.1279 13.875 11.625V17.5402C13.8741 17.8104 13.8186 18.0776 13.712 18.3258C13.6053 18.574 13.4497 18.7981 13.2544 18.9848C12.9173 19.3131 12.466 19.4978 11.9955 19.5ZM10.125 10.5C9.92609 10.5 9.73532 10.579 9.59467 10.7197C9.45402 10.8603 9.375 11.0511 9.375 11.25C9.375 11.4489 9.45402 11.6397 9.59467 11.7803C9.73532 11.921 9.92609 12 10.125 12H10.5C10.5995 12 10.6948 12.0395 10.7652 12.1098C10.8355 12.1802 10.875 12.2755 10.875 12.375V17.625C10.8742 17.9144 10.9851 18.1929 11.1847 18.4025C11.3842 18.6121 11.6569 18.7366 11.946 18.75C12.0918 18.7561 12.2374 18.7319 12.3734 18.6791C12.5095 18.6264 12.6333 18.5461 12.7369 18.4433C12.8591 18.3267 12.9565 18.1866 13.0232 18.0314C13.0899 17.8762 13.1245 17.7092 13.125 17.5402V11.625C13.125 11.3266 13.0065 11.0405 12.7955 10.8295C12.5845 10.6185 12.2984 10.5 12 10.5H10.125Z" fill="black"/>
</svg>
