<svg width="25" height="24" viewBox="0 0 25 24" fill="none" xmlns="http://www.w3.org/2000/svg">
<g clip-path="url(#clip0_294_107)">
<path d="M3.07144 7.06333C3.07144 8.00619 3.07144 8.4819 3.40358 9.14576C3.46119 9.26685 3.54485 9.3737 3.64858 9.45868C3.7523 9.54366 3.87353 9.60467 4.00358 9.63733C4.16551 9.68401 4.30905 9.77961 4.41454 9.91103C4.52003 10.0425 4.58232 10.2033 4.59287 10.3715C4.66455 11.5102 5.16731 12.5789 5.99889 13.3602C6.83047 14.1414 7.92841 14.5766 9.06942 14.5771C10.2104 14.5777 11.3088 14.1436 12.1411 13.3631C12.9734 12.5826 13.4772 11.5144 13.55 10.3758C13.5602 10.2078 13.6219 10.0471 13.7267 9.91548C13.8316 9.78387 13.9744 9.68779 14.1358 9.64033C14.267 9.6077 14.3894 9.54638 14.494 9.46079C14.5986 9.37519 14.683 9.26745 14.741 9.14533C15.0714 8.4819 15.0714 8.0079 15.0714 7.06333V6.85719C15.0714 6.74353 15.0263 6.63452 14.9459 6.55414C14.8655 6.47377 14.7565 6.42862 14.6428 6.42862C14.5292 6.42862 14.4202 6.47377 14.3398 6.55414C14.2594 6.63452 14.2143 6.74353 14.2143 6.85719V7.28576C14.2143 7.39942 14.1691 7.50843 14.0887 7.58881C14.0084 7.66918 13.8994 7.71433 13.7857 7.71433C13.672 7.71433 13.563 7.66918 13.4827 7.58881C13.4023 7.50843 13.3571 7.39942 13.3571 7.28576V6.41276C13.3544 6.32221 13.3176 6.23602 13.254 6.17149C13.1904 6.10695 13.1048 6.06883 13.0143 6.06476C11.3557 5.9319 10.1536 5.52005 9.34057 4.80648C9.27267 4.74711 9.18543 4.71457 9.09524 4.71497C9.00504 4.71536 8.91809 4.74866 8.85071 4.80862C7.77929 5.79433 6.26386 5.93876 5.26144 6.03605L5.11015 6.05062C5.02274 6.05778 4.94117 6.09737 4.88146 6.1616C4.82175 6.22583 4.78821 6.31006 4.78744 6.39776V7.28576C4.78744 7.39942 4.74228 7.50843 4.66191 7.58881C4.58154 7.66918 4.47253 7.71433 4.35887 7.71433C4.2452 7.71433 4.13619 7.66918 4.05582 7.58881C3.97545 7.50843 3.9303 7.39942 3.9303 7.28576V6.85719C3.9303 6.74353 3.88514 6.63452 3.80477 6.55414C3.7244 6.47377 3.61539 6.42862 3.50173 6.42862C3.38806 6.42862 3.27905 6.47377 3.19868 6.55414C3.11831 6.63452 3.07316 6.74353 3.07316 6.85719L3.07144 7.06333Z" fill="#000"/>
<path d="M12.4572 18.5143C12.0576 18.8322 11.6008 19.0706 11.1114 19.2163C11.075 19.2262 11.0374 19.2312 10.9996 19.2313C10.9344 19.2316 10.87 19.2167 10.8116 19.1879C10.7531 19.159 10.7021 19.1169 10.6627 19.065L10.3829 19.4079L11.0874 23.637C11.9857 22.6058 12.3423 20.3096 12.4572 18.5143Z" fill="#000"/>
<path d="M11.2143 1.28578H11.8464L12.6427 0.132929C12.6427 0.132929 12.6693 0.121786 12.6328 0.0583581C12.6224 0.0398003 12.607 0.0245146 12.5884 0.0142184C12.5698 0.00392217 12.5487 -0.000976534 12.5274 7.26145e-05H8.26786C6.90968 -0.0176817 5.5999 0.503928 4.62577 1.45051C3.65163 2.39709 3.09266 3.69136 3.07144 5.04949V5.64948C3.24277 5.58488 3.4264 5.55947 3.60884 5.57511C3.79128 5.59076 3.9679 5.64707 4.12572 5.73991C4.22538 5.58767 4.35802 5.45981 4.51382 5.36581C4.66962 5.27181 4.84458 5.21409 5.02572 5.19691L5.17872 5.18191C6.06715 5.0962 7.41029 4.96763 8.27129 4.17606C8.49379 3.97209 8.78394 3.85773 9.08577 3.85504C9.38761 3.85235 9.67975 3.96151 9.90585 4.16149C10.5659 4.74049 11.6351 5.09363 13.0828 5.20934C13.2677 5.22307 13.4471 5.27833 13.6077 5.37101C13.7683 5.46369 13.9059 5.5914 14.0103 5.74463C14.1687 5.65014 14.3463 5.59259 14.5301 5.57626C14.7138 5.55994 14.8988 5.58526 15.0714 5.65034V4.6582C15.0714 3.10463 13.514 2.14292 12.0714 2.14292H11.2143C11.1006 2.14292 10.9916 2.09777 10.9112 2.0174C10.8309 1.93703 10.7857 1.82802 10.7857 1.71435C10.7857 1.60069 10.8309 1.49168 10.9112 1.41131C10.9916 1.33094 11.1006 1.28578 11.2143 1.28578Z" fill="#000"/>
<path d="M0.500031 23.9999H6.16959C4.8993 22.2467 4.78016 18.501 4.78102 17.1428H4.76859C3.63688 17.1441 2.55188 17.5942 1.75164 18.3944C0.951401 19.1947 0.501278 20.2797 0.500031 21.4114V23.9999Z" fill="#000"/>
<path d="M6.88058 18.2448C7.05956 17.8349 7.35245 17.4851 7.72443 17.2368C7.29375 17.0377 6.92822 16.7208 6.67015 16.3226C6.28168 16.3667 5.92034 16.5435 5.64716 16.8232C5.7093 17.5942 6.42501 18.0382 6.88058 18.2448Z" fill="#000"/>
<path d="M7.75959 19.4066L7.47973 19.0637C7.42844 19.1307 7.35836 19.1809 7.27844 19.2078C7.19852 19.2347 7.11237 19.2373 7.03101 19.215C6.53811 19.0685 6.07823 18.8279 5.67673 18.5066C5.79458 20.5599 6.19658 22.8574 7.0413 23.7172L7.75959 19.4066Z" fill="#000"/>
<path d="M10.4184 17.2368C10.7904 17.4851 11.0833 17.8349 11.2623 18.2448C11.7174 18.0386 12.4336 17.5942 12.4957 16.8232C12.222 16.5435 11.8603 16.3667 11.4714 16.3226C11.2137 16.7206 10.8486 17.0375 10.4184 17.2368Z" fill="#000"/>
<path d="M13.3743 17.1428H13.3618C13.3618 18.4864 13.2333 22.1828 11.8918 23.9999H17.3638C16.6582 23.5401 16.0788 22.9109 15.6784 22.1699C15.278 21.4288 15.0693 20.5994 15.0714 19.7571C15.0867 19.0499 15.2048 18.3487 15.422 17.6755C14.7952 17.3284 14.0908 17.1451 13.3743 17.1428Z" fill="#000"/>
<path d="M10.7857 15.7864V15.1401C9.67521 15.5237 8.46832 15.5247 7.35715 15.1431V15.7899C7.40986 15.9103 7.73129 16.5021 9.07143 16.7961C10.3876 16.5073 10.7227 15.9296 10.7857 15.7864Z" fill="#000"/>
<path d="M10.2461 18.2182C10.0982 18.051 9.91771 17.9158 9.71575 17.8206C9.51378 17.7255 9.29455 17.6725 9.07144 17.6649C8.84853 17.6756 8.62994 17.7303 8.42831 17.8259C8.22668 17.9215 8.046 18.0562 7.89673 18.2221L8.41787 18.8572H9.72501L10.2461 18.2182Z" fill="#000"/>
<path d="M10.28 24.0001L9.56557 19.7144H8.57728L7.86285 24.0001H10.28Z" fill="#000"/>
<path d="M20.8828 13.7143H22.79C22.9036 13.7143 23.0126 13.6692 23.093 13.5888C23.1734 13.5084 23.2185 13.3994 23.2185 13.2857C23.2185 13.1721 23.1734 13.0631 23.093 12.9827C23.0126 12.9023 22.9036 12.8572 22.79 12.8572H21.0157L21.6757 11.31C21.704 11.2449 21.7155 11.1738 21.7093 11.1031C21.7031 11.0324 21.6794 10.9644 21.6402 10.9052C21.601 10.846 21.5477 10.7975 21.485 10.7642C21.4224 10.7309 21.3524 10.7137 21.2814 10.7143H20.24L20.3385 11.01C20.3737 11.118 20.3646 11.2355 20.3131 11.3368C20.2617 11.438 20.1722 11.5147 20.0643 11.55C20.0212 11.5634 19.9765 11.5706 19.9314 11.5715C19.8411 11.571 19.7533 11.5422 19.6802 11.4892C19.6072 11.4361 19.5526 11.3615 19.5243 11.2757L19.2414 10.4186L19.0528 9.85718H18.7357C18.6642 9.85733 18.5939 9.87535 18.5312 9.90962C18.4684 9.94388 18.4153 9.99329 18.3765 10.0533C18.3377 10.1134 18.3146 10.1822 18.3092 10.2535C18.3039 10.3248 18.3164 10.3963 18.3457 10.4615L19.4085 12.8572H17.6471C17.5335 12.8572 17.4245 12.9023 17.3441 12.9827C17.2637 13.0631 17.2186 13.1721 17.2186 13.2857C17.2186 13.3994 17.2637 13.5084 17.3441 13.5888C17.4245 13.6692 17.5335 13.7143 17.6471 13.7143H19.5628L19.5543 13.7186C17.6086 14.3186 15.9371 17.52 15.9286 19.7614C15.9342 20.889 16.3867 21.9684 17.1869 22.7629C17.987 23.5574 19.0695 24.0023 20.1971 24H20.2228C21.3474 24.0047 22.4284 23.5658 23.2314 22.7786C23.631 22.3937 23.9491 21.9325 24.1671 21.4223C24.385 20.9121 24.4982 20.3633 24.5 19.8086C24.5085 17.5414 22.85 14.31 20.8828 13.7143ZM20.6471 20.9229V21C20.6471 21.1137 20.602 21.2227 20.5216 21.303C20.4412 21.3834 20.3322 21.4286 20.2185 21.4286C20.1049 21.4286 19.9959 21.3834 19.9155 21.303C19.8351 21.2227 19.79 21.1137 19.79 21V20.9143C19.5023 20.8163 19.259 20.6187 19.1043 20.3571C19.0482 20.2581 19.0334 20.1409 19.0631 20.031C19.0927 19.9211 19.1645 19.8274 19.2628 19.77C19.3612 19.7141 19.4778 19.6994 19.5869 19.7291C19.6961 19.7589 19.7892 19.8305 19.8457 19.9286C19.8833 19.9937 19.9373 20.0477 20.0024 20.0853C20.0674 20.1229 20.1413 20.1428 20.2164 20.1428C20.2916 20.1429 20.3654 20.1232 20.4306 20.0858C20.4957 20.0483 20.5499 19.9943 20.5876 19.9293C20.6253 19.8643 20.6452 19.7905 20.6454 19.7153C20.6456 19.6402 20.626 19.5663 20.5886 19.5011C20.5512 19.4359 20.4974 19.3817 20.4324 19.3439C20.3675 19.3061 20.2937 19.286 20.2185 19.2857C19.917 19.2834 19.6259 19.1751 19.3961 18.9799C19.1663 18.7847 19.0124 18.5149 18.9614 18.2178C18.9103 17.9206 18.9653 17.6149 19.1168 17.3542C19.2683 17.0935 19.5065 16.8943 19.79 16.7914V16.7143C19.79 16.6006 19.8351 16.4916 19.9155 16.4113C19.9959 16.3309 20.1049 16.2857 20.2185 16.2857C20.3322 16.2857 20.4412 16.3309 20.5216 16.4113C20.602 16.4916 20.6471 16.6006 20.6471 16.7143V16.8C20.9348 16.898 21.1781 17.0956 21.3328 17.3571C21.3889 17.4562 21.4037 17.5734 21.374 17.6833C21.3444 17.7932 21.2726 17.8869 21.1743 17.9443C21.0759 18.0002 20.9593 18.0148 20.8501 17.9851C20.741 17.9554 20.6479 17.8837 20.5914 17.7857C20.5538 17.7206 20.4998 17.6666 20.4347 17.629C20.3696 17.5914 20.2958 17.5715 20.2207 17.5714C20.1455 17.5714 20.0717 17.5911 20.0065 17.6285C19.9414 17.666 19.8872 17.72 19.8495 17.785C19.8118 17.85 19.7919 17.9238 19.7917 17.9989C19.7915 18.0741 19.8111 18.148 19.8485 18.2132C19.8858 18.2784 19.9397 18.3326 20.0047 18.3704C20.0696 18.4082 20.1434 18.4283 20.2185 18.4286C20.5201 18.4309 20.8112 18.5392 21.041 18.7344C21.2708 18.9296 21.4247 19.1994 21.4757 19.4965C21.5268 19.7937 21.4718 20.0994 21.3203 20.3601C21.1688 20.6208 20.9306 20.82 20.6471 20.9229Z" fill="#000"/>
</g>
<defs>
<clipPath id="clip0_294_107">
<rect width="24" height="24" fill="white" transform="translate(0.5)"/>
</clipPath>
</defs>
</svg>
