<svg width="24" height="24" viewBox="0 0 24 24" fill="none" xmlns="http://www.w3.org/2000/svg">
<path d="M17.625 12.444V11.625H16.875V12.375H16.125V13.5C16.125 14.1202 16.6298 14.625 17.25 14.625C17.457 14.625 17.625 14.7934 17.625 15V15.375H17.25C17.043 15.375 16.875 15.2066 16.875 15V14.625H16.125V15C16.125 15.4883 16.4396 15.9008 16.875 16.056V16.875H17.625V16.125H18.375V15C18.375 14.3798 17.8702 13.875 17.25 13.875C17.043 13.875 16.875 13.7066 16.875 13.5V13.125H17.25C17.457 13.125 17.625 13.2934 17.625 13.5V13.875H18.375V13.5C18.375 13.0117 18.0604 12.5992 17.625 12.444Z" fill="#F18F15"/>
<path d="M1.875 16.125H2.625V16.875H1.875V16.125Z" fill="#F18F15"/>
<path d="M3.375 16.125H4.125V16.875H3.375V16.125Z" fill="#F18F15"/>
<path d="M4.875 16.125H5.625V16.875H4.875V16.125Z" fill="#F18F15"/>
<path d="M1.875 13.875H2.625V14.625H1.875V13.875Z" fill="#F18F15"/>
<path d="M3.375 13.875H4.125V14.625H3.375V13.875Z" fill="#F18F15"/>
<path d="M4.875 13.875H5.625V14.625H4.875V13.875Z" fill="#F18F15"/>
<path d="M1.875 11.625H2.625V12.375H1.875V11.625Z" fill="#F18F15"/>
<path d="M3.375 11.625H4.125V12.375H3.375V11.625Z" fill="#F18F15"/>
<path d="M4.875 11.625H5.625V12.375H4.875V11.625Z" fill="#F18F15"/>
<path d="M23.043 18.483C23.4229 17.7394 23.625 16.9174 23.625 16.0725C23.625 14.8076 23.1716 13.5821 22.3485 12.6217L19.125 8.86163V7.61362L19.188 7.51912C19.6372 6.84488 19.875 6.06038 19.875 5.25V5.09475L19.7651 4.98488C19.6774 4.89675 18.8377 4.125 16.5 4.125H16.125V4.5C16.125 4.62675 16.1287 4.75387 16.1362 4.88025C15.5077 4.908 14.9482 5.265 14.6647 5.832L14.5807 6L15.375 7.5885V8.86125L14.625 9.73612V7.93875L13.125 7.6575V4.125H12.375V7.51688L11.625 7.37625V5.625H10.875V7.23563L10.125 7.095V3.43875L7.875 3.01688V0.375H7.125V2.87625L6.375 2.73563V1.125H5.625V2.595L3.375 2.17313V9.62625L2.625 9.76688V7.875H1.875V9.9075L0.375 10.1888V23.625H19.0136C19.6365 23.625 20.2421 23.5005 20.814 23.2552C22.0841 22.7111 23.0295 21.6379 23.4086 20.31L23.5853 19.692C23.6115 19.5998 23.625 19.5045 23.625 19.4081C23.625 19.0005 23.3861 18.651 23.043 18.483ZM22.875 16.0729C22.875 16.9114 22.644 17.7244 22.2113 18.4357C21.9517 18.5111 21.7151 18.6562 21.5378 18.8689L20.8612 19.6807C20.3614 20.2808 19.6264 20.625 18.8449 20.625H16.359C16.23 20.625 16.125 20.52 16.125 20.391C16.125 20.2759 16.2075 20.1791 16.3204 20.16L17.3216 19.9931C17.9318 19.8915 18.375 19.3687 18.375 18.75C18.375 18.1297 17.8703 17.625 17.25 17.625H16.125C14.8883 17.625 13.6639 18.0206 12.6555 18.7354L12.4721 18.7125C11.9194 17.9389 11.625 17.0306 11.625 16.0725C11.625 14.9865 12.0143 13.9346 12.7208 13.11L15.9225 9.375H18.5779L21.7796 13.11C22.4858 13.9346 22.875 14.9869 22.875 16.0729ZM18.375 7.875V8.625H16.125V7.875H18.375ZM19.1201 5.43225C19.0875 6.02887 18.897 6.603 18.564 7.10287L18.5494 7.125H17.4851C17.1435 6.42637 16.938 5.65987 16.8878 4.88287C18.201 4.9395 18.8722 5.274 19.1201 5.43225ZM16.2135 5.625H16.2214C16.3091 6.13987 16.4561 6.64463 16.6594 7.125H15.9818L15.4279 6.01725C15.6112 5.772 15.8989 5.625 16.2135 5.625ZM13.875 10.6114L13.0061 11.625H12.375V12.3615L12.1515 12.6221C11.8252 13.0024 11.5601 13.4257 11.3554 13.875H10.875V14.625H11.079C10.9459 15.093 10.875 15.5794 10.875 16.0729C10.875 16.9665 11.094 17.8234 11.5114 18.5925L8.625 18.2314V7.57687L13.875 8.56125V10.6114ZM4.125 3.07687L9.375 4.06125V6.95438L7.875 6.67313V18.1376L7.125 18.0439V8.92313L4.125 9.48563V3.07687ZM6.375 9.82687V17.9501L1.125 17.2939V10.8112L6.375 9.82687ZM1.125 18.0499L10.125 19.1749V22.875H1.125V18.0499ZM10.875 22.875V19.2686L12.375 19.4561V22.875H10.875ZM22.8641 19.4854L22.6871 20.1038C22.3703 21.2134 21.5801 22.1111 20.5185 22.5656C20.0404 22.7711 19.5341 22.875 19.0136 22.875H13.125V19.3166C14.0002 18.7084 15.0581 18.375 16.125 18.375H17.25C17.457 18.375 17.625 18.5434 17.625 18.75C17.625 19.0005 17.4454 19.212 17.1986 19.2533L16.1974 19.4201C15.7211 19.4996 15.375 19.908 15.375 20.391C15.375 20.9336 15.8164 21.375 16.359 21.375H18.8449C19.8495 21.375 20.7945 20.9325 21.4376 20.1608L22.1138 19.3493C22.2326 19.2067 22.407 19.125 22.5922 19.125C22.7482 19.125 22.875 19.2518 22.875 19.4078C22.875 19.4344 22.8713 19.4606 22.8641 19.4854Z" fill="#F18F15"/>
<path d="M9.375 13.875H10.125V14.625H9.375V13.875Z" fill="#F18F15"/>
<path d="M9.375 16.125H10.125V16.875H9.375V16.125Z" fill="#F18F15"/>
<path d="M10.875 11.625H11.625V12.375H10.875V11.625Z" fill="#F18F15"/>
<path d="M9.375 11.625H10.125V12.375H9.375V11.625Z" fill="#F18F15"/>
<path d="M12.375 9.375H13.125V10.125H12.375V9.375Z" fill="#F18F15"/>
<path d="M10.875 9.375H11.625V10.125H10.875V9.375Z" fill="#F18F15"/>
<path d="M9.375 9.375H10.125V10.125H9.375V9.375Z" fill="#F18F15"/>
<path d="M4.875 7.125H5.625V7.875H4.875V7.125Z" fill="#F18F15"/>
<path d="M7.875 4.875H8.625V5.625H7.875V4.875Z" fill="#F18F15"/>
<path d="M6.375 4.875H7.125V5.625H6.375V4.875Z" fill="#F18F15"/>
<path d="M4.875 4.875H5.625V5.625H4.875V4.875Z" fill="#F18F15"/>
<path d="M6.375 7.125H7.125V7.875H6.375V7.125Z" fill="#F18F15"/>
</svg>
