<svg width="24" height="24" viewBox="0 0 24 24" fill="none" xmlns="http://www.w3.org/2000/svg">
<g clip-path="url(#clip0_162_1675)">
<path d="M18.5481 12.9315C16.2517 12.9315 14.3835 14.7997 14.3835 17.096C14.3835 19.3923 16.2517 21.2605 18.5481 21.2605C20.8443 21.2605 22.7125 19.3923 22.7125 17.096C22.7125 14.7997 20.8444 12.9315 18.5481 12.9315ZM18.5481 20.5574C16.6395 20.5574 15.0867 19.0046 15.0867 17.096C15.0867 15.1874 16.6395 13.6346 18.5481 13.6346C20.4567 13.6346 22.0094 15.1874 22.0094 17.096C22.0094 19.0046 20.4567 20.5574 18.5481 20.5574Z" fill="#F18F15"/>
<path d="M12.7924 7.18958H4.26721C4.07301 7.18958 3.91565 7.34693 3.91565 7.54114C3.91565 7.73534 4.07301 7.8927 4.26721 7.8927H12.7924C12.9866 7.8927 13.1439 7.73534 13.1439 7.54114C13.1439 7.34693 12.9866 7.18958 12.7924 7.18958Z" fill="#F18F15"/>
<path d="M18.5481 14.0076C18.3539 14.0076 18.1965 14.1649 18.1965 14.3591V14.6378C18.1965 14.832 18.3539 14.9894 18.5481 14.9894C18.7423 14.9894 18.8997 14.832 18.8997 14.6378V14.3591C18.8997 14.165 18.7423 14.0076 18.5481 14.0076Z" fill="#F18F15"/>
<path d="M20.6548 17.0961C20.6548 17.2903 20.8121 17.4476 21.0063 17.4476H21.285C21.4792 17.4476 21.6365 17.2903 21.6365 17.0961C21.6365 16.9019 21.4792 16.7445 21.285 16.7445H21.0063C20.8121 16.7445 20.6548 16.9019 20.6548 17.0961Z" fill="#F18F15"/>
<path d="M18.5481 19.2028C18.3539 19.2028 18.1965 19.3601 18.1965 19.5543V19.8329C18.1965 20.0271 18.3539 20.1845 18.5481 20.1845C18.7423 20.1845 18.8997 20.0271 18.8997 19.8329V19.5543C18.8997 19.3602 18.7423 19.2028 18.5481 19.2028Z" fill="#F18F15"/>
<path d="M16.0898 16.7445H15.8112C15.617 16.7445 15.4596 16.9019 15.4596 17.0961C15.4596 17.2903 15.617 17.4476 15.8112 17.4476H16.0898C16.284 17.4476 16.4414 17.2903 16.4414 17.0961C16.4414 16.9019 16.284 16.7445 16.0898 16.7445Z" fill="#F18F15"/>
<path d="M18.548 15.3544C18.3538 15.3544 18.1965 15.5117 18.1965 15.7059V16.5636L17.8716 16.4249C17.6929 16.3486 17.4864 16.4316 17.4102 16.6101C17.3339 16.7887 17.4169 16.9952 17.5954 17.0715L18.4099 17.4193C18.5192 17.4659 18.6437 17.454 18.7417 17.3894C18.8403 17.3242 18.8995 17.2141 18.8995 17.096V15.7059C18.8996 15.5118 18.7422 15.3544 18.548 15.3544V15.3544Z" fill="#F18F15"/>
<path d="M3.31018 15.3544C3.11598 15.3544 2.95862 15.5117 2.95862 15.7059C2.95862 15.9001 3.11598 16.0575 3.31018 16.0575H5.16062C5.35482 16.0575 5.51218 15.9001 5.51218 15.7059C5.51218 15.5117 5.35482 15.3544 5.16062 15.3544H3.31018Z" fill="#F18F15"/>
<path d="M23.2317 14.3045C23.1321 14.1378 22.9163 14.0835 22.7496 14.1829C22.5829 14.2825 22.5285 14.4983 22.628 14.665C23.0655 15.3977 23.2969 16.2383 23.2969 17.096C23.2969 19.7145 21.1666 21.8448 18.5481 21.8448C15.9295 21.8448 13.7992 19.7145 13.7992 17.096C13.7992 14.4775 15.9295 12.3472 18.5481 12.3472C19.78 12.3472 20.9478 12.817 21.8363 13.6701C21.9764 13.8046 22.1989 13.8001 22.3334 13.66C22.4678 13.5199 22.4633 13.2974 22.3232 13.1629C21.3031 12.1835 19.9624 11.6441 18.548 11.6441C17.7508 11.6441 16.993 11.8161 16.3098 12.1249V11.2559C16.7696 11.0089 17.0595 10.5304 17.0595 9.99989V6.66572C17.0595 5.87906 16.4196 5.23903 15.6328 5.23903H13.2516V3.93356C13.2516 2.56519 12.1383 1.4519 10.7699 1.4519H6.28978C4.92136 1.4519 3.80808 2.56519 3.80808 3.93356V5.23903H1.41445C1.41037 5.23903 1.40634 5.23912 1.40231 5.23922C0.626859 5.25234 0 5.88722 0 6.66572V9.99989C0 10.5303 0.289922 11.0088 0.749766 11.2559V15.8527C0.749766 17.0242 1.70287 17.9773 2.87437 17.9773H5.48067C5.67487 17.9773 5.83223 17.8199 5.83223 17.6257C5.83223 17.4315 5.67487 17.2742 5.48067 17.2742H2.87437C2.09053 17.2742 1.45289 16.6365 1.45289 15.8527V11.5545L2.54208 12.0047C2.71575 12.0765 2.89913 12.1129 3.08705 12.1129H7.21425V12.5437C7.21425 13.0413 7.61906 13.4461 8.11664 13.4461H8.94295C9.44053 13.4461 9.84534 13.0413 9.84534 12.5437V12.1129H13.9725C14.1605 12.1129 14.3438 12.0765 14.5175 12.0047L15.6067 11.5545V12.5074C14.0977 13.4781 13.0961 15.1723 13.0961 17.0961C13.0961 17.1556 13.0971 17.215 13.0989 17.2742H6.84005C6.64584 17.2742 6.48848 17.4315 6.48848 17.6257C6.48848 17.8199 6.64584 17.9773 6.84005 17.9773H13.1673C13.5898 20.566 15.8418 22.548 18.5481 22.548C21.5543 22.548 24 20.1022 24 17.0961C24 16.1115 23.7343 15.1462 23.2317 14.3045V14.3045ZM4.51116 3.93361C4.51116 2.95289 5.30902 2.15508 6.28973 2.15508H10.7698C11.7505 2.15508 12.5484 2.95294 12.5484 3.93361V5.23908H11.8443V3.93361C11.8443 3.34111 11.3623 2.85914 10.7698 2.85914H8.65945C8.46525 2.85914 8.30789 3.0165 8.30789 3.2107C8.30789 3.4049 8.46525 3.56226 8.65945 3.56226H10.7698C10.9746 3.56226 11.1412 3.72886 11.1412 3.93361V5.23908H5.91844V3.93361C5.91844 3.72886 6.08503 3.56226 6.28978 3.56226H7.30017C7.49437 3.56226 7.65173 3.4049 7.65173 3.2107C7.65173 3.0165 7.49437 2.85914 7.30017 2.85914H6.28978C5.69728 2.85914 5.21531 3.34111 5.21531 3.93361V5.23908H4.51116V3.93361ZM9.14222 12.5437C9.14222 12.6536 9.05283 12.743 8.94295 12.743H8.11664C8.00677 12.743 7.91738 12.6536 7.91738 12.5437V10.7057C7.91738 10.5959 8.00677 10.5065 8.11664 10.5065H8.94295C9.05283 10.5065 9.14222 10.5959 9.14222 10.7057V12.5437ZM14.2489 11.3548C14.1608 11.3912 14.0679 11.4097 13.9725 11.4097H9.84534V10.7057C9.84534 10.2082 9.44053 9.80334 8.94295 9.80334H8.11664C7.61906 9.80334 7.21425 10.2082 7.21425 10.7057V11.4097H3.08705C2.99175 11.4097 2.89875 11.3913 2.81067 11.3549L1.15036 10.6686C0.878672 10.5563 0.703125 10.2938 0.703125 9.99989V6.66572C0.703125 6.26676 1.02773 5.94215 1.42673 5.94215H15.6329C16.0319 5.94215 16.3565 6.26676 16.3565 6.66572V9.99989C16.3565 10.2938 16.181 10.5563 15.9093 10.6686L14.2489 11.3548Z" fill="#F18F15"/>
</g>
<defs>
<clipPath id="clip0_162_1675">
<rect width="24" height="24" fill="white"/>
</clipPath>
</defs>
</svg>
