<svg width="24" height="24" viewBox="0 0 24 24" fill="none" xmlns="http://www.w3.org/2000/svg">
<path d="M12.046 1.87526C11.7868 1.87338 11.5754 2.08198 11.5735 2.34073C11.5716 2.59948 11.7797 2.81088 12.039 2.81276C12.2977 2.81463 12.5091 2.60651 12.511 2.34776C12.5129 2.08901 12.3047 1.8776 12.046 1.87526Z" fill="#F18F15"/>
<path d="M12.0247 4.68771C10.2148 4.67486 8.73253 6.13497 8.71884 7.9443C8.7052 9.75353 10.1661 11.2365 11.9754 11.2501C11.9838 11.2502 11.9922 11.2502 12.0006 11.2502C13.7984 11.2502 15.2677 9.79446 15.2812 7.99352C15.2949 6.18438 13.834 4.70135 12.0247 4.68771ZM12.0005 10.3128C11.9946 10.3128 11.9884 10.3127 11.9825 10.3127C10.6901 10.3029 9.64655 9.24363 9.6563 7.95133C9.666 6.66485 10.7154 5.62507 11.9996 5.62507C12.0055 5.62507 12.0117 5.62511 12.0176 5.62516C13.31 5.63491 14.3535 6.69419 14.3438 7.98649C14.334 9.27297 13.2847 10.3128 12.0005 10.3128Z" fill="#F18F15"/>
<path d="M14.0452 2.23075C13.8013 2.14422 13.5333 2.27195 13.4467 2.51599C13.3602 2.76002 13.488 3.02791 13.732 3.11444C15.7967 3.8462 17.1727 5.81266 17.1562 8.00767C17.1543 8.26652 17.3625 8.47797 17.6214 8.47994C17.6226 8.47994 17.6238 8.47994 17.625 8.47994C17.8822 8.47994 18.0917 8.27238 18.0937 8.0147C18.1132 5.42031 16.4862 3.09592 14.0452 2.23075Z" fill="#F18F15"/>
<path d="M14.876 17.6457C17.9938 13.6325 19.9423 11.5398 19.9686 8.02866C20.0016 3.61102 16.4165 0 11.9992 0C7.63343 0 4.06446 3.53569 4.03127 7.90912C4.00446 11.5155 5.9891 13.6053 9.12841 17.6451C6.00537 18.1117 4.03127 19.2844 4.03127 20.7188C4.03127 21.6795 4.91937 22.5417 6.53201 23.1464C7.99981 23.6968 9.9417 24 11.9999 24C14.0582 24 16.0001 23.6968 17.4679 23.1464C19.0805 22.5417 19.9686 21.6795 19.9686 20.7187C19.9686 19.2852 17.9963 18.1128 14.876 17.6457ZM4.96873 7.9162C4.99798 4.05703 8.14681 0.9375 11.9993 0.9375C15.8974 0.9375 19.0602 4.12444 19.0311 8.02167C19.0062 11.3561 16.9399 13.4109 13.6409 17.7114C13.0525 18.4781 12.5121 19.203 12.0006 19.912C11.4906 19.2025 10.961 18.4906 10.3638 17.7111C6.92852 13.2306 4.94332 11.331 4.96873 7.9162ZM11.9999 23.0625C7.97566 23.0625 4.96873 21.8251 4.96873 20.7188C4.96873 19.8983 6.76629 18.8617 9.7887 18.5028C10.4568 19.3794 11.0426 20.1758 11.6171 20.9892C11.7048 21.1134 11.8474 21.1874 11.9995 21.1875C11.9996 21.1875 11.9998 21.1875 11.9999 21.1875C12.1519 21.1875 12.2944 21.1138 12.3823 20.9898C12.9514 20.187 13.5532 19.371 14.2156 18.5033C17.2352 18.8626 19.0311 19.8988 19.0311 20.7188C19.0311 21.8251 16.0242 23.0625 11.9999 23.0625Z" fill="#F18F15"/>
</svg>
