<svg width="24" height="24" viewBox="0 0 24 24" fill="none" xmlns="http://www.w3.org/2000/svg">
<g clip-path="url(#clip0_115_564)">
<path d="M12.0001 24C14.5253 23.9976 16.9728 23.1264 18.9316 21.5327C20.8904 19.939 22.2413 17.7198 22.7573 15.2479C23.2733 12.776 22.9232 10.2017 21.7656 7.95747C20.608 5.7132 18.7134 3.93555 16.4001 2.92301C16.2796 2.86967 16.1498 2.84066 16.018 2.83766C15.8863 2.83466 15.7553 2.85772 15.6325 2.90552C15.5097 2.95333 15.3976 3.02492 15.3025 3.1162C15.2075 3.20748 15.1315 3.31663 15.0788 3.4374C15.0261 3.55816 14.9977 3.68815 14.9954 3.8199C14.9931 3.95164 15.0169 4.08254 15.0653 4.20508C15.1138 4.32761 15.186 4.43937 15.2777 4.53391C15.3695 4.62846 15.4791 4.70394 15.6001 4.75601C17.4951 5.58308 19.0476 7.03743 19.9965 8.87452C20.9453 10.7116 21.2327 12.8194 20.8103 14.8434C20.3878 16.8675 19.2813 18.6844 17.6768 19.9885C16.0724 21.2927 14.0678 22.0047 12.0001 22.0047C9.93243 22.0047 7.92783 21.2927 6.32335 19.9885C4.71887 18.6844 3.61238 16.8675 3.18994 14.8434C2.76749 12.8194 3.05486 10.7116 4.00372 8.87452C4.95258 7.03743 6.50505 5.58308 8.40009 4.75601C8.52114 4.70394 8.63069 4.62846 8.72247 4.53391C8.81424 4.43937 8.88643 4.32761 8.93488 4.20508C8.98333 4.08254 9.00708 3.95164 9.00477 3.8199C9.00246 3.68815 8.97414 3.55816 8.92144 3.4374C8.86873 3.31663 8.79268 3.20748 8.69765 3.1162C8.60262 3.02492 8.49049 2.95333 8.3677 2.90552C8.24491 2.85772 8.11388 2.83466 7.98215 2.83766C7.85042 2.84066 7.72058 2.86967 7.6001 2.92301C5.28675 3.93555 3.39223 5.7132 2.23463 7.95747C1.07703 10.2017 0.726849 12.776 1.24289 15.2479C1.75893 17.7198 3.10976 19.939 5.06856 21.5327C7.02737 23.1264 9.47487 23.9976 12.0001 24Z" fill="#E30613"/>
<path d="M12 9.99999C12.2652 9.99999 12.5196 9.89464 12.7071 9.7071C12.8946 9.51956 13 9.26521 13 8.99999V0.999999C13 0.734783 12.8946 0.480429 12.7071 0.292893C12.5196 0.105357 12.2652 0 12 0C11.7348 0 11.4804 0.105357 11.2929 0.292893C11.1054 0.480429 11 0.734783 11 0.999999V8.99999C11 9.26521 11.1054 9.51956 11.2929 9.7071C11.4804 9.89464 11.7348 9.99999 12 9.99999Z" fill="#E30613"/>
</g>
<defs>
<clipPath id="clip0_115_564">
<rect width="24" height="24" fill="white"/>
</clipPath>
</defs>
</svg>
