<svg width="24" height="24" viewBox="0 0 24 24" fill="none" xmlns="http://www.w3.org/2000/svg">
<path d="M12 22.7568C11.8786 22.7568 11.7572 22.7255 11.6485 22.6626C11.5304 22.5945 8.72392 20.965 5.8772 18.5098C4.18999 17.0547 2.84318 15.6114 1.87427 14.2201C0.620464 12.4199 -0.0100507 10.6882 0.000121129 9.07324C0.0120274 7.19402 0.685104 5.42674 1.89551 4.0969C3.12635 2.74465 4.76894 2 6.5208 2C8.76596 2 10.8187 3.25765 12.0001 5.24993C13.1814 3.2577 15.2341 2 17.4793 2C19.1344 2 20.7134 2.6719 21.9258 3.89196C23.2563 5.23085 24.0123 7.12263 23.9999 9.08214C23.9897 10.6943 23.3473 12.4233 22.0908 14.2211C21.1189 15.6117 19.7739 17.0543 18.0933 18.509C15.257 20.964 12.4707 22.5934 12.3535 22.6616C12.2442 22.725 12.1221 22.7568 12 22.7568Z" fill="#000"/>
</svg>
