<svg width="24" height="25" viewBox="0 0 24 25" fill="none" xmlns="http://www.w3.org/2000/svg">
<path d="M15.551 13.3805L13.5409 15.3973C12.7258 16.2153 11.2916 16.2329 10.4589 15.3973L8.44874 13.3805L1.22925 20.6234C1.49798 20.7477 1.79428 20.8219 2.10928 20.8219H21.8905C22.2055 20.8219 22.5017 20.7478 22.7704 20.6235L15.551 13.3805Z" fill="#F18F15"/>
<path d="M21.8907 3.9469H2.10943C1.79443 3.9469 1.49813 4.02106 1.22949 4.14532L8.94404 11.8855C8.94456 11.886 8.94517 11.8861 8.94568 11.8866C8.9462 11.8871 8.94629 11.8878 8.94629 11.8878L11.4547 14.4045C11.7212 14.671 12.2791 14.671 12.5455 14.4045L15.0534 11.8882C15.0534 11.8882 15.054 11.8871 15.0545 11.8866C15.0545 11.8866 15.0557 11.886 15.0562 11.8855L22.7705 4.14527C22.5019 4.02096 22.2057 3.9469 21.8907 3.9469Z" fill="#F18F15"/>
<path d="M0.224344 5.12866C0.0853125 5.40982 0 5.72191 0 6.05622V18.7125C0 19.0468 0.0852187 19.3589 0.224297 19.64L7.45631 12.3846L0.224344 5.12866Z" fill="#F18F15"/>
<path d="M23.7756 5.12866L16.5437 12.3847L23.7756 19.6402C23.9147 19.3591 24 19.047 24 18.7126V6.05632C24 5.72191 23.9147 5.40982 23.7756 5.12866Z" fill="#F18F15"/>
</svg>
