<svg width="24" height="24" viewBox="0 0 24 24" fill="none" xmlns="http://www.w3.org/2000/svg">
<path d="M21.5527 19.9531H2.44717C1.82616 19.9524 1.2308 19.7053 0.791699 19.2662C0.3526 18.8271 0.105632 18.2317 0.10498 17.6107V5.81129C0.105632 5.19028 0.3526 4.59489 0.791699 4.15575C1.2308 3.71661 1.82616 3.46958 2.44717 3.46887H21.5527C22.1737 3.46958 22.769 3.71661 23.2081 4.15575C23.6472 4.59489 23.8942 5.19028 23.8948 5.81129V17.6107C23.8942 18.2317 23.6472 18.8271 23.2081 19.2662C22.769 19.7053 22.1737 19.9524 21.5527 19.9531ZM2.44717 4.36412C2.06351 4.36453 1.69568 4.51714 1.42441 4.78846C1.15314 5.05977 1.00058 5.42762 1.00023 5.81129V17.6107C1.00058 17.9943 1.15314 18.3622 1.42441 18.6335C1.69568 18.9048 2.06351 19.0574 2.44717 19.0578H21.5527C21.9363 19.0574 22.3041 18.9048 22.5754 18.6335C22.8467 18.3622 22.9992 17.9943 22.9996 17.6107V5.81129C22.9992 5.42762 22.8467 5.05977 22.5754 4.78846C22.3041 4.51714 21.9363 4.36453 21.5527 4.36412H2.44717Z" fill="#F18F15"/>
<path d="M11.9998 14.3452C11.8907 14.3453 11.7853 14.3055 11.7035 14.2333L0.915771 4.71056L1.5082 4.03912L11.9998 13.3014L22.4919 4.04024L23.0843 4.71168L12.2966 14.2344C12.2146 14.3064 12.109 14.3458 11.9998 14.3452Z" fill="#F18F15"/>
<path d="M0.672363 18.5474L7.91945 10.2901L8.59268 10.8809L1.34559 19.1382L0.672363 18.5474Z" fill="#F18F15"/>
<path d="M15.4299 10.8723L16.1032 10.2814L23.3504 18.5388L22.6772 19.1297L15.4299 10.8723Z" fill="#F18F15"/>
</svg>
