<svg width="24" height="24" viewBox="0 0 22 25" fill="none" xmlns="http://www.w3.org/2000/svg">
<path d="M19.9915 20.9637H2.0991C1.67759 20.9637 1.26676 20.831 0.924822 20.5845C0.582885 20.3381 0.327177 19.9902 0.193925 19.5903C0.0606741 19.1904 0.0566365 18.7587 0.182385 18.3564C0.308133 17.9541 0.55729 17.6015 0.894557 17.3487L1.79665 16.6721C2.13615 16.4184 2.36392 16.0428 2.43201 15.6245L3.56382 8.75393C3.84015 6.96743 4.74665 5.33877 6.11939 4.16252C7.49212 2.98626 9.24046 2.34006 11.0482 2.34078C12.856 2.34149 14.6038 2.98907 15.9756 4.16642C17.3474 5.34376 18.2526 6.97312 18.5275 8.75985L19.6586 15.6245C19.7267 16.0428 19.9544 16.4184 20.2939 16.6721L21.1963 17.3487C21.5336 17.6015 21.7828 17.9541 21.9086 18.3565C22.0343 18.7589 22.0303 19.1906 21.897 19.5906C21.7637 19.9905 21.5079 20.3383 21.1658 20.5848C20.8238 20.8312 20.4129 20.9638 19.9913 20.9637H19.9915ZM11.0461 3.43662C9.49747 3.4291 7.99799 3.97992 6.82248 4.98814C5.64696 5.99636 4.87415 7.39443 4.64567 8.92614L3.51304 15.8025C3.39941 16.4996 3.01976 17.1254 2.45403 17.5482L1.55166 18.2251C1.39832 18.34 1.28505 18.5002 1.22789 18.6831C1.17072 18.866 1.17257 19.0623 1.23317 19.2441C1.29376 19.4259 1.41004 19.584 1.56551 19.696C1.72097 19.808 1.90776 19.8683 2.09938 19.8682H19.9918C20.1833 19.8682 20.37 19.808 20.5255 19.696C20.6809 19.584 20.7971 19.4259 20.8577 19.2442C20.9183 19.0624 20.9202 18.8662 20.863 18.6834C20.8059 18.5005 20.6927 18.3403 20.5395 18.2253L19.6368 17.5482C19.0711 17.1254 18.6914 16.4996 18.5778 15.8025L17.4457 8.932C17.2183 7.39945 16.4461 6.00021 15.2707 4.99086C14.0953 3.98151 12.5954 3.4297 11.0461 3.43662Z" fill="#143360"/>
<path d="M12.6885 3.6338C12.5432 3.6338 12.4039 3.57609 12.3012 3.47337C12.1985 3.37066 12.1408 3.23134 12.1408 3.08608V2.34118C12.1408 2.05065 12.0253 1.77202 11.8199 1.56659C11.6145 1.36115 11.3358 1.24574 11.0453 1.24574C10.7548 1.24574 10.4762 1.36115 10.2707 1.56659C10.0653 1.77202 9.94987 2.05065 9.94987 2.34118V3.08608C9.94987 3.23134 9.89217 3.37066 9.78945 3.47337C9.68673 3.57609 9.54742 3.6338 9.40215 3.6338C9.25689 3.6338 9.11757 3.57609 9.01485 3.47337C8.91214 3.37066 8.85443 3.23134 8.85443 3.08608V2.34118C8.85443 1.76012 9.08526 1.20286 9.49613 0.791993C9.907 0.381123 10.4643 0.150299 11.0453 0.150299C11.6264 0.150299 12.1836 0.381123 12.5945 0.791993C13.0054 1.20286 13.2362 1.76012 13.2362 2.34118V3.08608C13.2362 3.23134 13.1785 3.37066 13.0758 3.47337C12.9731 3.57609 12.8337 3.6338 12.6885 3.6338Z" fill="#143360"/>
<path d="M11.0453 24.25C10.0288 24.2488 9.05429 23.8445 8.33551 23.1258C7.61674 22.407 7.21243 21.4324 7.2113 20.4159C7.2113 20.2707 7.26901 20.1313 7.37173 20.0286C7.47444 19.9259 7.61376 19.8682 7.75902 19.8682C7.90429 19.8682 8.0436 19.9259 8.14632 20.0286C8.24904 20.1313 8.30674 20.2707 8.30674 20.4159C8.30674 21.1422 8.59527 21.8388 9.10886 22.3524C9.62244 22.866 10.319 23.1545 11.0453 23.1545C11.7717 23.1545 12.4682 22.866 12.9818 22.3524C13.4954 21.8388 13.7839 21.1422 13.7839 20.4159C13.7839 20.2707 13.8416 20.1313 13.9444 20.0286C14.0471 19.9259 14.1864 19.8682 14.3317 19.8682C14.4769 19.8682 14.6162 19.9259 14.7189 20.0286C14.8217 20.1313 14.8794 20.2707 14.8794 20.4159C14.8782 21.4324 14.4739 22.407 13.7552 23.1258C13.0364 23.8445 12.0618 24.2488 11.0453 24.25Z" fill="#143360"/>
</svg>
