<svg width="24" height="24" viewBox="0 0 24 24" fill="none" xmlns="http://www.w3.org/2000/svg">
<path d="M20.0532 14.4177C19.8777 14.3149 19.653 14.3736 19.5509 14.5488L15.3416 21.728C15.0375 22.2542 14.363 22.4356 13.8529 22.1411L13.033 21.6097C12.8626 21.4992 12.6353 21.5477 12.5251 21.7181C12.4145 21.8881 12.4634 22.1158 12.6334 22.2259L13.4695 22.7672C13.7578 22.9339 14.0732 23.0128 14.3846 23.0128C15.0195 23.0128 15.6371 22.6842 15.976 22.0974L20.1838 14.92C20.2864 14.7452 20.228 14.5201 20.0532 14.4177Z" fill="#F18F15"/>
<path d="M21.164 0.987122H15.2888C14.1526 0.987122 13.3062 1.3488 12.4587 2.19632C12.3152 2.33992 12.3152 2.57199 12.4587 2.71554C12.6023 2.85914 12.8344 2.85914 12.9779 2.71554C13.6933 2.00022 14.3414 1.7215 15.2888 1.7215H21.164C21.7714 1.7215 22.2656 2.21577 22.2656 2.82312V8.69844C22.2656 9.64621 21.9869 10.2939 21.2713 11.0092L10.366 21.93C9.94957 22.3457 9.22397 22.346 8.80833 21.93L2.05723 15.1789C1.84904 14.9707 1.73444 14.6942 1.73444 14.3996C1.73444 14.1055 1.84899 13.829 2.05684 13.6212L11.9134 3.7786C12.065 3.81716 12.2171 3.85571 12.3746 3.89793C13.8684 4.29817 15.0471 4.71166 15.9258 5.0807C15.7529 5.4009 15.6559 5.75966 15.6559 6.12797C15.6559 7.34306 16.6441 8.3312 17.8592 8.3312C19.0743 8.3312 20.0624 7.34306 20.0624 6.12797C20.0624 4.91288 19.0743 3.92474 17.8592 3.92474C17.6561 3.92474 17.492 4.08925 17.492 4.29193C17.492 4.49461 17.6561 4.65912 17.8592 4.65912C18.6693 4.65912 19.328 5.31789 19.328 6.12793C19.328 6.938 18.6692 7.59673 17.8592 7.59673C17.0491 7.59673 16.3904 6.93796 16.3904 6.12793C16.3904 5.86354 16.4627 5.60539 16.596 5.38068C17.232 5.68508 17.6297 5.94177 17.7869 6.10555C17.7197 6.12466 17.6157 6.14596 17.459 6.15951C17.257 6.1775 17.1076 6.35561 17.1256 6.55756C17.1425 6.74849 17.3026 6.89282 17.491 6.89282C17.5016 6.89282 17.5126 6.89209 17.5236 6.89135C17.7494 6.87117 18.4365 6.81058 18.5687 6.31813C18.9304 4.96718 13.6305 3.47411 12.5645 3.18842C10.9337 2.75143 9.36761 2.45253 8.15398 2.3468C6.66276 2.21646 5.93642 2.38609 5.79984 2.89649C5.73447 3.14143 5.56006 3.79172 8.53735 4.96568C8.72575 5.04021 8.93944 4.94769 9.01363 4.75895C9.08782 4.57021 8.99526 4.35686 8.80652 4.28268C7.36818 3.71534 6.77219 3.29966 6.58125 3.10395C7.03403 2.97102 8.58254 3.00958 11.0762 3.57652L1.538 13.1016C1.19099 13.4486 1.00006 13.9094 1.00006 14.3996C1.00006 14.8903 1.19099 15.3514 1.538 15.6981L8.28906 22.4491C8.63534 22.7958 9.09655 22.9867 9.58677 22.9867C10.0774 22.9867 10.5382 22.7958 10.8852 22.4488L21.7908 11.5285C22.6387 10.681 23 9.83456 23 8.69844V2.82316C23.0001 1.81075 22.1764 0.987122 21.164 0.987122Z" fill="#F18F15"/>
<path d="M13.0102 10.6421C12.8666 10.4985 12.6345 10.4985 12.491 10.6421L12.2927 10.8404C12.0022 10.648 11.6556 10.5345 11.2818 10.5345C10.2694 10.5345 9.44572 11.3581 9.44572 12.3705C9.44572 12.9177 9.67155 13.3502 9.86838 13.6664C10.052 13.9612 10.1801 14.3813 10.1801 14.5738C10.1801 15.1811 9.68588 15.6754 9.07853 15.6754C8.47118 15.6754 7.97691 15.1811 7.97691 14.5738C7.97691 14.3508 8.04336 14.136 8.16897 13.9525C8.28352 13.7854 8.24057 13.5566 8.07348 13.4421C7.90604 13.3279 7.67763 13.3705 7.56308 13.5375C7.35338 13.8438 7.24249 14.2022 7.24249 14.5738C7.24249 14.9476 7.35596 15.2942 7.54836 15.5847L7.35007 15.783C7.20647 15.9265 7.20647 16.1587 7.35007 16.3022C7.42167 16.3738 7.5157 16.4098 7.60968 16.4098C7.7037 16.4098 7.79769 16.3738 7.86929 16.3022L8.06758 16.1039C8.35805 16.2963 8.70467 16.4098 9.07849 16.4098C10.0909 16.4098 10.9145 15.5862 10.9145 14.5738C10.9145 14.2161 10.7368 13.6712 10.4919 13.2779C10.2734 12.9272 10.1801 12.6559 10.1801 12.3705C10.1801 11.7632 10.6744 11.2689 11.2817 11.2689C11.5762 11.2689 11.8424 11.3864 12.04 11.5755C12.0462 11.5821 12.0484 11.5909 12.0547 11.5975C12.0613 11.6038 12.0701 11.606 12.0767 11.6122C12.2658 11.8098 12.3833 12.076 12.3833 12.3705C12.3833 12.6649 12.2684 12.9422 12.0598 13.1508C11.9162 13.294 11.9162 13.5264 12.0594 13.67C12.2022 13.8136 12.4351 13.8132 12.5786 13.6704C12.926 13.323 13.1177 12.8614 13.1177 12.3705C13.1177 11.9967 13.0042 11.65 12.8118 11.3596L13.0101 11.1613C13.1538 11.0177 13.1538 10.7856 13.0102 10.6421Z" fill="#F18F15"/>
</svg>
