<svg width="24" height="24" viewBox="0 0 24 24" fill="none" xmlns="http://www.w3.org/2000/svg">
<g clip-path="url(#clip0_202_1649)">
<path d="M12.4 11.2C12.512 11.2 11.868 11.424 22.288 7.552C22.3879 7.51514 22.469 7.43995 22.5133 7.34309C22.5576 7.24623 22.5615 7.1357 22.524 7.036C20.9405 2.81382 16.9093 0.0122307 12.4 0C12.1791 0 12 0.179086 12 0.4V10.8C12 11.0209 12.1791 11.2 12.4 11.2ZM12.8 0.8C16.6833 0.968093 20.1214 3.36088 21.628 6.944L12.8 10.224V0.8Z" fill="#F18F15"/>
<path d="M21.6001 13.2C21.6043 11.9113 21.3767 10.6322 20.9281 9.42403C20.889 9.32331 20.8109 9.24269 20.7114 9.2005C20.612 9.15831 20.4997 9.15814 20.4001 9.20003L11.2001 12.624V2.80003C11.2001 2.57911 11.021 2.40003 10.8001 2.40003C6.42675 2.39745 2.48353 5.0326 0.812845 9.07426C-0.857844 13.1159 0.0738211 17.7662 3.17254 20.8523C6.27126 23.9384 10.9253 24.8512 14.9601 23.164C17.6996 24.7386 21.1908 23.9188 22.943 21.2894C24.6952 18.66 24.1079 15.1222 21.6001 13.2ZM10.4001 3.20003V12.696L1.1721 10.524C2.31632 6.32792 6.05379 3.3616 10.4001 3.20003ZM0.984102 11.304L10.2801 13.488L7.2001 22.512C2.69169 20.7693 0.0750943 16.0513 0.984102 11.304ZM7.9401 22.772L11.1161 13.508L20.3161 10.092C20.5937 10.9316 20.7565 11.8048 20.8001 12.688C18.0804 11.2504 14.7141 12.1026 13.006 14.6611C11.298 17.2196 11.8016 20.6554 14.1721 22.616C12.1655 23.3364 9.98023 23.3911 7.9401 22.772ZM18.0001 23.2C15.1282 23.2 12.8001 20.8719 12.8001 18C12.8001 15.1281 15.1282 12.8 18.0001 12.8C20.872 12.8 23.2001 15.1281 23.2001 18C23.2001 19.3792 22.6522 20.7018 21.6771 21.677C20.7019 22.6522 19.3792 23.2 18.0001 23.2Z" fill="#F18F15"/>
<path d="M20.6841 15.316C20.609 15.2403 20.5067 15.1977 20.4001 15.1977C20.2934 15.1977 20.1912 15.2403 20.1161 15.316L15.3161 20.116C15.2007 20.2304 15.166 20.4033 15.2283 20.5534C15.2907 20.7035 15.4376 20.801 15.6001 20.8C15.7064 20.8006 15.8086 20.7589 15.8841 20.684L20.6841 15.884C20.7598 15.8089 20.8024 15.7067 20.8024 15.6C20.8024 15.4934 20.7598 15.3911 20.6841 15.316Z" fill="#F18F15"/>
<path d="M17.2 16C17.2 15.3372 16.6628 14.8 16 14.8C15.3373 14.8 14.8 15.3372 14.8 16C14.8 16.6627 15.3373 17.2 16 17.2C16.6628 17.2 17.2 16.6627 17.2 16ZM15.6 16C15.6 15.7791 15.7791 15.6 16 15.6C16.221 15.6 16.4 15.7791 16.4 16C16.4 16.2209 16.221 16.4 16 16.4C15.7791 16.4 15.6 16.2209 15.6 16Z" fill="#F18F15"/>
<path d="M20 18.8C19.3373 18.8 18.8 19.3372 18.8 20C18.8 20.6627 19.3373 21.2 20 21.2C20.6628 21.2 21.2 20.6627 21.2 20C21.2 19.3372 20.6628 18.8 20 18.8ZM20 20.4C19.7791 20.4 19.6 20.2209 19.6 20C19.6 19.7791 19.7791 19.6 20 19.6C20.221 19.6 20.4 19.7791 20.4 20C20.4 20.2209 20.221 20.4 20 20.4Z" fill="#F18F15"/>
</g>
<defs>
<clipPath id="clip0_202_1649">
<rect width="24" height="24" fill="white"/>
</clipPath>
</defs>
</svg>
