<svg width="16" height="17" viewBox="0 0 16 17" fill="none" xmlns="http://www.w3.org/2000/svg">
<g clip-path="url(#clip0_603_3080)">
<path d="M8.03083 1.75016C7.85802 1.74891 7.71708 1.88797 7.71583 2.06047C7.71458 2.23297 7.85333 2.37391 8.02614 2.37516C8.19864 2.37641 8.33958 2.23766 8.34083 2.06516C8.34208 1.89266 8.20333 1.75172 8.03083 1.75016Z" fill="#143360"/>
<path d="M8.01644 3.62513C6.80984 3.61657 5.82169 4.58998 5.81256 5.7962C5.80347 7.00235 6.77741 7.99098 7.98363 8.00007C7.98922 8.0001 7.99478 8.00013 8.00038 8.00013C9.19891 8.00013 10.1784 7.02963 10.1875 5.82901C10.1966 4.62291 9.22269 3.63423 8.01644 3.62513ZM8.00031 7.37516C7.99638 7.37516 7.99225 7.37513 7.98831 7.3751C7.12672 7.3686 6.43103 6.66241 6.43753 5.80088C6.444 4.94323 7.14363 4.25004 7.99975 4.25004C8.00369 4.25004 8.00781 4.25007 8.01175 4.2501C8.87335 4.2566 9.56903 4.96279 9.56253 5.82432C9.55603 6.68198 8.85644 7.37516 8.00031 7.37516Z" fill="#143360"/>
<path d="M9.36354 1.98716C9.20098 1.92947 9.02226 2.01463 8.96457 2.17732C8.90691 2.34 8.99207 2.5186 9.15473 2.57629C10.5312 3.06413 11.4485 4.3751 11.4375 5.83844C11.4363 6.011 11.5751 6.15197 11.7477 6.15329C11.7485 6.15329 11.7493 6.15329 11.7501 6.15329C11.9215 6.15329 12.0612 6.01491 12.0625 5.84313C12.0755 4.11354 10.9909 2.56394 9.36354 1.98716Z" fill="#143360"/>
<path d="M9.91752 12.2638C11.9961 9.58834 13.295 8.19319 13.3126 5.85244C13.3346 2.90734 10.9445 0.5 7.99962 0.5C5.08912 0.5 2.7098 2.85712 2.68768 5.77275C2.6698 8.17697 3.9929 9.57022 6.08577 12.2634C4.00374 12.5745 2.68768 13.3563 2.68768 14.3125C2.68768 14.953 3.27974 15.5278 4.35484 15.9309C5.33337 16.2979 6.62796 16.5 8.00012 16.5C9.37227 16.5 10.6669 16.2979 11.6454 15.9309C12.7205 15.5278 13.3126 14.953 13.3126 14.3125C13.3126 13.3568 11.9977 12.5752 9.91752 12.2638ZM3.31265 5.77747C3.33215 3.20469 5.43137 1.125 7.99968 1.125C10.5984 1.125 12.707 3.24962 12.6876 5.84778C12.671 8.07072 11.2934 9.44062 9.09412 12.3076C8.70184 12.8187 8.34159 13.302 8.00059 13.7747C7.66059 13.3017 7.30752 12.8271 6.90937 12.3074C4.61918 9.32041 3.29571 8.05403 3.31265 5.77747ZM8.00012 15.875C5.31727 15.875 3.31265 15.0501 3.31265 14.3125C3.31265 13.7655 4.51102 13.0745 6.52596 12.8352C6.97137 13.4196 7.36187 13.9506 7.74487 14.4928C7.80337 14.5756 7.89843 14.6249 7.99984 14.625C7.99993 14.625 8.00002 14.625 8.00012 14.625C8.10143 14.625 8.19646 14.5759 8.25505 14.4932C8.63443 13.958 9.03562 13.414 9.47721 12.8356C11.4903 13.0751 12.6876 13.7659 12.6876 14.3125C12.6876 15.0501 10.683 15.875 8.00012 15.875Z" fill="#143360"/>
</g>
<defs>
<clipPath id="clip0_603_3080">
<rect width="24" height="24" fill="white" transform="translate(0 0.5)"/>
</clipPath>
</defs>
</svg>
