<svg width="24" height="24" viewBox="0 0 17 17" fill="none" xmlns="http://www.w3.org/2000/svg">
<path d="M1.86194 5.63798C1.73696 5.51296 1.66675 5.34342 1.66675 5.16664C1.66675 4.98986 1.73696 4.82033 1.86194 4.69531L4.52861 2.02864C4.65434 1.9072 4.82275 1.84001 4.99754 1.84153C5.17234 1.84304 5.33955 1.91316 5.46315 2.03676C5.58676 2.16037 5.65687 2.32758 5.65839 2.50238C5.65991 2.67717 5.59271 2.84558 5.47127 2.97131L2.80461 5.63798C2.67959 5.76296 2.51005 5.83317 2.33327 5.83317C2.1565 5.83317 1.98696 5.76296 1.86194 5.63798ZM13.5286 11.0287L10.8619 13.6953C10.7983 13.7568 10.7475 13.8304 10.7125 13.9117C10.6776 13.9931 10.6592 14.0805 10.6585 14.1691C10.6577 14.2575 10.6745 14.3453 10.7081 14.4273C10.7416 14.5092 10.7911 14.5837 10.8537 14.6463C10.9163 14.7088 10.9907 14.7583 11.0727 14.7919C11.1546 14.8254 11.2424 14.8423 11.3309 14.8415C11.4194 14.8407 11.5069 14.8223 11.5882 14.7874C11.6695 14.7525 11.7431 14.7017 11.8046 14.638L14.4713 11.9713C14.5927 11.8456 14.6599 11.6772 14.6584 11.5024C14.6569 11.3276 14.5868 11.1603 14.4631 11.0367C14.3395 10.9131 14.1723 10.8431 13.9975 10.8415C13.8227 10.84 13.6543 10.9072 13.5286 11.0287ZM14.8046 6.69531C14.6796 6.57033 14.5101 6.50012 14.3333 6.50012C14.1565 6.50012 13.987 6.57033 13.8619 6.69531L6.52861 14.0287C6.46493 14.0901 6.41415 14.1637 6.37921 14.2451C6.34427 14.3264 6.32587 14.4139 6.32511 14.5024C6.32434 14.5909 6.34121 14.6787 6.37473 14.7606C6.40825 14.8425 6.45775 14.917 6.52035 14.9796C6.58294 15.0421 6.65737 15.0917 6.73931 15.1252C6.82123 15.1587 6.90902 15.1756 6.99754 15.1748C7.08605 15.1741 7.17352 15.1557 7.25485 15.1207C7.33619 15.0858 7.40979 15.035 7.47125 14.9713L14.8046 7.638C14.9296 7.51294 14.9998 7.3434 14.9998 7.16664C14.9998 6.98986 14.9296 6.82033 14.8046 6.69531ZM2.33327 10.5C2.51007 10.4999 2.67961 10.4297 2.80461 10.3047L10.1379 2.97131C10.2016 2.90981 10.2524 2.83625 10.2873 2.75491C10.3223 2.67358 10.3407 2.5861 10.3415 2.49758C10.3422 2.40906 10.3253 2.32127 10.2919 2.23934C10.2583 2.15741 10.2088 2.08298 10.1462 2.02038C10.0836 1.95778 10.0092 1.90828 9.92725 1.87476C9.84532 1.84124 9.75752 1.82437 9.66899 1.82514C9.58052 1.82591 9.49299 1.8443 9.41165 1.87924C9.33032 1.91418 9.25679 1.96497 9.19525 2.02864L1.86194 9.362C1.76873 9.4552 1.70527 9.574 1.67955 9.70327C1.65384 9.8326 1.66704 9.9666 1.71749 10.0884C1.76793 10.2102 1.85336 10.3143 1.96297 10.3876C2.07257 10.4608 2.20144 10.4999 2.33327 10.5ZM2.33327 15.1667C2.51007 15.1666 2.67961 15.0963 2.80461 14.9713L14.8046 2.97131C14.8683 2.90981 14.9191 2.83625 14.954 2.75491C14.9889 2.67358 15.0073 2.5861 15.0081 2.49758C15.0089 2.40906 14.992 2.32127 14.9585 2.23934C14.925 2.15741 14.8755 2.08298 14.8129 2.02038C14.7503 1.95778 14.6759 1.90828 14.5939 1.87476C14.512 1.84124 14.4242 1.82437 14.3357 1.82514C14.2471 1.82591 14.1597 1.8443 14.0783 1.87924C13.997 1.91418 13.9235 1.96497 13.8619 2.02864L1.86194 14.0287C1.76873 14.1219 1.70527 14.2407 1.67955 14.3699C1.65384 14.4993 1.66704 14.6333 1.71749 14.7551C1.76793 14.8769 1.85336 14.981 1.96297 15.0543C2.07257 15.1275 2.20144 15.1666 2.33327 15.1667Z" fill="white"/>
</svg>
