<svg width="24" height="24" viewBox="0 0 24 24" fill="none" xmlns="http://www.w3.org/2000/svg">
<path d="M22.3564 3.4145C22.3219 3.215 22.1699 3.0555 21.9719 3.0115C21.9049 2.997 15.2314 1.5075 12.2179 0.0499971C12.0804 -0.0165029 11.9199 -0.0165029 11.7824 0.0499971C8.76838 1.5075 2.09488 2.997 2.02788 3.0115C1.82988 3.0555 1.67788 3.215 1.64338 3.4145C1.63688 3.451 1.07688 7.3835 2.21938 12.053C3.60838 17.7275 6.92138 21.844 11.8009 23.959C11.8644 23.9865 11.9319 24 11.9999 24C12.0679 24 12.1354 23.9865 12.1984 23.959C17.0779 21.8445 20.3909 17.7275 21.7799 12.053C22.9229 7.3835 22.3629 3.451 22.3564 3.4145ZM20.8084 11.8155C19.4974 17.173 16.5339 20.919 11.9999 22.9535C7.46588 20.919 4.50238 17.1725 3.19138 11.8155C2.29538 8.1555 2.49588 4.918 2.59288 3.9095C3.99588 3.5865 9.19138 2.3455 11.9999 1.0525C14.8084 2.3455 20.0039 3.586 21.4069 3.909C21.5039 4.918 21.7044 8.1555 20.8084 11.8155Z" fill="#110101"/>
<path d="M19.6168 5.02248C18.5873 4.76748 17.5848 4.50198 16.6363 4.23298C16.3693 4.15598 16.0938 4.31148 16.0188 4.57698C15.9438 4.84298 16.0973 5.11948 16.3628 5.19448C17.2068 5.43398 18.0923 5.67048 19.0008 5.89898C19.0023 6.74298 18.9568 7.59748 18.8648 8.44548C18.8348 8.71998 19.0333 8.96698 19.3078 8.99698C19.3263 8.99898 19.3443 8.99998 19.3628 8.99998C19.6148 8.99998 19.8318 8.80998 19.8593 8.55398C19.9703 7.53598 20.0163 6.50798 19.9968 5.49798C19.9923 5.27198 19.8368 5.07648 19.6168 5.02248Z" fill="#110101"/>
<path d="M14.7498 9.5H9.24976C8.42276 9.5 7.74976 10.173 7.74976 11V15C7.74976 15.827 8.42276 16.5 9.24976 16.5H14.7498C15.5768 16.5 16.2498 15.827 16.2498 15V11C16.2498 10.173 15.5768 9.5 14.7498 9.5ZM15.2498 15C15.2498 15.276 15.0258 15.5 14.7498 15.5H9.24976C8.97376 15.5 8.74976 15.276 8.74976 15V11C8.74976 10.724 8.97376 10.5 9.24976 10.5H14.7498C15.0258 10.5 15.2498 10.724 15.2498 11V15Z" fill="#110101"/>
<path d="M9.49976 9C9.77626 9 9.99976 8.7765 9.99976 8.5C9.99976 7.397 10.8968 6.5 11.9998 6.5C13.1028 6.5 13.9998 7.397 13.9998 8.5C13.9998 8.7765 14.2233 9 14.4998 9C14.7763 9 14.9998 8.7765 14.9998 8.5C14.9998 6.8455 13.6543 5.5 11.9998 5.5C10.3453 5.5 8.99976 6.8455 8.99976 8.5C8.99976 8.7765 9.22326 9 9.49976 9Z" fill="#110101"/>
</svg>
