<svg width="24" height="24" viewBox="0 0 24 24" fill="none" xmlns="http://www.w3.org/2000/svg">
<g clip-path="url(#clip0_16_3096)">
<path d="M18.5454 24H5.45453C5.16521 24 4.88773 23.885 4.68315 23.6805C4.47856 23.4759 4.36363 23.1984 4.36363 22.9091C4.36363 22.6197 4.47856 22.3423 4.68315 22.1377C4.88773 21.9331 5.16521 21.8182 5.45453 21.8182H18.5454C18.8347 21.8182 19.1122 21.9331 19.3168 22.1377C19.5214 22.3423 19.6363 22.6197 19.6363 22.9091C19.6363 23.1984 19.5214 23.4759 19.3168 23.6805C19.1122 23.885 18.8347 24 18.5454 24ZM23.9999 5.45454V14.1818C23.9999 14.8981 23.8589 15.6074 23.5847 16.2692C23.3106 16.9309 22.9088 17.5322 22.4023 18.0387C21.8958 18.5452 21.2945 18.947 20.6328 19.2211C19.971 19.4953 19.2617 19.6363 18.5454 19.6363H5.45453C4.73823 19.6363 4.02895 19.4953 3.36717 19.2211C2.7054 18.947 2.1041 18.5452 1.5976 18.0387C0.574672 17.0158 0 15.6284 0 14.1818V5.45454C0 4.00791 0.574672 2.62052 1.5976 1.5976C2.62052 0.574673 4.0079 0 5.45453 0H18.5454C19.2617 0 19.971 0.141086 20.6328 0.415202C21.2945 0.689318 21.8958 1.0911 22.4023 1.5976C22.9088 2.1041 23.3106 2.7054 23.5847 3.36718C23.8589 4.02895 23.9999 4.73824 23.9999 5.45454ZM4.36363 7.63635C4.36363 7.92568 4.47856 8.20316 4.68315 8.40774C4.88773 8.61233 5.16521 8.72726 5.45453 8.72726H12C12.2893 8.72726 12.5668 8.61233 12.7714 8.40774C12.9759 8.20316 13.0909 7.92568 13.0909 7.63635C13.0909 7.34703 12.9759 7.06955 12.7714 6.86497C12.5668 6.66038 12.2893 6.54545 12 6.54545H5.45453C5.16521 6.54545 4.88773 6.66038 4.68315 6.86497C4.47856 7.06955 4.36363 7.34703 4.36363 7.63635ZM19.6363 12C19.6363 11.7107 19.5214 11.4332 19.3168 11.2286C19.1122 11.024 18.8347 10.9091 18.5454 10.9091H5.45453C5.16521 10.9091 4.88773 11.024 4.68315 11.2286C4.47856 11.4332 4.36363 11.7107 4.36363 12C4.36363 12.2893 4.47856 12.5668 4.68315 12.7714C4.88773 12.976 5.16521 13.0909 5.45453 13.0909H18.5454C18.8347 13.0909 19.1122 12.976 19.3168 12.7714C19.5214 12.5668 19.6363 12.2893 19.6363 12Z" fill="#F18F15"/>
</g>
<defs>
<clipPath id="clip0_16_3096">
<rect width="24" height="24" fill="white"/>
</clipPath>
</defs>
</svg>
