<svg width="24" height="24" viewBox="0 0 24 24" fill="none" xmlns="http://www.w3.org/2000/svg">
<g clip-path="url(#clip0_169_2119)">
<path d="M0 12.4C0.000827027 12.702 0.115755 12.9926 0.321751 13.2134C0.527747 13.4342 0.809591 13.5691 1.1108 13.5908L4.0576 14.4952L2.1924 17.9936C2.12576 18.1184 2.09251 18.2582 2.09588 18.3996C2.09925 18.541 2.13912 18.679 2.21162 18.8005C2.28412 18.9219 2.38679 19.0225 2.50965 19.0925C2.63251 19.1625 2.77139 19.1996 2.9128 19.2C3.05564 19.1991 3.19584 19.1615 3.32 19.0908L8.6584 16.0464C8.80022 15.968 8.92151 15.8571 9.0124 15.7228C9.13349 15.5462 9.19845 15.337 9.1988 15.1228V13.6H19.6C19.7576 13.6005 19.9138 13.5696 20.0594 13.5093C20.2051 13.4489 20.3373 13.3603 20.4484 13.2484L23.6484 10.0484C23.8734 9.82342 23.9997 9.51825 23.9997 9.20005C23.9997 8.88185 23.8734 8.57668 23.6484 8.35165L20.4484 5.15165C20.3372 5.03989 20.205 4.95128 20.0594 4.89093C19.9138 4.83058 19.7576 4.79969 19.6 4.80005H1.2C0.88174 4.80005 0.576515 4.92648 0.351472 5.15152C0.126428 5.37657 0 5.68179 0 6.00005L0 12.4ZM2.898 18.3716L4.8372 14.7344L7.7644 15.6324L2.898 18.3716ZM8.4 14.9908L3.8672 13.6H8.4V14.9908ZM0.8 6.00005C0.8 5.89396 0.842142 5.79222 0.917157 5.71721C0.992171 5.64219 1.09391 5.60005 1.2 5.60005H19.6C19.7061 5.60007 19.8078 5.64223 19.8828 5.71725L23.0828 8.91725C23.1578 8.99226 23.1999 9.09398 23.1999 9.20005C23.1999 9.30612 23.1578 9.40784 23.0828 9.48285L19.8828 12.6828C19.8078 12.7579 19.7061 12.8 19.6 12.8H1.2C1.09391 12.8 0.992171 12.7579 0.917157 12.6829C0.842142 12.6079 0.8 12.5061 0.8 12.4V6.00005Z" fill="#F18F15"/>
</g>
<defs>
<clipPath id="clip0_169_2119">
<rect width="24" height="24" fill="white"/>
</clipPath>
</defs>
</svg>
