<svg width="24" height="24" viewBox="0 0 24 24" fill="none" xmlns="http://www.w3.org/2000/svg">
<path d="M19.1081 3.93528C17.2151 2.04247 14.6986 1 12.0217 1C9.34479 1 6.82809 2.04247 4.93542 3.93528C3.04247 5.82809 2 8.34465 2 11.0216C2 13.247 2.74803 15.4229 4.11103 17.1741L2.74213 22.9532C2.70313 23.1176 2.76067 23.2897 2.89058 23.3977C2.97188 23.4652 3.07268 23.5 3.17444 23.5C3.23541 23.5 3.29694 23.4874 3.35475 23.4617L9.5137 20.7261C10.3305 20.9368 11.1733 21.0434 12.0217 21.0434C14.6986 21.0434 17.2151 20.0009 19.1081 18.1079C21.001 16.2153 22.0434 13.6984 22.0434 11.0216C22.0434 8.34465 21.0009 5.82809 19.1081 3.93528ZM12.0217 20.1544C11.1991 20.1544 10.3826 20.0446 9.59445 19.828C9.49544 19.8007 9.39011 19.8086 9.29631 19.8502L3.81343 22.2855L5.02564 17.169C5.05764 17.0346 5.02495 16.893 4.93775 16.7859C3.6165 15.164 2.8888 13.1168 2.8888 11.0216C2.8888 5.98574 6.98574 1.88866 12.0217 1.88866C17.0576 1.88866 21.1544 5.98574 21.1544 11.0216C21.1544 16.0576 17.0576 20.1544 12.0217 20.1544Z" fill="white"/>
<path d="M18.3419 10.9595C18.3419 7.47458 15.5066 4.63928 12.0217 4.63928C8.53684 4.63928 5.70154 7.47458 5.70154 10.9595C5.70154 14.4446 8.53684 17.2798 12.0217 17.2798C15.5066 17.2798 18.3419 14.4446 18.3419 10.9595ZM12.0217 16.3911C9.02669 16.3911 6.5902 13.9545 6.5902 10.9597C6.5902 7.96471 9.02669 5.52808 12.0217 5.52808C15.0165 5.52808 17.4531 7.96471 17.4531 10.9597C17.4531 13.9545 15.0165 16.3911 12.0217 16.3911Z" fill="white"/>
<path d="M18.9459 14.3074C18.7118 14.2324 18.4619 14.3611 18.387 14.5948C18.0121 15.7629 16.9673 16.5675 16.1568 17.0367C15.9445 17.1597 15.8718 17.4315 15.9947 17.6438C16.0771 17.7861 16.2263 17.8657 16.3798 17.8657C16.4553 17.8657 16.5318 17.8464 16.6019 17.8058C17.5478 17.2584 18.7718 16.3039 19.2331 14.8663C19.3081 14.6327 19.1795 14.3824 18.9459 14.3074Z" fill="white"/>
<path d="M15.0292 17.8711C14.8015 17.779 14.5425 17.8886 14.4504 18.116L14.4484 18.1207C14.3563 18.348 14.4657 18.6071 14.6933 18.6994C14.748 18.7216 14.8045 18.7321 14.8601 18.7321C15.0357 18.7321 15.2021 18.6273 15.2721 18.4547L15.2739 18.45C15.3662 18.2226 15.2566 17.9636 15.0292 17.8711Z" fill="white"/>
<path d="M12.0086 13.8114C11.7937 13.8114 11.6208 13.8883 11.4905 14.0416C11.36 14.1952 11.2949 14.3794 11.2949 14.5942C11.2949 14.8011 11.36 14.9836 11.4905 15.1407C11.6209 15.2981 11.7937 15.3768 12.0086 15.3768C12.2231 15.3768 12.4073 15.2981 12.561 15.1407C12.7142 14.9836 12.7911 14.8011 12.7911 14.5942C12.7911 14.3794 12.7142 14.1952 12.561 14.0416C12.4073 13.8883 12.2231 13.8114 12.0086 13.8114Z" fill="white"/>
<path d="M13.8729 7.40086C13.4431 7.03268 12.8677 6.84839 12.1465 6.84839C11.5019 6.84839 10.9878 6.99423 10.6043 7.28565C10.2205 7.57733 10.0289 7.88426 10.0289 8.20644C10.0289 8.38304 10.088 8.51928 10.2065 8.61499C10.325 8.71099 10.457 8.75891 10.6023 8.75891C10.7167 8.75891 10.818 8.71991 10.9059 8.6415C10.9939 8.56322 11.0685 8.47959 11.1298 8.3906C11.1909 8.30175 11.3055 8.21811 11.4739 8.1397C11.642 8.06142 11.8523 8.02228 12.1044 8.02228C12.4639 8.02228 12.7505 8.10756 12.9646 8.2784C13.1787 8.44896 13.2858 8.6897 13.2858 9.00075C13.2858 9.18271 13.2418 9.35918 13.1534 9.52974C13.0653 9.70044 12.9768 9.8294 12.8888 9.9166C12.8005 10.0038 12.6681 10.1233 12.4917 10.275L12.1579 10.5479C11.6976 10.9577 11.4675 11.5567 11.4675 12.3455C11.4675 12.5883 11.5076 12.7552 11.588 12.8461C11.6688 12.9373 11.8049 12.9828 11.9969 12.9828C12.3803 12.9828 12.5723 12.8446 12.5723 12.5684C12.5723 12.1772 12.6028 11.8778 12.6644 11.6706C12.7255 11.4636 12.8868 11.2564 13.1477 11.0492L13.3677 10.865L13.6691 10.5773C13.7311 10.516 13.8261 10.4066 13.9538 10.2492C14.0815 10.0921 14.1785 9.94997 14.2443 9.82349C14.3102 9.69687 14.372 9.54142 14.4299 9.35726C14.4882 9.17324 14.5173 8.98523 14.5173 8.79338C14.5173 8.23336 14.3026 7.76904 13.8729 7.40086Z" fill="white"/>
</svg>
