<svg width="512" height="512" viewBox="0 0 512 512" fill="none" xmlns="http://www.w3.org/2000/svg">
<path d="M256 77.6C244.861 77.5336 233.734 78.336 222.72 80L272 31.04L249.28 8.47998L155.84 101.92L249.28 195.36L272 172.64L213.76 114.56C250.328 105.782 288.721 108.614 323.605 122.664C358.488 136.713 388.128 161.281 408.404 192.953C428.68 224.625 438.585 261.827 436.743 299.389C434.9 336.95 421.401 373.004 398.122 402.539C374.843 432.074 342.94 453.623 306.849 464.19C270.758 474.757 232.271 473.818 196.739 461.502C161.206 449.187 130.393 426.107 108.583 395.472C86.7722 364.836 75.0481 328.166 75.04 290.56H43.04C43.04 332.679 55.5299 373.853 78.9303 408.874C102.331 443.895 135.59 471.191 174.504 487.309C213.417 503.428 256.236 507.645 297.546 499.428C338.857 491.211 376.802 470.928 406.585 441.145C436.368 411.362 456.651 373.417 464.868 332.106C473.085 290.796 468.868 247.977 452.749 209.064C436.631 170.15 409.335 136.891 374.314 113.49C339.293 90.0899 298.12 77.6 256 77.6V77.6Z" fill="black"/>
</svg>
