<svg width="24" height="25" viewBox="0 0 24 25" fill="none" xmlns="http://www.w3.org/2000/svg">
<path d="M23.6415 19.2351L14.3186 3.08848C13.5795 1.80811 11.9423 1.36926 10.662 2.10835C10.2549 2.34334 9.91683 2.6814 9.68184 3.08848L0.358937 19.2351C-0.380156 20.5157 0.058765 22.1529 1.33928 22.892C1.74607 23.1268 2.20752 23.2505 2.67729 23.2506H21.3231C22.8016 23.2504 24.0001 22.0517 24 20.5731C23.9999 20.1034 23.8763 19.642 23.6415 19.2351ZM22.7797 21.4144C22.4818 21.9374 21.9249 22.2589 21.3231 22.2554H2.67729C1.74835 22.2553 0.995391 21.5021 0.995533 20.5731C0.995604 20.2781 1.07322 19.9882 1.22072 19.7327L10.5436 3.58519C11.0079 2.78077 12.0364 2.50498 12.8409 2.96928C13.0967 3.11691 13.3091 3.32937 13.4568 3.58519L22.7797 19.7327C23.0836 20.252 23.0836 20.895 22.7797 21.4144Z" fill="#143360"/>
<path d="M12.0002 7.80252C11.0455 7.80359 10.2718 8.5773 10.2707 9.53205V14.579C10.2708 15.5342 11.0452 16.3085 12.0004 16.3084C12.9554 16.3084 13.7297 15.5341 13.7297 14.579V9.53205C13.7287 8.5773 12.955 7.80366 12.0002 7.80252ZM12.7346 14.579C12.7346 14.9846 12.4058 15.3134 12.0002 15.3134C11.5946 15.3134 11.2658 14.9846 11.2658 14.579V9.53205C11.2658 9.12646 11.5946 8.79765 12.0002 8.79765C12.4058 8.79765 12.7346 9.12646 12.7346 9.53205V14.579Z" fill="#143360"/>
<path d="M12.0002 17.0486C11.0449 17.0485 10.2702 17.8229 10.2701 18.7782C10.2699 19.7335 11.0443 20.5081 11.9996 20.5083C12.9549 20.5084 13.7296 19.7341 13.7297 18.7787C13.7297 18.7785 13.7297 18.7784 13.7297 18.7782C13.7286 17.8234 12.9549 17.0498 12.0002 17.0486ZM12.0002 19.5129C11.5945 19.513 11.2653 19.1842 11.2652 18.7785C11.2651 18.3727 11.5939 18.0436 11.9996 18.0435C12.4053 18.0433 12.7344 18.3722 12.7346 18.7779V18.7782C12.7344 19.1838 12.4058 19.5128 12.0002 19.5134V19.5129Z" fill="#143360"/>
</svg>
