<svg width="24" height="25" viewBox="0 0 24 25" fill="none" xmlns="http://www.w3.org/2000/svg">
<g clip-path="url(#clip0_324_474)">
<path d="M18.7669 0.5H5.20954C4.01474 0.5 3 1.46364 3 2.70954V22.7563C3.00352 24.3377 4.93502 25.0797 6.03311 23.9697L11.2008 18.8034C11.6149 18.3714 12.3615 18.3714 12.7756 18.8034L17.9433 23.9697C19.0419 25.0801 20.9732 24.337 20.9764 22.7563V2.70954C20.9764 1.46364 19.9617 0.5 18.7669 0.5V0.5ZM19.5701 22.7564C19.5683 23.0912 19.1522 23.2017 18.9368 22.9743C17.9038 21.9397 14.9577 18.9945 13.771 17.81C12.8375 16.8337 11.1403 16.8334 10.2072 17.8081C9.38752 18.6263 7.78296 20.2304 6.51807 21.4949L5.04654 22.9658C4.83451 23.1907 4.41312 23.1156 4.40632 22.7691V2.70954C4.40632 2.26035 4.77043 1.90637 5.20954 1.90637H18.7669C19.2053 1.90637 19.5701 2.25979 19.5701 2.70954V22.7564Z" fill="#143360"/>
</g>
<defs>
<clipPath id="clip0_324_474">
<rect width="24" height="24" fill="white" transform="translate(0 0.5)"/>
</clipPath>
</defs>
</svg>
