<svg width="512" height="512" viewBox="0 0 512 512" fill="none" xmlns="http://www.w3.org/2000/svg">
<path d="M475.312 452.688L359.168 336.54C384.632 306.008 400 266.776 400 224C400 126.952 321.048 48 224 48C126.952 48 48 126.952 48 224C48 321.048 126.952 400 224 400C266.776 400 306.008 384.632 336.54 359.168L452.688 475.316C455.812 478.44 459.908 480.004 464 480.004C468.092 480.004 472.188 478.44 475.312 475.316C481.564 469.064 481.564 458.936 475.312 452.688V452.688ZM80 224C80 144.6 144.592 80 224 80C303.408 80 368 144.6 368 224C368 303.4 303.408 368 224 368C144.592 368 80 303.4 80 224Z" fill="black"/>
</svg>
