<svg width="23" height="23" viewBox="0 0 23 23" fill="none" xmlns="http://www.w3.org/2000/svg">
<g clip-path="url(#clip0_39_4102)">
<path d="M11.1221 0.25873C10.6585 0.379709 10.2502 0.712292 10.0386 1.14561L9.91258 1.39769L9.8974 5.64119L9.88222 9.88469L5.63872 9.89987L1.39522 9.91505L1.14314 10.0411C0.820908 10.2021 0.518458 10.5043 0.362288 10.8219C0.185878 11.1899 0.185878 11.8247 0.362288 12.1826C0.518458 12.5051 0.820908 12.8075 1.14337 12.9637L1.39545 13.0897L5.63895 13.1049L9.88728 13.115L9.8974 17.3634L9.91258 21.6069L10.0386 21.859C10.1948 22.1816 10.4972 22.4839 10.8197 22.64C11.1826 22.8164 11.8174 22.8164 12.1804 22.64C12.5028 22.4839 12.8053 22.1814 12.9615 21.859L13.0875 21.6069L13.1027 17.3634L13.1128 13.115L17.3611 13.1049L21.6046 13.0897L21.8567 12.9637C22.1792 12.8075 22.4816 12.5051 22.6378 12.1826C22.8142 11.8197 22.8142 11.1849 22.6378 10.8219C22.4816 10.4995 22.1792 10.197 21.8567 10.0409L21.6046 9.91482L17.3611 9.89964L13.1128 9.88952L13.1027 5.64119L13.0875 1.39769L12.9615 1.14561C12.8002 0.823151 12.4978 0.5207 12.1804 0.369591C11.9083 0.243551 11.3942 0.18812 11.1221 0.25873Z" fill="#282828"/>
</g>
<defs>
<clipPath id="clip0_39_4102">
<rect width="23" height="23" fill="white"/>
</clipPath>
</defs>
</svg>
