<svg width="24" height="24" viewBox="0 0 24 24" fill="none" xmlns="http://www.w3.org/2000/svg">
<path d="M12 8.48438C10.0616 8.48438 8.48438 10.0616 8.48438 12C8.48438 13.9384 10.0616 15.5156 12 15.5156C13.9384 15.5156 15.5156 13.9384 15.5156 12C15.5156 10.0616 13.9384 8.48438 12 8.48438Z" fill="#F18F15"/>
<path d="M24 13.983V10.017L20.7465 9.37636C20.5687 8.78517 20.3325 8.21522 20.0385 7.67278L21.854 4.94953L19.0504 2.14594L16.3272 3.96141C15.7847 3.6675 15.2148 3.4313 14.6236 3.25345L13.983 0H10.017L9.37636 3.2535C8.78517 3.43134 8.21522 3.66755 7.67278 3.96145L4.94953 2.14594L2.14594 4.94953L3.96141 7.67278C3.6675 8.21522 3.4313 8.78513 3.25345 9.37636L0 10.017V13.983L3.2535 14.6236C3.43134 15.2148 3.66755 15.7848 3.96145 16.3272L2.14594 19.0505L4.94953 21.8541L7.67278 20.0386C8.21522 20.3325 8.78513 20.5687 9.37636 20.7465L10.017 24H13.983L14.6236 20.7465C15.2148 20.5687 15.7848 20.3325 16.3272 20.0385L19.0505 21.854L21.8541 19.0504L20.0386 16.3272C20.3325 15.7847 20.5687 15.2148 20.7465 14.6236L24 13.983ZM12 16.9219C9.28636 16.9219 7.07812 14.7136 7.07812 12C7.07812 9.28636 9.28636 7.07812 12 7.07812C14.7136 7.07812 16.9219 9.28636 16.9219 12C16.9219 14.7136 14.7136 16.9219 12 16.9219Z" fill="#F18F15"/>
</svg>
