<svg width="24" height="24" viewBox="0 0 24 24" fill="none" xmlns="http://www.w3.org/2000/svg">
<g clip-path="url(#clip0_16_2342)">
<path d="M19.5 6.99999C17.57 6.99999 16 5.42999 16 3.5C16 1.57 17.57 0 19.5 0C21.43 0 23 1.57 23 3.5C23 5.42999 21.43 6.99999 19.5 6.99999ZM19.5 0.999999C18.121 0.999999 17 2.122 17 3.5C17 4.878 18.121 5.99999 19.5 5.99999C20.879 5.99999 22 4.878 22 3.5C22 2.122 20.879 0.999999 19.5 0.999999Z" fill="#110101"/>
<path d="M19.5 24C17.57 24 16 22.43 16 20.5C16 18.57 17.57 17 19.5 17C21.43 17 23 18.57 23 20.5C23 22.43 21.43 24 19.5 24ZM19.5 18C18.121 18 17 19.122 17 20.5C17 21.878 18.121 23 19.5 23C20.879 23 22 21.878 22 20.5C22 19.122 20.879 18 19.5 18Z" fill="#110101"/>
<path d="M4.5 15.5C2.57 15.5 1 13.93 1 12C1 10.07 2.57 8.5 4.5 8.5C6.43 8.5 8 10.07 8 12C8 13.93 6.43 15.5 4.5 15.5ZM4.5 9.5C3.121 9.5 2 10.622 2 12C2 13.378 3.121 14.5 4.5 14.5C5.879 14.5 7 13.378 7 12C7 10.622 5.879 9.5 4.5 9.5Z" fill="#110101"/>
<path d="M16.8901 19.52C16.8061 19.52 16.7211 19.499 16.6441 19.455L6.8651 13.915C6.6251 13.779 6.5401 13.474 6.6771 13.233C6.8131 12.992 7.1201 12.908 7.3581 13.045L17.1371 18.585C17.3771 18.721 17.4621 19.026 17.3251 19.267C17.2321 19.429 17.0631 19.52 16.8901 19.52Z" fill="#110101"/>
<path d="M7.1099 11.02C6.9359 11.02 6.7669 10.929 6.6749 10.767C6.5379 10.527 6.6229 10.222 6.8629 10.085L16.6419 4.54499C16.8779 4.40999 17.1869 4.49299 17.3229 4.73299C17.4599 4.97299 17.3749 5.27799 17.1349 5.41499L7.3559 10.955C7.2789 10.999 7.1939 11.02 7.1099 11.02Z" fill="#110101"/>
</g>
<defs>
<clipPath id="clip0_16_2342">
<rect width="24" height="24" fill="white"/>
</clipPath>
</defs>
</svg>
