<svg width="24" height="24" viewBox="0 0 24 24" fill="none" xmlns="http://www.w3.org/2000/svg">
<path d="M15.1457 16.7646C15.0752 16.7646 15.0057 16.7474 14.9434 16.7145L12.0001 15.1668L9.05665 16.7145C8.98485 16.7522 8.90393 16.7691 8.82302 16.7633C8.74212 16.7575 8.66446 16.7291 8.59883 16.6814C8.53319 16.6338 8.48219 16.5687 8.4516 16.4936C8.42101 16.4185 8.41204 16.3363 8.42571 16.2563L8.98787 12.9785L6.60654 10.6572C6.54848 10.6006 6.50742 10.5289 6.48799 10.4502C6.46857 10.3714 6.47156 10.2888 6.49663 10.2117C6.5217 10.1346 6.56784 10.066 6.62985 10.0137C6.69185 9.96144 6.76725 9.92756 6.8475 9.9159L10.1385 9.43739L11.6101 6.45548C11.757 6.15827 12.2432 6.15827 12.3901 6.45548L13.8617 9.43739L17.1525 9.9159C17.2328 9.92756 17.3082 9.96144 17.3702 10.0137C17.4322 10.066 17.4783 10.1346 17.5034 10.2117C17.5285 10.2888 17.5315 10.3714 17.5121 10.4502C17.4926 10.5289 17.4516 10.6006 17.3935 10.6572L15.0122 12.9785L15.5743 16.2563C15.585 16.3187 15.5819 16.3827 15.5652 16.4438C15.5486 16.5049 15.5188 16.5616 15.478 16.61C15.4372 16.6583 15.3863 16.6973 15.3289 16.724C15.2715 16.7507 15.209 16.7645 15.1457 16.7646L15.1457 16.7646ZM7.84443 10.6496L9.7587 12.5157C9.80911 12.5649 9.84682 12.6256 9.8686 12.6926C9.89038 12.7596 9.89558 12.8309 9.88374 12.9004L9.43177 15.535L11.7978 14.2909C11.8601 14.2579 11.9296 14.2406 12.0001 14.2406C12.0707 14.2406 12.1401 14.2579 12.2024 14.2909L14.5683 15.535L14.1165 12.9004C14.1047 12.8309 14.1099 12.7596 14.1316 12.6926C14.1534 12.6256 14.1911 12.5649 14.2415 12.5157L16.1556 10.6496L13.5104 10.2649C13.4406 10.2548 13.3744 10.2279 13.3174 10.1864C13.2603 10.145 13.2142 10.0904 13.183 10.0272L12.0001 7.63034L10.8172 10.0272C10.786 10.0904 10.7399 10.1451 10.6829 10.1865C10.6258 10.2279 10.5596 10.2548 10.4898 10.265L7.84443 10.6496Z" fill="#F18F15"/>
<path d="M12.0002 19.8696C7.66088 19.8696 4.13062 16.3391 4.13062 11.9998C4.13062 7.66048 7.66088 4.13046 12.0002 4.13046C16.3395 4.13046 19.8698 7.66051 19.8698 11.9998C19.8698 16.3392 16.3395 19.8696 12.0002 19.8696ZM12.0002 5C10.6157 5 9.26233 5.41055 8.11118 6.17973C6.96002 6.94891 6.06281 8.04218 5.533 9.32128C5.00319 10.6004 4.86458 12.0079 5.1347 13.3657C5.40481 14.7236 6.07152 15.9709 7.05052 16.9499C8.02951 17.9288 9.27681 18.5955 10.6347 18.8656C11.9926 19.1356 13.4001 18.997 14.6791 18.4671C15.9582 17.9373 17.0515 17.04 17.8206 15.8889C18.5898 14.7377 19.0003 13.3843 19.0002 11.9998C18.9981 10.144 18.2598 8.36478 16.9475 7.05253C15.6353 5.74028 13.856 5.00214 12.0002 5.00003V5Z" fill="#F18F15"/>
<path d="M14.1676 23.0625C13.8973 23.0623 13.6316 22.9924 13.3961 22.8596L12.3438 22.2681C12.2388 22.2092 12.1205 22.1783 12.0001 22.1783C11.8797 22.1783 11.7614 22.2092 11.6564 22.2681L10.6034 22.8596C10.2637 23.0515 9.86465 23.1098 9.48426 23.0231C9.10387 22.9364 8.76948 22.7109 8.54646 22.3908L7.85353 21.4007C7.78376 21.3031 7.69053 21.2247 7.58244 21.1726C7.47435 21.1206 7.3549 21.0967 7.23511 21.103L6.02842 21.1773C5.63925 21.2032 5.25448 21.0826 4.94963 20.8393C4.64479 20.596 4.4419 20.2476 4.3808 19.8624L4.18612 18.6701C4.16712 18.5511 4.11759 18.439 4.04236 18.3448C3.96713 18.2506 3.86876 18.1775 3.75686 18.1326L2.63933 17.6791C2.27729 17.5333 1.9827 17.2577 1.81326 16.9061C1.64382 16.5545 1.61173 16.1523 1.72328 15.7782L2.06486 14.62C2.09843 14.5047 2.10205 14.3828 2.07537 14.2658C2.0487 14.1488 1.99262 14.0405 1.91243 13.9512L1.10125 13.0536C0.839287 12.7653 0.694131 12.3896 0.694092 12.0001C0.694053 11.6105 0.839133 11.2348 1.10104 10.9464L1.91264 10.0484C1.99277 9.95895 2.04881 9.8506 2.07548 9.73353C2.10215 9.61645 2.09857 9.49452 2.06507 9.37922L1.72328 8.22093C1.61183 7.84691 1.64396 7.44476 1.81339 7.09318C1.98282 6.7416 2.27735 6.4659 2.63933 6.32003L3.75792 5.86615C3.86914 5.82059 3.9669 5.74738 4.04191 5.65345C4.11692 5.55953 4.1667 5.44802 4.18655 5.32947L4.38143 4.13679C4.44243 3.75149 4.64533 3.40294 4.95023 3.15962C5.25514 2.9163 5.64003 2.79581 6.02925 2.82182L7.23594 2.89655C7.35589 2.90423 7.47579 2.88083 7.58405 2.82861C7.69231 2.7764 7.78526 2.69714 7.85393 2.59849L8.54669 1.6092C8.76959 1.28881 9.1041 1.0632 9.48466 0.976566C9.86523 0.889937 10.2644 0.948535 10.604 1.14088L11.6562 1.73191C11.7614 1.79039 11.8798 1.82107 12.0002 1.82107C12.1206 1.82107 12.239 1.79039 12.3442 1.73191L13.3966 1.14045C13.7362 0.948514 14.1352 0.890145 14.5156 0.976753C14.896 1.06336 15.2304 1.28872 15.4535 1.60877L16.1467 2.59893C16.2157 2.69715 16.3087 2.77606 16.4168 2.82816C16.525 2.88026 16.6446 2.90381 16.7644 2.89657L17.9716 2.82227C18.3603 2.79826 18.7442 2.9195 19.0486 3.16247C19.353 3.40544 19.5564 3.75282 19.6192 4.13723L19.8141 5.32991C19.8339 5.44852 19.8836 5.56011 19.9586 5.6541C20.0336 5.7481 20.1314 5.82138 20.2427 5.86701L21.3606 6.32047C21.7228 6.46627 22.0174 6.74202 22.1869 7.09371C22.3564 7.4454 22.3885 7.84769 22.2769 8.22179L21.9353 9.37966C21.9017 9.49487 21.898 9.61675 21.9247 9.73376C21.9513 9.85078 22.0073 9.95907 22.0875 10.0484L22.8987 10.946C23.1606 11.2344 23.3057 11.61 23.3058 11.9996C23.3058 12.3891 23.1607 12.7648 22.8989 13.0532L22.0877 13.9512C22.0075 14.0406 21.9514 14.1489 21.9247 14.266C21.8979 14.3831 21.9015 14.5051 21.9351 14.6204L22.2767 15.7787C22.3883 16.1527 22.3562 16.5549 22.1868 16.9065C22.0173 17.2581 21.7227 17.5338 21.3606 17.6796L20.2423 18.1334C20.1309 18.179 20.0331 18.2523 19.9581 18.3463C19.883 18.4403 19.8332 18.5519 19.8134 18.6706L19.6187 19.8628C19.5563 20.2475 19.3531 20.5952 19.0484 20.8383C18.7438 21.0813 18.3596 21.2023 17.9707 21.1778L16.7644 21.1035C16.6444 21.0959 16.5245 21.1194 16.4161 21.1716C16.3078 21.2238 16.2147 21.303 16.1458 21.4015L15.4535 22.3904C15.3092 22.5978 15.1169 22.7672 14.893 22.8843C14.6691 23.0013 14.4203 23.0625 14.1676 23.0625ZM12.0001 21.3098C12.2696 21.3094 12.5348 21.3783 12.7701 21.5098L13.8222 22.1012C13.9739 22.1873 14.1522 22.2135 14.3222 22.1748C14.4922 22.1361 14.6416 22.0352 14.741 21.8919L15.4335 20.9026C15.5889 20.6832 15.7974 20.5068 16.0396 20.3901C16.2818 20.2735 16.5497 20.2203 16.8181 20.2356L18.0244 20.3099C18.1983 20.3216 18.3703 20.2679 18.5065 20.1592C18.6427 20.0505 18.7334 19.8948 18.7606 19.7227L18.9553 18.5304C18.9996 18.2648 19.1111 18.0148 19.2791 17.8043C19.4471 17.5938 19.6661 17.4297 19.9153 17.3276L21.0335 16.8737C21.1952 16.8086 21.3268 16.6855 21.4025 16.5286C21.4782 16.3716 21.4926 16.192 21.4428 16.0249L21.1012 14.8666C21.026 14.6085 21.0179 14.3354 21.0776 14.0732C21.1373 13.811 21.263 13.5684 21.4426 13.3683L22.2535 12.4706L22.2538 12.4702C22.3707 12.3413 22.4354 12.1735 22.4354 11.9995C22.4354 11.8255 22.3705 11.6577 22.2535 11.5289L21.4426 10.6318C21.263 10.4316 21.1374 10.189 21.0777 9.92682C21.018 9.66463 21.0262 9.39155 21.1014 9.1334L21.443 7.97553C21.4928 7.80841 21.4785 7.62871 21.4027 7.47163C21.327 7.31455 21.1953 7.19142 21.0335 7.12635L19.9157 6.67289C19.6665 6.57078 19.4475 6.40668 19.2796 6.19616C19.1116 5.98564 19.0002 5.73569 18.956 5.47002L18.7611 4.27734C18.7323 4.10601 18.6413 3.95133 18.5055 3.84296C18.3697 3.7346 18.1987 3.68017 18.0253 3.69013L16.8181 3.76444C16.5498 3.78077 16.2817 3.72808 16.0394 3.61139C15.7972 3.4947 15.5889 3.3179 15.4344 3.09785L14.7412 2.10767C14.6415 1.96485 14.4922 1.86428 14.3224 1.82558C14.1525 1.78688 13.9744 1.81282 13.8226 1.89835L12.7699 2.49024C12.5345 2.62138 12.2696 2.69022 12.0002 2.69022C11.7308 2.69022 11.4658 2.62138 11.2305 2.49024L10.1779 1.89877C10.0262 1.81288 9.8479 1.78673 9.6779 1.82545C9.5079 1.86417 9.35849 1.96496 9.25893 2.10809L8.56642 3.09697C8.41219 3.31742 8.20394 3.49456 7.96161 3.61144C7.71928 3.72831 7.45099 3.78099 7.18246 3.76443L5.97535 3.6897C5.80193 3.67985 5.63097 3.73432 5.4952 3.84267C5.35944 3.95101 5.26841 4.10563 5.23953 4.27691L5.04464 5.46958C5.00034 5.73517 4.88892 5.98504 4.72095 6.19548C4.55298 6.40592 4.33402 6.56996 4.08486 6.67203L2.96648 7.12592C2.8048 7.19111 2.67324 7.31428 2.59754 7.47132C2.52185 7.62837 2.50746 7.808 2.55718 7.9751L2.89897 9.13296C2.97412 9.39112 2.98223 9.66417 2.92254 9.92634C2.86285 10.1885 2.73732 10.4311 2.55782 10.6313L1.7462 11.5293C1.6293 11.6581 1.56453 11.8259 1.56453 11.9998C1.56453 12.1737 1.6293 12.3414 1.7462 12.4702L2.55739 13.3678C2.73701 13.5679 2.86262 13.8106 2.92236 14.0727C2.98209 14.3349 2.97397 14.608 2.89876 14.8662L2.55718 16.0245C2.5074 16.1915 2.52178 16.3711 2.59749 16.5281C2.67319 16.6851 2.80478 16.8082 2.96648 16.8733L4.0842 17.3267C4.3334 17.429 4.55237 17.5932 4.72037 17.8038C4.88836 18.0143 4.99983 18.2643 5.0442 18.53L5.23888 19.7223C5.26712 19.8938 5.35798 20.0489 5.4939 20.1573C5.62982 20.2658 5.80112 20.32 5.97469 20.3095L7.18181 20.2352C7.45032 20.2181 7.71871 20.2704 7.96111 20.3872C8.20351 20.5039 8.41175 20.6812 8.56576 20.9018L9.2587 21.8919C9.35814 22.0351 9.50753 22.136 9.67752 22.1747C9.84751 22.2135 10.0258 22.1873 10.1775 22.1012L11.2303 21.5098C11.4655 21.3783 11.7306 21.3094 12.0001 21.3098Z" fill="#F18F15"/>
</svg>
