<svg width="25" height="24" viewBox="0 0 25 24" fill="none" xmlns="http://www.w3.org/2000/svg">
<g clip-path="url(#clip0_294_123)">
<path d="M9.78572 3.42857V9.28572H3.92857C3.28447 9.28572 2.66676 9.02985 2.21131 8.5744C1.75587 8.11896 1.5 7.50124 1.5 6.85714V1H7.35714C8.00124 1 8.61896 1.25587 9.0744 1.71131C9.52985 2.16676 9.78572 2.78447 9.78572 3.42857ZM17.6429 1H23.5V6.85714C23.5 7.50124 23.2441 8.11896 22.7887 8.5744C22.3332 9.02985 21.7155 9.28572 21.0714 9.28572H15.2143V3.42857C15.2143 2.78447 15.4702 2.16676 15.9256 1.71131C16.381 1.25587 16.9988 1 17.6429 1ZM15.2143 20.5714V14.7143H21.0714C21.7155 14.7143 22.3332 14.9702 22.7887 15.4256C23.2441 15.881 23.5 16.4988 23.5 17.1429V23H17.6429C16.9988 23 16.381 22.7441 15.9256 22.2887C15.4702 21.8332 15.2143 21.2155 15.2143 20.5714ZM3.92857 14.7143H9.78572V20.5714C9.78572 21.2155 9.52985 21.8332 9.0744 22.2887C8.61896 22.7441 8.00124 23 7.35714 23H1.5V17.1429C1.5 16.4988 1.75587 15.881 2.21131 15.4256C2.66676 14.9702 3.28447 14.7143 3.92857 14.7143Z" fill="white" stroke="#777777" stroke-width="2"/>
</g>
<rect x="1" y="0.5" width="23" height="23" stroke="black"/>
<defs>
<clipPath id="clip0_294_123">
<rect x="0.5" width="24" height="24" fill="white"/>
</clipPath>
</defs>
</svg>
