<svg width="24" height="25" viewBox="0 0 24 25" fill="none" xmlns="http://www.w3.org/2000/svg">
<g clip-path="url(#clip0_169_2386)">
<path d="M22.6346 15.9191C22.1411 15.5751 21.5579 15.448 21.0433 15.3359C20.853 15.2922 20.6648 15.4152 20.6235 15.6055C20.5818 15.7957 20.7024 15.9839 20.893 16.0253C21.3649 16.1283 21.8529 16.2348 22.2314 16.4982C22.5236 16.7019 22.8008 17.0927 22.7177 17.4698C22.5984 18.0119 21.8226 18.2529 21.3704 18.3483C19.779 18.6847 18.1012 18.6696 16.4802 18.6561C15.5424 18.6482 14.5721 18.6399 13.6174 18.6978C12.9115 18.7409 12.1739 18.8354 11.5638 19.231C10.9341 19.6391 10.4275 20.5132 10.7287 21.3297C10.787 21.4872 10.8669 21.6227 10.9445 21.754C11.0434 21.9222 11.1289 22.0673 11.1334 22.2011C11.1392 22.3799 10.9865 22.554 10.8328 22.6471C10.6219 22.7746 10.3506 22.8263 10.0673 22.8728C7.24029 23.3364 4.09301 23.415 1.36896 23.0955C1.50254 22.4042 1.75253 21.6505 2.12684 20.8065C2.7175 20.7931 3.3675 20.716 4.06685 20.5723C6.11038 20.1629 8.15744 19.2453 9.98216 17.9182C10.6492 17.4382 11.3022 16.9335 11.9233 16.4147C11.9798 16.3688 12.001 16.2911 11.9798 16.2206C11.9551 16.1535 11.8916 16.1041 11.8174 16.1006C11.2033 16.0794 10.3492 15.9558 9.47743 15.557C10.4727 15.5747 12.241 15.4688 13.808 14.7311C13.8257 14.7241 13.8398 14.7135 13.8539 14.6994C14.9339 13.6723 15.9398 12.5782 16.8468 11.4488C16.8892 11.3994 16.8963 11.3253 16.868 11.2653C16.8398 11.2053 16.7798 11.1629 16.7127 11.1629C16.148 11.1558 15.121 11.057 14.0763 10.5347C15.0292 10.4676 16.8963 10.277 18.0539 9.80408C18.0857 9.7935 18.1104 9.77232 18.1316 9.74408C19.3174 8.04997 20.2951 6.29584 21.0433 4.53113C21.0645 4.48174 21.061 4.42526 21.0363 4.37584C21.008 4.32996 20.9657 4.2982 20.9127 4.2876C20.2986 4.17466 19.681 4.15702 19.2222 4.17115C19.9986 3.77585 20.7539 3.64525 21.301 3.60996C21.368 3.6029 21.428 3.56055 21.4527 3.49348C21.9363 2.19466 22.0916 1.41468 22.0951 1.3829C22.1127 1.2982 22.0669 1.21703 21.9892 1.18526C21.8904 1.14644 19.5327 0.225244 15.8551 1.27349C15.8198 1.28407 15.7916 1.30173 15.7704 1.32995C15.0539 2.16642 14.5457 3.27819 14.2633 4.00172C14.2316 3.36643 14.2916 2.70996 14.4433 2.04996C14.461 1.98644 14.4363 1.91938 14.3869 1.87703C14.3374 1.83468 14.2668 1.82408 14.2069 1.84878C12.8727 2.40291 11.5421 3.16525 10.2504 4.11466C10.2292 4.12879 10.2151 4.14997 10.201 4.17114C9.59038 5.25114 9.40333 6.75465 9.34685 7.66171C9.09981 7.00525 8.95509 6.29583 8.91274 5.54406C8.9092 5.47701 8.86685 5.41701 8.80686 5.3923C8.74333 5.36408 8.67274 5.37819 8.61979 5.42055C7.85391 6.08761 7.0739 6.84995 6.29745 7.68289C6.28685 7.69349 6.27978 7.70407 6.27274 7.7182C5.65509 8.7982 5.47155 10.3158 5.41509 11.2229C5.22449 10.7182 5.09391 10.1782 5.02331 9.61349C5.01627 9.5429 4.96685 9.4829 4.89979 9.46526C4.8292 9.44759 4.75861 9.46877 4.71272 9.52172C3.84097 10.5982 2.97272 11.7806 2.13272 13.0476C1.31038 14.2758 0.791545 15.61 0.625673 16.9017C0.442136 18.3311 0.682133 19.3194 0.953905 19.9335C5.70097 9.65231 13.9033 6.61349 13.9845 6.58525C14.168 6.51819 14.3692 6.61349 14.4363 6.79702C14.5033 6.98054 14.408 7.18172 14.2245 7.24878C14.1433 7.27702 6.19507 10.2347 1.58213 20.2582C1.5186 20.3994 1.4586 20.5406 1.40566 20.6747C1.40766 20.6768 1.40942 20.6787 1.41136 20.6808C0.985888 21.668 0.723575 22.5437 0.610934 23.3519C0.58405 23.5449 0.718472 23.7231 0.911831 23.75C0.912649 23.7501 0.913447 23.7501 0.914266 23.7502L0.914252 23.7503C2.14713 23.9137 3.47342 23.9947 4.82521 23.9947C6.61991 23.9947 8.45941 23.8517 10.1814 23.5694C10.5212 23.5139 10.8793 23.4436 11.1981 23.2509C11.6069 23.0034 11.8523 22.5923 11.8385 22.178C11.8285 21.864 11.6817 21.6151 11.5525 21.3956C11.488 21.2863 11.4274 21.1832 11.3912 21.085C11.223 20.6301 11.5421 20.0862 11.9478 19.8232C12.4448 19.5013 13.0924 19.4372 13.6605 19.4023C14.5907 19.3458 15.5482 19.3541 16.4743 19.362C18.1336 19.3761 19.85 19.391 21.5162 19.0391C22.5995 18.8105 23.2533 18.3201 23.407 17.6214C23.5607 16.9238 23.1299 16.2638 22.6346 15.9191Z" fill="#F18F15"/>
</g>
<defs>
<clipPath id="clip0_169_2386">
<rect width="24" height="24" fill="white" transform="translate(0 0.384399)"/>
</clipPath>
</defs>
</svg>
