<svg width="24" height="24" viewBox="0 0 24 24" fill="none" xmlns="http://www.w3.org/2000/svg">
<path d="M9.14974 11.1111H3.97283C3.84801 11.1111 3.7283 11.0643 3.64004 10.9809C3.55178 10.8976 3.5022 10.7845 3.5022 10.6667C3.5022 10.5488 3.55178 10.4358 3.64004 10.3524C3.7283 10.2691 3.84801 10.2222 3.97283 10.2222H9.14974C9.27456 10.2222 9.39427 10.2691 9.48253 10.3524C9.57079 10.4358 9.62037 10.5488 9.62037 10.6667C9.62037 10.7845 9.57079 10.8976 9.48253 10.9809C9.39427 11.0643 9.27456 11.1111 9.14974 11.1111Z" fill="#110101"/>
<path d="M3.97283 8H16.2092C16.334 8 16.4537 8.04682 16.542 8.13017C16.6302 8.21352 16.6798 8.32657 16.6798 8.44444C16.6798 8.56232 16.6302 8.67536 16.542 8.75871C16.4537 8.84206 16.334 8.88889 16.2092 8.88889H3.97283C3.84801 8.88889 3.7283 8.84206 3.64004 8.75871C3.55178 8.67536 3.5022 8.56232 3.5022 8.44444C3.5022 8.32657 3.55178 8.21352 3.64004 8.13017C3.7283 8.04682 3.84801 8 3.97283 8Z" fill="#110101"/>
<path d="M3.97283 5.77777H16.2092C16.334 5.77777 16.4537 5.8246 16.542 5.90795C16.6302 5.99129 16.6798 6.10434 16.6798 6.22222C16.6798 6.34009 16.6302 6.45314 16.542 6.53649C16.4537 6.61983 16.334 6.66666 16.2092 6.66666H3.97283C3.84801 6.66666 3.7283 6.61983 3.64004 6.53649C3.55178 6.45314 3.5022 6.34009 3.5022 6.22222C3.5022 6.10434 3.55178 5.99129 3.64004 5.90795C3.7283 5.8246 3.84801 5.77777 3.97283 5.77777Z" fill="#110101"/>
<path d="M3.97283 3.55554H16.2092C16.334 3.55554 16.4537 3.60237 16.542 3.68572C16.6302 3.76907 16.6798 3.88211 16.6798 3.99999C16.6798 4.11786 16.6302 4.23091 16.542 4.31426C16.4537 4.39761 16.334 4.44443 16.2092 4.44443H3.97283C3.84801 4.44443 3.7283 4.39761 3.64004 4.31426C3.55178 4.23091 3.5022 4.11786 3.5022 3.99999C3.5022 3.88211 3.55178 3.76907 3.64004 3.68572C3.7283 3.60237 3.84801 3.55554 3.97283 3.55554Z" fill="#110101"/>
<path d="M23.1933 10.6711L22.8732 10.9778L22.5344 10.6578L22.8309 10.3778C23.2239 10.0079 23.4543 9.51127 23.4759 8.98762C23.4974 8.46397 23.3085 7.952 22.947 7.5544C22.5856 7.15679 22.0783 6.90297 21.5269 6.84383C20.9755 6.7847 20.4209 6.92463 19.9742 7.23556V1.33333C19.9731 0.980036 19.8239 0.64151 19.5594 0.39169C19.2949 0.14187 18.9364 0.00105515 18.5623 0H1.61965C1.24554 0.00105515 0.887068 0.14187 0.62253 0.39169C0.357992 0.64151 0.208881 0.980036 0.207764 1.33333V22.6667C0.208881 23.02 0.357992 23.3585 0.62253 23.6083C0.887068 23.8581 1.24554 23.9989 1.61965 24H18.5623C18.9364 23.9989 19.2949 23.8581 19.5594 23.6083C19.8239 23.3585 19.9731 23.02 19.9742 22.6667V14.9733L23.8616 11.3022C23.9502 11.2185 24 11.105 24 10.9867C24 10.8683 23.9502 10.7548 23.8616 10.6711C23.7729 10.5874 23.6528 10.5404 23.5274 10.5404C23.4021 10.5404 23.2819 10.5874 23.1933 10.6711ZM19.0329 14.6044L18.4823 15.1244C18.4023 15.1991 18.3534 15.2985 18.3448 15.4044C18.3361 15.5104 18.3682 15.6157 18.4351 15.701C18.5021 15.7864 18.5994 15.8461 18.7092 15.8692C18.819 15.8923 18.934 15.8772 19.0329 15.8267V22.6667C19.0329 22.7845 18.9833 22.8976 18.8951 22.9809C18.8068 23.0643 18.6871 23.1111 18.5623 23.1111H1.61965C1.49483 23.1111 1.37513 23.0643 1.28687 22.9809C1.19861 22.8976 1.14902 22.7845 1.14902 22.6667V1.33333C1.14902 1.21546 1.19861 1.10241 1.28687 1.01906C1.37513 0.935714 1.49483 0.888889 1.61965 0.888889H18.5623C18.6871 0.888889 18.8068 0.935714 18.8951 1.01906C18.9833 1.10241 19.0329 1.21546 19.0329 1.33333V8.08889C17.0563 9.95556 10.2227 16.4089 10.218 16.4178C10.0849 16.5436 9.98837 16.608 9.95449 16.7778C9.94319 16.8222 9.31443 19.5271 9.31443 19.5733L8.8391 20.0222C8.75048 20.1059 8.70069 20.2194 8.70069 20.3378C8.70069 20.4561 8.75048 20.5696 8.8391 20.6533C8.92772 20.737 9.04791 20.784 9.17324 20.784C9.29857 20.784 9.41877 20.737 9.50739 20.6533L9.98743 20.2C10.0604 20.2 12.8738 19.6156 12.943 19.6C13.1571 19.5524 13.1741 19.5018 13.3289 19.3556L19.0329 13.9644V14.6044ZM10.6322 17.5378L12.1382 18.96C10.5823 19.2858 11.4737 19.1009 10.2133 19.3556C10.4736 18.2058 10.3733 18.6404 10.6322 17.5378ZM13.023 18.3911L11.2393 16.7067C11.3852 16.5618 18.0258 10.2929 18.1764 10.1511L19.9601 11.8356C19.6984 12.0813 13.2442 18.1711 13.023 18.3911ZM19.9742 13.7156V13.0756C21.5555 11.5822 21.1418 11.972 21.8708 11.2889L22.2097 11.6044L19.9742 13.7156ZM22.1626 9.75111C21.3738 10.496 21.7183 10.1698 20.6283 11.2044H20.6236L18.8494 9.52444C19.1228 9.26 18.8569 9.51244 20.3836 8.07111C20.6203 7.85203 20.939 7.73003 21.2705 7.73161C21.6019 7.73319 21.9193 7.85823 22.1537 8.07955C22.388 8.30088 22.5204 8.6006 22.5221 8.9136C22.5238 9.22659 22.3946 9.52756 22.1626 9.75111Z" fill="#110101"/>
</svg>
