<svg width="24" height="24" viewBox="0 0 24 24" fill="none" xmlns="http://www.w3.org/2000/svg">
<g clip-path="url(#clip0_594_2421)">
<path d="M12.046 1.87538C11.7868 1.8735 11.5754 2.0821 11.5735 2.34085C11.5716 2.5996 11.7797 2.811 12.039 2.81288C12.2977 2.81475 12.5091 2.60663 12.511 2.34788C12.5129 2.08913 12.3047 1.87772 12.046 1.87538Z" fill="#F18F15"/>
<path d="M12.0247 4.68783C10.2148 4.67498 8.73253 6.13509 8.71884 7.94442C8.7052 9.75366 10.1661 11.2366 11.9754 11.2502C11.9838 11.2503 11.9922 11.2503 12.0006 11.2503C13.7984 11.2503 15.2677 9.79458 15.2812 7.99364C15.2949 6.1845 13.834 4.70147 12.0247 4.68783ZM12.0005 10.3129C11.9946 10.3129 11.9884 10.3128 11.9825 10.3128C10.6901 10.303 9.64655 9.24375 9.6563 7.95145C9.666 6.66497 10.7154 5.62519 11.9996 5.62519C12.0055 5.62519 12.0117 5.62523 12.0176 5.62528C13.31 5.63503 14.3535 6.69431 14.3438 7.98661C14.334 9.27309 13.2847 10.3129 12.0005 10.3129Z" fill="#F18F15"/>
<path d="M14.0452 2.23087C13.8013 2.14434 13.5333 2.27208 13.4467 2.51611C13.3602 2.76014 13.488 3.02803 13.732 3.11456C15.7967 3.84633 17.1727 5.81278 17.1562 8.0078C17.1543 8.26664 17.3625 8.47809 17.6214 8.48006C17.6226 8.48006 17.6238 8.48006 17.625 8.48006C17.8822 8.48006 18.0917 8.2725 18.0937 8.01483C18.1132 5.42044 16.4862 3.09605 14.0452 2.23087Z" fill="#F18F15"/>
<path d="M14.876 17.6458C17.9938 13.6326 19.9423 11.5399 19.9686 8.02878C20.0016 3.61114 16.4165 0.00012207 11.9992 0.00012207C7.63343 0.00012207 4.06446 3.53581 4.03127 7.90925C4.00446 11.5156 5.9891 13.6055 9.12841 17.6452C6.00537 18.1119 4.03127 19.2845 4.03127 20.7189C4.03127 21.6797 4.91937 22.5418 6.53201 23.1465C7.99981 23.6969 9.9417 24.0001 11.9999 24.0001C14.0582 24.0001 16.0001 23.6969 17.4679 23.1465C19.0805 22.5418 19.9686 21.6796 19.9686 20.7188C19.9686 19.2853 17.9963 18.1129 14.876 17.6458ZM4.96873 7.91633C4.99798 4.05715 8.14681 0.937622 11.9993 0.937622C15.8974 0.937622 19.0602 4.12456 19.0311 8.02179C19.0062 11.3562 16.9399 13.4111 13.6409 17.7115C13.0525 18.4782 12.5121 19.2031 12.0006 19.9122C11.4906 19.2027 10.961 18.4908 10.3638 17.7112C6.92852 13.2307 4.94332 11.3312 4.96873 7.91633ZM11.9999 23.0626C7.97566 23.0626 4.96873 21.8253 4.96873 20.7189C4.96873 19.8984 6.76629 18.8619 9.7887 18.5029C10.4568 19.3796 11.0426 20.176 11.6171 20.9893C11.7048 21.1136 11.8474 21.1875 11.9995 21.1876C11.9996 21.1876 11.9998 21.1876 11.9999 21.1876C12.1519 21.1876 12.2944 21.1139 12.3823 20.99C12.9514 20.1872 13.5532 19.3711 14.2156 18.5035C17.2352 18.8628 19.0311 19.8989 19.0311 20.7189C19.0311 21.8253 16.0242 23.0626 11.9999 23.0626Z" fill="#F18F15"/>
</g>
<defs>
<clipPath id="clip0_594_2421">
<rect width="24" height="24" fill="white"/>
</clipPath>
</defs>
</svg>
