<svg width="24" height="24" viewBox="0 0 24 24" fill="none" xmlns="http://www.w3.org/2000/svg">
<path d="M21.1743 11.1216C20.3577 10.7133 18.8265 10.7086 18.7617 10.7086C18.5676 10.7086 18.4102 10.866 18.4102 11.0601C18.4102 11.2543 18.5676 11.4117 18.7617 11.4117C19.1568 11.4117 20.304 11.4726 20.8599 11.7505C20.9104 11.7758 20.964 11.7877 21.0168 11.7877C21.1458 11.7877 21.27 11.7164 21.3315 11.5933C21.4184 11.4196 21.348 11.2084 21.1743 11.1216Z" fill="#F18F15"/>
<path d="M22.9271 16.1269L21.4752 15.7121C21.4125 15.6942 21.3687 15.6362 21.3687 15.571V15.0863C21.4868 15.0045 21.5995 14.9129 21.7049 14.8106C22.2153 14.3153 22.4964 13.6508 22.4964 12.9396V12.2709L22.6368 11.9901C22.7909 11.6819 22.8723 11.3369 22.8723 10.9923V9.18063C22.8723 8.98647 22.7149 8.82907 22.5208 8.82907H19.1377C17.9075 8.82907 16.9066 9.82994 16.9066 11.0601V11.0811C16.9066 11.3676 16.9743 11.6545 17.1024 11.9107L17.2825 12.2708V12.845C17.2825 13.7551 17.7309 14.5716 18.4102 15.0629L18.4103 15.5709C18.4103 15.6492 18.4103 15.6816 18.12 15.7646L17.4115 15.967L15.3621 15.2218C15.3695 15.1251 15.3368 15.0267 15.2663 14.9526L14.6114 14.2646V13.1096C14.6806 13.0526 14.7489 12.994 14.815 12.932C15.6412 12.1576 16.115 11.0643 16.115 9.93241V9.01C16.3645 8.46714 16.4909 7.89269 16.4909 7.30108V3.54218C16.4909 3.34802 16.3335 3.19061 16.1393 3.19061H10.8767C9.0247 3.19061 7.518 4.69736 7.518 6.54935V7.30118C7.518 7.89278 7.64442 8.46724 7.89389 9.0101V9.80374C7.89389 11.1179 8.47823 12.3019 9.3975 13.0825V14.2646L8.74261 14.9527C8.67206 15.0268 8.63944 15.1251 8.6468 15.2218L6.48375 16.0083C6.327 16.0653 6.18136 16.1426 6.04913 16.2361L5.70947 16.0662C6.72056 15.6261 7.04086 15.0071 7.05623 14.9764C7.10573 14.8774 7.10573 14.7609 7.05623 14.662C6.80278 14.1551 6.77208 13.2259 6.74742 12.4794C6.73922 12.2309 6.73144 11.9961 6.71658 11.787C6.59672 10.1007 5.31478 8.82907 3.73462 8.82907C2.15447 8.82907 0.872484 10.1007 0.752672 11.787C0.737812 11.9961 0.730031 12.2309 0.721828 12.4795C0.697172 13.226 0.666422 14.155 0.413016 14.6619C0.363516 14.7609 0.363516 14.8774 0.413016 14.9763C0.428391 15.0071 0.748031 15.6248 1.76114 16.0654L0.817688 16.5371C0.313313 16.7895 0 17.2965 0 17.8603V20.4576C0 20.6518 0.157406 20.8092 0.351562 20.8092C0.545719 20.8092 0.703125 20.6518 0.703125 20.4576V17.8603C0.703125 17.5645 0.867516 17.2984 1.13213 17.1661L2.30695 16.5787L2.71561 16.9671C3.00136 17.2386 3.36792 17.3743 3.73462 17.3743C4.10123 17.3743 4.46798 17.2385 4.75364 16.9671L5.16225 16.5788L5.54531 16.7703C5.36494 17.0589 5.26256 17.3973 5.26256 17.7519V20.4577C5.26256 20.6519 5.41997 20.8093 5.61412 20.8093C5.80828 20.8093 5.96569 20.6519 5.96569 20.4577V17.7519C5.96569 17.2692 6.27042 16.8341 6.72403 16.6692L9.00459 15.8399L9.95395 17.264C10.0753 17.4461 10.2698 17.5629 10.4875 17.5844C10.5118 17.5868 10.536 17.588 10.56 17.588C10.7521 17.588 10.9361 17.5124 11.0737 17.3749L11.6528 16.7957V20.4578C11.6528 20.6519 11.8102 20.8093 12.0044 20.8093C12.1986 20.8093 12.356 20.6519 12.356 20.4578V16.7957L12.9352 17.3749C13.0726 17.5124 13.2566 17.588 13.4488 17.588C13.4728 17.588 13.497 17.5869 13.5212 17.5845C13.739 17.5629 13.9335 17.4461 14.0549 17.2641L15.0043 15.84L17.2848 16.6693C17.7383 16.8342 18.0431 17.2693 18.0431 17.752V20.4578C18.0431 20.652 18.2005 20.8094 18.3947 20.8094C18.5888 20.8094 18.7463 20.652 18.7463 20.4578V17.752C18.7463 17.2631 18.552 16.8047 18.2263 16.4657L18.3131 16.4409C18.4007 16.4158 18.5203 16.3816 18.6403 16.3227L19.5379 17.2203V20.4578C19.5379 20.652 19.6953 20.8094 19.8894 20.8094C20.0836 20.8094 20.241 20.652 20.241 20.4578V17.2203L21.1324 16.329C21.1798 16.3531 21.2295 16.3734 21.282 16.3884L22.734 16.8032C23.0654 16.8979 23.2969 17.2048 23.2969 17.5495V20.4578C23.2969 20.652 23.4543 20.8094 23.6484 20.8094C23.8426 20.8094 24 20.652 24 20.4578V17.5495C24 16.8924 23.5588 16.3075 22.9271 16.1269ZM2.25539 15.506C1.59778 15.2694 1.26792 14.9539 1.12711 14.7816C1.22311 14.5307 1.28536 14.2432 1.3275 13.9398C1.52137 14.4047 1.84608 14.8015 2.25539 15.0846V15.506ZM4.26937 16.4575C3.96952 16.7424 3.49978 16.7423 3.20002 16.4574L2.87306 16.1467C2.92823 16.0434 2.95856 15.9262 2.95856 15.8034V15.4287C3.20381 15.5053 3.46453 15.5467 3.73472 15.5467C4.00458 15.5467 4.26516 15.5051 4.51083 15.4289L4.51078 15.8034C4.51078 15.9262 4.54106 16.0434 4.59628 16.1468L4.26937 16.4575ZM3.73481 14.8435C2.685 14.8435 1.83098 13.9895 1.83098 12.9397C1.83098 12.7456 1.67358 12.5882 1.47942 12.5882C1.45973 12.5882 1.44052 12.5902 1.42172 12.5933C1.42275 12.5631 1.42373 12.5328 1.42477 12.5028C1.43259 12.2611 1.44014 12.0328 1.45406 11.8369C1.49897 11.2053 1.75139 10.6232 2.16483 10.1978C2.58197 9.76863 3.1395 9.53229 3.73472 9.53229C4.32994 9.53229 4.88742 9.76863 5.30461 10.1978C5.71805 10.6232 5.97047 11.2053 6.01538 11.8369C6.02925 12.0327 6.03684 12.261 6.04481 12.5027C6.04552 12.5235 6.04622 12.5445 6.04692 12.5654C5.66442 11.9761 5.0737 11.5418 4.31044 11.2966C3.6053 11.07 2.99883 11.084 2.97323 11.0847C2.88117 11.0873 2.7938 11.1258 2.72991 11.1921L2.09559 11.8499C1.96083 11.9897 1.96486 12.2123 2.10464 12.347C2.24442 12.4818 2.46698 12.4777 2.60175 12.338L3.12956 11.7906C3.58411 11.8128 5.04647 11.9829 5.6152 13.2353C5.47209 14.1581 4.67887 14.8435 3.73481 14.8435ZM5.21386 15.5072L5.21391 15.0879C5.62289 14.8063 5.94806 14.4102 6.14208 13.9418C6.18422 14.2445 6.24642 14.5313 6.34223 14.7817C6.20222 14.9523 5.87081 15.2706 5.21386 15.5072ZM8.59702 9.80369V8.93144C8.59702 8.87852 8.58506 8.82625 8.56205 8.77858C8.33583 8.31011 8.22112 7.81305 8.22112 7.30118V6.54939C8.22112 5.08507 9.41245 3.89378 10.8767 3.89378H15.7878V7.30122C15.7878 7.8131 15.6731 8.31016 15.4469 8.77863C15.4238 8.8263 15.4119 8.87857 15.4119 8.93149V9.9325C15.4119 10.8846 15.0292 11.7677 14.3342 12.4191C14.2474 12.5004 14.1574 12.5766 14.0643 12.6476C14.0622 12.649 14.0603 12.6506 14.0582 12.652C13.4072 13.1463 12.6097 13.3865 11.777 13.3326C9.9938 13.2171 8.59702 11.6671 8.59702 9.80369ZM10.5765 16.8776C10.5741 16.8801 10.5684 16.8858 10.5569 16.8846C10.5455 16.8835 10.541 16.8768 10.539 16.8739L9.44569 15.2338L9.79753 14.8641L11.4562 15.9979L10.5765 16.8776ZM12.0045 15.5209L10.1006 14.2196V13.5633C10.5932 13.8296 11.1448 13.9962 11.7315 14.0342C11.8241 14.0402 11.9162 14.0431 12.0081 14.0431C12.6803 14.0431 13.3273 13.8824 13.9083 13.5774V14.2196L12.0045 15.5209ZM13.4699 16.874C13.4679 16.8769 13.4634 16.8836 13.452 16.8847C13.4405 16.8862 13.4349 16.8801 13.4324 16.8777L12.5527 15.998L14.2114 14.8642L14.5633 15.2339L13.4699 16.874ZM19.8894 16.5774L19.0916 15.7796C19.1055 15.7164 19.1134 15.6471 19.1134 15.5708L19.1133 15.4224C19.3347 15.4951 19.5681 15.5382 19.8095 15.5454C19.8366 15.5463 19.8635 15.5466 19.8905 15.5466C20.1573 15.5466 20.4177 15.5063 20.6656 15.4294V15.571C20.6656 15.6411 20.6744 15.7098 20.691 15.7758L19.8894 16.5774ZM21.2152 14.3061C20.8426 14.6677 20.3504 14.8586 19.8307 14.8426C18.8133 14.8121 17.9856 13.916 17.9856 12.8451V12.1879C17.9856 12.1333 17.9729 12.0795 17.9485 12.0307L17.7313 11.5963C17.6518 11.4372 17.6097 11.2591 17.6097 11.0811V11.0602C17.6097 10.2176 18.2952 9.53224 19.1377 9.53224H22.1692V10.9924C22.1692 11.2284 22.1134 11.4647 22.0079 11.6757L21.8304 12.0307C21.806 12.0795 21.7933 12.1333 21.7933 12.1879V12.9397C21.7933 13.4591 21.588 13.9443 21.2152 14.3061Z" fill="#F18F15"/>
<path d="M22.1448 17.8506C21.9506 17.8506 21.7932 18.0081 21.7932 18.2022V20.4576C21.7932 20.6518 21.9506 20.8092 22.1448 20.8092C22.3389 20.8092 22.4963 20.6518 22.4963 20.4576V18.2022C22.4963 18.0081 22.3389 17.8506 22.1448 17.8506Z" fill="#F18F15"/>
<path d="M1.85522 18.3154C1.66107 18.3154 1.50366 18.4728 1.50366 18.6669V20.4576C1.50366 20.6518 1.66107 20.8092 1.85522 20.8092C2.04938 20.8092 2.20679 20.6518 2.20679 20.4576V18.6669C2.20679 18.4728 2.04938 18.3154 1.85522 18.3154Z" fill="#F18F15"/>
<path d="M14.8844 7.42854C13.5547 6.09889 10.7727 6.35309 9.63825 6.52409C9.28092 6.57795 9.02161 6.88034 9.02161 7.2431V8.05301C9.02161 8.24717 9.17901 8.40457 9.37317 8.40457C9.56733 8.40457 9.72473 8.24717 9.72473 8.05301V7.24306C9.72473 7.2311 9.73261 7.22088 9.74311 7.21929C10.1962 7.15099 11.0954 7.04562 12.0271 7.10773C13.1234 7.18071 13.9175 7.45592 14.3872 7.9257C14.5245 8.06299 14.7471 8.06299 14.8844 7.9257C15.0217 7.7884 15.0217 7.56579 14.8844 7.42854Z" fill="#F18F15"/>
<path d="M7.86951 18.6025C7.67535 18.6025 7.51794 18.7599 7.51794 18.954V20.4576C7.51794 20.6518 7.67535 20.8092 7.86951 20.8092C8.06366 20.8092 8.22107 20.6518 8.22107 20.4576V18.954C8.22107 18.7599 8.06366 18.6025 7.86951 18.6025Z" fill="#F18F15"/>
<path d="M16.1394 18.6025C15.9452 18.6025 15.7878 18.7599 15.7878 18.954V20.4576C15.7878 20.6518 15.9452 20.8092 16.1394 20.8092C16.3336 20.8092 16.491 20.6518 16.491 20.4576V18.954C16.491 18.7599 16.3336 18.6025 16.1394 18.6025Z" fill="#F18F15"/>
</svg>
