<svg width="24" height="25" viewBox="0 0 24 25" fill="none" xmlns="http://www.w3.org/2000/svg">
<g clip-path="url(#clip0_169_2358)">
<path d="M11.829 11.9453C13.4172 11.9453 14.7925 11.3757 15.9163 10.2518C17.04 9.12805 17.6096 7.75311 17.6096 6.16467C17.6096 4.57678 17.04 3.20166 15.9161 2.07758C14.7922 0.954041 13.4171 0.384399 11.829 0.384399C10.2405 0.384399 8.8656 0.954041 7.74188 2.07776C6.61816 3.20148 6.04834 4.5766 6.04834 6.16467C6.04834 7.75311 6.61816 9.12823 7.74207 10.252C8.86597 11.3755 10.2411 11.9453 11.829 11.9453Z" fill="#F18F15"/>
<path d="M21.9435 18.8391C21.9111 18.3715 21.8455 17.8614 21.749 17.3227C21.6516 16.7799 21.5262 16.2669 21.376 15.798C21.2209 15.3133 21.01 14.8346 20.7493 14.376C20.4786 13.8999 20.1608 13.4853 19.8041 13.1442C19.4311 12.7874 18.9744 12.5004 18.4463 12.2911C17.9201 12.0829 17.3369 11.9775 16.7131 11.9775C16.4681 11.9775 16.2311 12.078 15.7736 12.3759C15.492 12.5596 15.1625 12.772 14.7949 13.0069C14.4805 13.2072 14.0546 13.3949 13.5285 13.5648C13.0153 13.7309 12.4942 13.8151 11.9798 13.8151C11.4655 13.8151 10.9445 13.7309 10.4308 13.5648C9.90524 13.3951 9.47934 13.2074 9.16532 13.0071C8.80112 12.7743 8.47153 12.5619 8.18571 12.3757C7.72868 12.0778 7.49156 11.9773 7.24656 11.9773C6.62254 11.9773 6.03954 12.0829 5.51347 12.2913C4.98577 12.5002 4.52892 12.7872 4.15557 13.1444C3.79907 13.4857 3.48101 13.9001 3.21075 14.376C2.95019 14.8346 2.73925 15.3131 2.58398 15.7981C2.43402 16.2671 2.30859 16.7799 2.21118 17.3227C2.11468 17.8606 2.04913 18.3709 2.01672 18.8397C1.98486 19.2989 1.96875 19.7755 1.96875 20.2569C1.96875 21.5097 2.367 22.5239 3.15234 23.2719C3.92797 24.01 4.95427 24.3845 6.20231 24.3845H17.7584C19.0065 24.3845 20.0324 24.0102 20.8082 23.2719C21.5937 22.5245 21.992 21.5101 21.992 20.2567C21.9918 19.7732 21.9755 19.2962 21.9435 18.8391Z" fill="#F18F15"/>
</g>
<defs>
<clipPath id="clip0_169_2358">
<rect width="24" height="24" fill="white" transform="translate(0 0.384399)"/>
</clipPath>
</defs>
</svg>
