<svg width="24" height="24" viewBox="0 0 24 24" fill="none" xmlns="http://www.w3.org/2000/svg">
<g clip-path="url(#clip0_594_2392)">
<path fill-rule="evenodd" clip-rule="evenodd" d="M9.46667 11.6668C9.46667 13.1396 8.27276 14.3335 6.79999 14.3335C5.32722 14.3335 4.1333 13.1396 4.1333 11.6668C4.1333 10.194 5.32722 9.00012 6.79999 9.00012C8.27276 9.00012 9.46667 10.194 9.46667 11.6668ZM8.26666 11.6668C8.26666 12.4768 7.61002 13.1335 6.79999 13.1335C5.98997 13.1335 5.33331 12.4768 5.33331 11.6668C5.33331 10.8568 5.98997 10.2001 6.79999 10.2001C7.61002 10.2001 8.26666 10.8568 8.26666 11.6668Z" fill="#F18F15"/>
<path d="M4.20001 18.6002C4.20001 17.1643 5.36408 16.0001 6.80004 16.0001C8.23599 16.0001 9.40006 17.1643 9.40006 18.6002H10.6C10.6 16.5015 8.89874 14.8001 6.80004 14.8001C4.70133 14.8001 3 16.5015 3 18.6002H4.20001Z" fill="#F18F15"/>
<path fill-rule="evenodd" clip-rule="evenodd" d="M20.3999 10.2001C20.3999 10.5314 20.1312 10.8001 19.7999 10.8001H13.1999C12.8685 10.8001 12.5999 10.5314 12.5999 10.2001C12.5999 9.86878 12.8685 9.6001 13.1999 9.6001H19.7999C20.1312 9.6001 20.3999 9.86878 20.3999 10.2001Z" fill="#F18F15"/>
<path fill-rule="evenodd" clip-rule="evenodd" d="M20.3999 13.8001C20.3999 14.1315 20.1312 14.4001 19.7999 14.4001H13.1999C12.8685 14.4001 12.5999 14.1315 12.5999 13.8001C12.5999 13.4688 12.8685 13.2001 13.1999 13.2001H19.7999C20.1312 13.2001 20.3999 13.4688 20.3999 13.8001Z" fill="#F18F15"/>
<path fill-rule="evenodd" clip-rule="evenodd" d="M20.3999 17.4002C20.3999 17.7315 20.1312 18.0002 19.7999 18.0002H13.1999C12.8685 18.0002 12.5999 17.7315 12.5999 17.4002C12.5999 17.0689 12.8685 16.8002 13.1999 16.8002H19.7999C20.1312 16.8002 20.3999 17.0689 20.3999 17.4002Z" fill="#F18F15"/>
<path fill-rule="evenodd" clip-rule="evenodd" d="M8.39984 2.40002C7.40571 2.40002 6.59982 3.20592 6.59982 4.20004H2.99979C1.34292 4.20004 -0.000244141 5.5432 -0.000244141 7.20007V18.6002C-0.000244141 20.257 1.34292 21.6002 2.99979 21.6002H21C22.6568 21.6002 24 20.257 24 18.6002V7.20007C24 5.5432 22.6568 4.20004 21 4.20004H17.3999C17.3999 3.20592 16.594 2.40002 15.5999 2.40002H8.39984ZM17.3999 5.40005C17.3999 6.39418 16.594 7.20007 15.5999 7.20007H8.39984C7.40571 7.20007 6.59982 6.39418 6.59982 5.40005H2.99979C2.00566 5.40005 1.19977 6.20594 1.19977 7.20007V18.6002C1.19977 19.5943 2.00566 20.4002 2.99979 20.4002H21C21.9941 20.4002 22.8 19.5943 22.8 18.6002V7.20007C22.8 6.20594 21.9941 5.40005 21 5.40005H17.3999ZM7.79984 4.20004C7.79984 3.86867 8.06847 3.60004 8.39984 3.60004H15.5999C15.9312 3.60004 16.1999 3.86867 16.1999 4.20004V5.40005C16.1999 5.73142 15.9312 6.00006 15.5999 6.00006H8.39984C8.06847 6.00006 7.79984 5.73142 7.79984 5.40005V4.20004Z" fill="#F18F15"/>
</g>
<defs>
<clipPath id="clip0_594_2392">
<rect width="24" height="24" fill="white"/>
</clipPath>
</defs>
</svg>
