<svg width="33" height="32" viewBox="0 0 33 32" fill="none" xmlns="http://www.w3.org/2000/svg">
<g clip-path="url(#clip0_332_1255)">
<path d="M31.3076 18.7434H30.8288V14.4299C30.8288 13.7471 30.4889 13.1424 29.9698 12.7751V12.1877C29.9698 11.3358 29.2768 10.6427 28.4248 10.6427H28.0673L29.4353 8.63525C29.8939 7.96237 29.7195 7.04181 29.0466 6.58319L19.7634 0.256938C19.4375 0.0347503 19.0446 -0.0472497 18.6569 0.0263128C18.2693 0.0997503 17.9335 0.319688 17.7114 0.645688L9.69881 12.4034H7.46912L8.00706 6.95775C8.01312 6.89637 8.05299 6.84319 8.10862 6.82225C8.80168 6.56094 9.40231 6.07294 9.79981 5.44819C9.83112 5.399 9.89018 5.37087 9.95131 5.37706L13.4485 5.72256C13.6992 5.74687 13.9223 5.56425 13.9471 5.31362C13.9718 5.063 13.7887 4.83981 13.5381 4.81506L10.0409 4.46956C9.63499 4.42981 9.24787 4.61687 9.03037 4.95862C8.73812 5.418 8.29649 5.77675 7.78693 5.96887C7.40337 6.1135 7.13999 6.458 7.09949 6.86806L6.55274 12.4033H5.9713L6.82205 3.79056C6.85268 3.48056 7.12937 3.25281 7.43974 3.28387L14.5069 3.982C14.7575 4.00619 14.9807 3.82369 15.0054 3.57306C15.0302 3.32244 14.8471 3.09925 14.5965 3.0745L7.52937 2.37637C6.71912 2.29644 5.99455 2.8905 5.91449 3.70087L5.22874 10.6427H4.06093C3.20905 10.6427 2.51593 11.3358 2.51593 12.1877V12.5884C1.81899 12.9092 1.33374 13.6137 1.33374 14.4299V29.9734C1.33374 31.0909 2.24287 32 3.36043 32H28.8021C29.9196 32 30.8288 31.0909 30.8288 29.9734V25.66H31.3076C31.8729 25.66 32.3327 25.2002 32.3327 24.635V19.7684C32.3328 19.2032 31.8729 18.7434 31.3076 18.7434ZM28.4248 11.5547C28.7739 11.5547 29.0579 11.8387 29.0579 12.1878V12.4201C28.974 12.4095 28.8888 12.4034 28.8021 12.4034H26.8674L27.4458 11.5547H28.4248ZM18.4649 1.15919C18.5499 1.0345 18.6784 0.950375 18.8266 0.92225C18.8621 0.915563 18.8976 0.912188 18.9329 0.912188C19.0452 0.912188 19.155 0.945813 19.2499 1.01044L28.5331 7.33669C28.7904 7.51212 28.8572 7.86425 28.6818 8.12162L25.7639 12.4032H25.0637L26.4943 10.3041C26.7263 9.96362 26.7454 9.53037 26.544 9.17331C26.2764 8.69894 26.1679 8.14037 26.2385 7.60044C26.291 7.19875 26.1143 6.80662 25.7773 6.577L20.9649 3.2975C20.6278 3.06781 20.1982 3.04675 19.8436 3.24256C19.367 3.50569 18.8074 3.609 18.2681 3.5335C17.8681 3.47737 17.4624 3.658 17.2338 3.99331L11.5026 12.4033H10.8024L18.4649 1.15919ZM18.6657 8.90237C16.6801 8.90237 15.0501 10.4507 14.9172 12.4033H12.6061L17.9872 4.50687C17.9873 4.50687 17.9873 4.50687 17.9873 4.50687C18.0179 4.46194 18.0686 4.43519 18.1206 4.43519C18.1276 4.43519 18.1345 4.43569 18.1414 4.43662C18.8751 4.53925 19.636 4.39887 20.2843 4.04094C20.3352 4.01269 20.4007 4.01675 20.4513 4.05112L25.2637 7.33069C25.3141 7.36506 25.3418 7.42456 25.3343 7.48231C25.2382 8.21662 25.3858 8.97625 25.7498 9.62137C25.7789 9.67319 25.7754 9.73956 25.7408 9.7905L23.9603 12.4032H22.4144C22.2815 10.4507 20.6516 8.90237 18.6657 8.90237ZM21.5 12.4034H15.8316C15.9622 10.9541 17.1831 9.81437 18.6657 9.81437C20.1485 9.81431 21.3694 10.9541 21.5 12.4034ZM3.42787 12.1877C3.42787 11.8386 3.7118 11.5546 4.06093 11.5546H5.13868L5.05487 12.4033H3.42787V12.1877ZM2.24568 14.4299C2.24568 13.8153 2.74574 13.3152 3.36043 13.3152H28.8021C29.4168 13.3152 29.9168 13.8153 29.9168 14.4299V15.6952H2.24568V14.4299ZM29.9168 29.9734C29.9168 30.588 29.4168 31.0881 28.8021 31.0881H3.36043C2.74574 31.0881 2.24568 30.588 2.24568 29.9734V28.7081H4.70455C4.95643 28.7081 5.16049 28.504 5.16049 28.2522C5.16049 28.0004 4.95637 27.7962 4.70455 27.7962H2.24568V16.6071H29.9168V18.7434H25.5814H25.5814C24.2154 18.7434 23.0321 19.5396 22.4706 20.6922C22.4687 20.6961 22.4666 20.6998 22.4646 20.7037C22.4599 20.7135 22.4557 20.7237 22.4511 20.7336C22.3843 20.8756 22.3261 21.0227 22.2788 21.1744C22.2787 21.1749 22.2786 21.1752 22.2784 21.1757C22.1775 21.5 22.1231 21.8446 22.1231 22.2017C22.1231 24.1086 23.6744 25.66 25.5813 25.66H25.5814H29.9168V27.7962H7.62418C7.37231 27.7962 7.16824 28.0004 7.16824 28.2522C7.16824 28.504 7.37237 28.7081 7.62418 28.7081H29.9168V29.9734ZM31.4208 24.6349C31.4208 24.6973 31.3701 24.7481 31.3076 24.7481H25.5815C24.6162 24.7481 23.7746 24.2081 23.3429 23.4144C23.3232 23.3784 23.3045 23.3417 23.2866 23.3047C23.2507 23.2305 23.2184 23.1543 23.1899 23.0763C23.0898 22.8034 23.0351 22.5088 23.0351 22.2017C23.0351 21.8946 23.0898 21.5999 23.1899 21.3271C23.2185 21.2491 23.2508 21.1729 23.2866 21.0987C23.3045 21.0616 23.3232 21.025 23.3429 20.9889C23.7746 20.1952 24.6162 19.6553 25.5815 19.6553H31.3076C31.37 19.6553 31.4208 19.7061 31.4208 19.7684V24.6349Z" fill="#F18F15"/>
<path d="M25.6884 20.3517C24.6683 20.3517 23.8384 21.1816 23.8384 22.2017C23.8384 23.2217 24.6683 24.0516 25.6884 24.0516C26.7085 24.0516 27.5384 23.2217 27.5384 22.2017C27.5384 21.1816 26.7085 20.3517 25.6884 20.3517ZM25.6884 23.1397C25.1711 23.1397 24.7503 22.7189 24.7503 22.2017C24.7503 21.6845 25.1711 21.2636 25.6884 21.2636C26.2056 21.2636 26.6264 21.6844 26.6264 22.2017C26.6264 22.7189 26.2056 23.1397 25.6884 23.1397Z" fill="#F18F15"/>
</g>
<defs>
<clipPath id="clip0_332_1255">
<rect width="32" height="32" fill="white" transform="translate(0.833252)"/>
</clipPath>
</defs>
</svg>
