<svg width="24" height="24" viewBox="0 0 24 24" fill="none" xmlns="http://www.w3.org/2000/svg">
<path d="M18.1387 6.84374L16.6537 4.38374C16.4235 3.99787 16.0569 3.71247 15.6263 3.584C15.1958 3.45553 14.7327 3.49335 14.3287 3.68999C14.2762 3.71249 9.22119 6.84374 9.22119 6.84374H18.1387Z" fill="#F18F15"/>
<path d="M7.80006 6.84374C7.80006 6.84374 13.845 3.08375 13.9763 3.02624L13.1026 2.16374C12.778 1.83749 12.3377 1.65282 11.8775 1.65001C11.4174 1.6472 10.9748 1.82648 10.6463 2.14874L5.77881 6.84374H7.80006Z" fill="#F18F15"/>
<path d="M21.4949 12.6075H16.6687C16.061 12.6075 15.4782 12.8489 15.0485 13.2786C14.6188 13.7083 14.3774 14.2911 14.3774 14.8987C14.3774 15.5064 14.6188 16.0892 15.0485 16.5189C15.4782 16.9486 16.061 17.19 16.6687 17.19H21.4949C21.7615 17.19 22.0171 17.0841 22.2056 16.8956C22.394 16.7072 22.4999 16.4515 22.4999 16.185V13.6162C22.5001 13.3493 22.3944 13.0932 22.206 12.9041C22.0176 12.715 21.7619 12.6084 21.4949 12.6075ZM17.6774 14.625C17.7756 14.627 17.8691 14.6673 17.9378 14.7374C18.0065 14.8076 18.045 14.9018 18.045 15C18.045 15.0982 18.0065 15.1924 17.9378 15.2626C17.8691 15.3327 17.7756 15.373 17.6774 15.375C17.5793 15.373 17.4858 15.3327 17.4171 15.2626C17.3484 15.1924 17.3099 15.0982 17.3099 15C17.3099 14.9018 17.3484 14.8076 17.4171 14.7374C17.4858 14.6673 17.5793 14.627 17.6774 14.625Z" fill="#F18F15"/>
<path d="M16.6687 17.94C12.6432 17.7896 12.6464 12.0087 16.6688 11.8575H19.8113H20.5613V9.46875C20.5611 8.97152 20.3635 8.49472 20.0119 8.14312C19.6603 7.79153 19.1835 7.59393 18.6863 7.59375H3.375C2.87777 7.59393 2.40097 7.79153 2.04937 8.14312C1.69778 8.49472 1.50018 8.97152 1.5 9.46875V20.4713C1.50018 20.9685 1.69778 21.4453 2.04937 21.7969C2.40097 22.1485 2.87777 22.3461 3.375 22.3463H18.6862C19.1835 22.3461 19.6603 22.1485 20.0119 21.7969C20.3635 21.4453 20.5611 20.9685 20.5612 20.4713V17.94C20.1075 17.9368 17.1939 17.9423 16.6687 17.94Z" fill="#F18F15"/>
</svg>
