<svg width="24" height="24" viewBox="0 0 24 24" fill="none" xmlns="http://www.w3.org/2000/svg">
<path d="M22.4251 12.0029C22.9301 10.9962 23.3276 9.98419 23.6036 8.987C24.4688 5.86249 24.0498 3.24609 22.4236 1.62012C20.7977 -0.00585824 18.1813 -0.424987 15.0568 0.440187C14.0596 0.716127 13.0475 1.11383 12.0408 1.61865C10.7884 0.990052 9.53412 0.530091 8.32562 0.265138C5.51862 -0.350097 3.15271 0.131105 1.66388 1.62012C0.708252 2.57575 0.153992 3.91846 0.0613403 5.50324C-0.0219727 6.92889 0.266968 8.56494 0.896667 10.2502C0.379578 10.6591 0.046875 11.2912 0.046875 12C0.046875 12.7088 0.379578 13.3409 0.896667 13.7498C0.266968 15.4351 -0.0219727 17.0713 0.0613403 18.4968C0.154175 20.0815 0.708252 21.4243 1.66388 22.3799C2.73102 23.4472 4.22827 23.9974 6.0368 23.9974C6.3999 23.9974 6.77563 23.9753 7.16309 23.9306C8.71381 23.7517 10.3707 23.2234 12.0432 22.3824C13.0492 22.8869 14.0605 23.2841 15.0568 23.5598C16.1201 23.8542 17.1246 24 18.0513 24C19.8474 24 21.351 23.4525 22.4236 22.3799C23.9127 20.8911 24.3939 18.5251 23.7786 15.718C23.5137 14.5096 23.0537 13.2554 22.4251 12.0029ZM15.2446 1.11896C18.1141 0.324464 20.4868 0.679322 21.9256 2.11817C23.3644 3.55701 23.7193 5.92969 22.9248 8.79913C22.7023 9.60297 22.3967 10.4178 22.0166 11.2319C21.3354 10.0104 20.4977 8.80005 19.5271 7.64557C19.8245 7.26654 20.0024 6.78955 20.0024 6.27155C20.0024 5.77075 19.8404 5.29761 19.5335 4.9032L18.9776 5.33551C19.1874 5.60523 19.2982 5.92896 19.2982 6.27155C19.2982 7.1131 18.6136 7.79755 17.7722 7.79755C16.9308 7.79755 16.2462 7.1131 16.2462 6.27155C16.2462 5.42999 16.9308 4.74554 17.7722 4.74554C18.0469 4.74554 18.3162 4.81915 18.5508 4.95868L18.9108 4.35333C18.5673 4.14917 18.1736 4.04114 17.7722 4.04114C17.2542 4.04114 16.7772 4.2193 16.3984 4.51666C15.2437 3.54602 14.0334 2.70831 12.8119 2.02698C13.626 1.64703 14.4408 1.34143 15.2446 1.11896ZM2.16193 2.11817C4.06604 0.214051 7.5575 0.285096 11.2727 2.02496C9.45905 3.03644 7.68018 4.39087 6.05731 6.01355C4.85394 7.21692 3.79486 8.50946 2.90515 9.85876C2.70465 9.80054 2.49371 9.76959 2.27728 9.76959C2.01086 9.76959 1.75543 9.81683 1.51831 9.90271C0.298096 6.57697 0.526611 3.7533 2.16193 2.11817ZM6.05511 23.2906C4.46191 23.2906 3.10748 22.8274 2.16174 21.8818C0.526611 20.2467 0.297913 17.4232 1.51831 14.0973C1.75543 14.1833 2.01086 14.2304 2.27728 14.2304C2.495 14.2304 2.7052 14.1984 2.90442 14.14C3.79413 15.4898 4.85358 16.7827 6.05731 17.9865C7.67963 19.6086 9.45795 20.9626 11.2711 21.9741C9.40869 22.8457 7.617 23.2908 6.05511 23.2906ZM12.0417 21.5909C10.1395 20.5917 8.26099 19.1938 6.55536 17.4884C5.4093 16.3422 4.39838 15.1139 3.54602 13.8329C4.12646 13.4299 4.50751 12.7588 4.50751 12.0002C4.50751 11.9341 4.50476 11.8672 4.4989 11.8015L3.79724 11.8636C3.80127 11.9086 3.80328 11.9544 3.80328 12C3.80328 12.8416 3.11865 13.526 2.27728 13.526C1.43591 13.526 0.751282 12.8416 0.751282 12C0.751282 11.1584 1.43591 10.474 2.27728 10.474C2.85846 10.474 3.38159 10.797 3.64233 11.3168L4.27185 11.0012C4.09973 10.6578 3.84888 10.3735 3.54749 10.1646C4.39966 8.88464 5.41003 7.65692 6.55536 6.5116C8.26135 4.8056 10.1406 3.40741 12.0434 2.4082C13.3385 3.08991 14.6488 3.96881 15.9183 5.0332C15.6806 5.3877 15.5418 5.8136 15.5418 6.27155C15.5418 7.50128 16.5425 8.50177 17.7722 8.50177C18.2302 8.50177 18.6561 8.36298 19.0106 8.12531C20.075 9.39478 20.9537 10.7053 21.6354 12.0002C20.6362 13.903 19.238 15.7822 17.5322 17.4884C17.3445 17.6759 17.1517 17.8623 16.9568 18.0449C16.5681 17.716 16.0662 17.5172 15.5184 17.5172C15.0176 17.5172 14.5444 17.6794 14.15 17.9861L14.5825 18.542C14.8521 18.3323 15.1758 18.2216 15.5184 18.2214C16.3597 18.2214 17.0444 18.906 17.0444 19.7474C17.0444 20.5889 16.3597 21.2734 15.5184 21.2734C14.677 21.2734 13.9924 20.5889 13.9924 19.7474C13.9924 19.4727 14.066 19.2036 14.2055 18.969L13.6002 18.6088C13.396 18.9523 13.288 19.346 13.288 19.7474C13.288 20.1008 13.3709 20.4348 13.5178 20.7319C13.0243 21.0469 12.5314 21.3333 12.0417 21.5909ZM21.9256 21.8818C20.4868 23.3209 18.1141 23.6755 15.2446 22.8812C14.4413 22.6588 13.6273 22.3535 12.8137 21.9738C13.1847 21.7665 13.5558 21.544 13.9259 21.3071C14.3311 21.7205 14.8951 21.9778 15.5184 21.9778C16.7481 21.9778 17.7488 20.9773 17.7488 19.7476C17.7488 19.3193 17.6272 18.9192 17.4172 18.579C17.6248 18.3847 17.8303 18.1862 18.03 17.9865C19.6529 16.3634 21.0071 14.5845 22.0188 12.7709C23.7587 16.4863 23.8297 19.9777 21.9256 21.8818Z" fill="#F18F15"/>
<path d="M17.819 15.6391H17.0914V13.8646C17.0914 13.0798 16.5638 12.3829 15.8085 12.1698L15.5452 12.0956L15.3541 12.7735L15.6174 12.8478C16.0704 12.9756 16.387 13.3936 16.387 13.8646V15.6391H15.1191V14.6765H14.4149V15.6391H11.2454V16.3433H17.819V15.6391Z" fill="#F18F15"/>
<path d="M13.2086 12.1683L14.6764 12.5825L14.8677 11.9044L13.4291 11.4987V10.5634C14.0804 10.1191 14.509 9.37152 14.509 8.52539V7.49231C14.509 6.13312 13.4033 5.02716 12.0439 5.02716C10.6847 5.02716 9.57874 6.13312 9.57874 7.49231V8.52539C9.57874 9.37152 10.0074 10.1191 10.6587 10.5634V11.4987L8.27905 12.1697C7.52374 12.3829 6.99622 13.0798 6.99622 13.8646V15.639H6.26855V16.3433H10.5413V15.639H9.67267V14.6765H8.96844V15.639H7.70062V13.8646C7.70062 13.3936 8.01721 12.9756 8.47021 12.8478L10.8792 12.1685C11.1758 12.4929 11.5947 12.681 12.0439 12.681C12.493 12.681 12.9122 12.4927 13.2086 12.1683ZM12.0439 5.73157C13.0147 5.73157 13.8046 6.52148 13.8046 7.49249V7.8847L13.0643 6.90546H10.384C10.6263 6.22229 11.2787 5.73157 12.0439 5.73157ZM10.2831 8.52539V7.60986H12.7139L13.7462 8.9751C13.5468 9.72894 12.8593 10.2861 12.0439 10.2861C11.0731 10.2861 10.2831 9.49622 10.2831 8.52539ZM11.3631 11.6516V10.894C11.5793 10.9565 11.8077 10.9905 12.0439 10.9905C12.2801 10.9905 12.5082 10.9565 12.7247 10.894V11.6516C12.5591 11.8564 12.3112 11.9766 12.0439 11.9766C11.7766 11.9766 11.5284 11.8564 11.3631 11.6516Z" fill="#F18F15"/>
<path d="M13.9037 13.828L12.9116 13.5482L13.103 12.8703L14.0948 13.1501L13.9037 13.828Z" fill="#F18F15"/>
<path d="M15.45 13.5311L15.2587 14.209L14.5808 14.0178L14.7722 13.34L15.45 13.5311Z" fill="#F18F15"/>
<path d="M17.4202 5.91945H18.1244V6.62386H17.4202V5.91945Z" fill="#F18F15"/>
<path d="M15.1663 19.3955H15.8705V20.0997H15.1663V19.3955Z" fill="#F18F15"/>
<path d="M1.92505 11.6479H2.62946V12.3521H1.92505V11.6479Z" fill="#F18F15"/>
</svg>
