<svg width="27" height="23" viewBox="0 0 27 23" fill="none" xmlns="http://www.w3.org/2000/svg">
<path d="M27 10.8239C27 16.7229 20.9554 21.5051 13.5 21.5051C12.1629 21.5067 10.8314 21.3497 9.53944 21.0382C8.55394 21.4898 6.291 22.3565 2.484 22.9211C2.1465 22.9699 1.89 22.6526 2.02331 22.3687C2.62069 21.0931 3.16069 19.3933 3.32269 17.843C1.2555 15.9661 0 13.5094 0 10.8239C0 4.92476 6.04462 0.142616 13.5 0.142616C20.9554 0.142616 27 4.92476 27 10.8239ZM8.4375 10.8239C8.4375 10.4192 8.25971 10.031 7.94324 9.74489C7.62677 9.45873 7.19755 9.29796 6.75 9.29796C6.30245 9.29796 5.87323 9.45873 5.55676 9.74489C5.24029 10.031 5.0625 10.4192 5.0625 10.8239C5.0625 11.2285 5.24029 11.6167 5.55676 11.9028C5.87323 12.189 6.30245 12.3497 6.75 12.3497C7.19755 12.3497 7.62677 12.189 7.94324 11.9028C8.25971 11.6167 8.4375 11.2285 8.4375 10.8239ZM15.1875 10.8239C15.1875 10.4192 15.0097 10.031 14.6932 9.74489C14.3768 9.45873 13.9476 9.29796 13.5 9.29796C13.0524 9.29796 12.6232 9.45873 12.3068 9.74489C11.9903 10.031 11.8125 10.4192 11.8125 10.8239C11.8125 11.2285 11.9903 11.6167 12.3068 11.9028C12.6232 12.189 13.0524 12.3497 13.5 12.3497C13.9476 12.3497 14.3768 12.189 14.6932 11.9028C15.0097 11.6167 15.1875 11.2285 15.1875 10.8239ZM20.25 12.3497C20.6976 12.3497 21.1268 12.189 21.4432 11.9028C21.7597 11.6167 21.9375 11.2285 21.9375 10.8239C21.9375 10.4192 21.7597 10.031 21.4432 9.74489C21.1268 9.45873 20.6976 9.29796 20.25 9.29796C19.8024 9.29796 19.3732 9.45873 19.0568 9.74489C18.7403 10.031 18.5625 10.4192 18.5625 10.8239C18.5625 11.2285 18.7403 11.6167 19.0568 11.9028C19.3732 12.189 19.8024 12.3497 20.25 12.3497Z" fill="#747474"/>
</svg>
