<svg width="24" height="24" viewBox="0 0 24 24" fill="none" xmlns="http://www.w3.org/2000/svg">
<g clip-path="url(#clip0_28_458)">
<path d="M19.0801 9.46572H19.0464C18.5861 9.46316 18.1414 9.6323 17.7989 9.94002C17.5218 9.17298 16.8174 8.6216 15.9924 8.6216C15.4868 8.62515 15.0038 8.83273 14.6535 9.19762C14.3314 8.54551 13.6852 8.10314 12.9422 8.10314H12.9063C12.5081 8.09703 12.1196 8.22655 11.8045 8.4702V3.82124C11.8045 2.69778 10.9299 1.78387 9.86595 1.78387C8.80321 1.78387 7.93307 2.69719 7.93248 3.81986L7.92361 13.0437L7.4016 12.4097C6.94386 11.8398 6.27007 11.4859 5.54107 11.4325C4.82706 11.3836 4.12468 11.632 3.60031 12.1193L3.14612 12.4956C2.99965 12.6171 2.95785 12.8241 3.04558 12.9928L7.46153 21.4811C8.26898 23.0324 9.80523 24.0001 11.4708 24.0001H16.4474V23.9957C18.9707 23.9957 21.0165 21.8062 21.0191 19.1177C21.0201 17.9148 21.0155 17.0182 21.0163 16.2916C21.0189 14.3475 21.0169 13.6301 21.012 11.4883C21.0094 10.3674 20.1411 9.46572 19.0801 9.46572ZM20.203 16.2889C20.2022 17.0157 20.201 17.9158 20.1998 19.1187C20.1976 21.3626 18.5037 23.1924 16.4237 23.1924H11.471C10.1076 23.1924 8.84579 22.3911 8.17811 21.1081L3.91237 12.9112L4.1229 12.7355C4.12823 12.7312 4.13335 12.7261 4.13848 12.7216C4.50061 12.3807 4.98792 12.2057 5.4841 12.2382C5.99132 12.277 6.45931 12.525 6.7765 12.9226L8.01232 14.4264C8.12035 14.5582 8.29974 14.6077 8.4602 14.5503C8.62067 14.493 8.72791 14.3408 8.72791 14.1705L8.7352 3.82025C8.7356 3.14251 9.24814 2.59113 9.86634 2.59113C10.4845 2.59113 10.9971 3.1431 10.9971 3.82124V10.0618C10.9971 10.0835 10.9961 10.1054 10.9961 10.1275C10.9961 10.137 10.9971 10.1466 10.9971 10.1559V12.8241C10.9971 13.047 11.1779 13.2278 11.4008 13.2278C11.6238 13.2278 11.8045 13.047 11.8045 12.8241V10.0754C11.8045 9.42156 12.3041 8.9106 12.9063 8.9106H12.9422C13.5608 8.9106 14.0755 9.44975 14.0755 10.1279V12.5694C14.0755 12.7923 14.2563 12.9731 14.4792 12.9731C14.7022 12.9731 14.883 12.7923 14.883 12.5694V10.6538C14.883 9.9755 15.373 9.42373 15.995 9.42373C16.6134 9.42373 17.1035 9.97531 17.1035 10.6538V12.4609C17.1035 12.6839 17.2842 12.8647 17.5072 12.8647C17.7301 12.8647 17.9109 12.6839 17.9109 12.4609V11.4824C17.9109 10.804 18.4278 10.2732 19.0464 10.2732H19.0801C19.6971 10.2732 20.2 10.8131 20.2016 11.4893C20.2065 13.6295 20.2055 14.3461 20.203 16.2889Z" fill="#110101"/>
<path d="M6.64982 3.99547C6.87278 3.99547 7.05354 3.8147 7.05354 3.59174C7.06005 2.05116 8.31085 0.805875 9.85124 0.805875C11.3918 0.805875 12.6424 2.05116 12.6489 3.59174C12.6489 3.8147 12.8297 3.99547 13.0527 3.99547C13.2756 3.99547 13.4564 3.8147 13.4564 3.59174C13.4489 1.60584 11.8371 0 9.85124 0C7.86553 0 6.25358 1.60584 6.24609 3.59174C6.24609 3.8147 6.42686 3.99547 6.64982 3.99547Z" fill="#110101"/>
</g>
<defs>
<clipPath id="clip0_28_458">
<rect width="24" height="24" fill="white"/>
</clipPath>
</defs>
</svg>
