<svg width="20" height="21" viewBox="0 0 20 21" fill="none" xmlns="http://www.w3.org/2000/svg">
<path d="M4.15529 16.6221C6.61623 19.083 9.70119 19.8389 11.1602 19.9883C11.7403 20.0762 12.1094 19.7685 12.1358 19.3203C12.1709 18.9072 11.916 18.5732 11.3975 18.4678C10.0703 18.248 7.33693 17.6064 5.26271 15.5146C1.8965 12.1572 1.22853 6.9453 4.00588 4.15917C6.22951 1.94432 9.92092 2.16405 12.6455 3.63182L13.7969 2.49803C10.2988 0.37108 5.65822 0.300767 2.90725 3.05174C-0.379864 6.34764 0.00685453 12.4736 4.15529 16.6221ZM17.5147 3.86913L18.2617 3.11327C18.6485 2.71776 18.6836 2.14647 18.2969 1.77733L18.0332 1.52245C17.6904 1.20604 17.1367 1.23241 16.7588 1.60155L16.0029 2.35741L17.5147 3.86913ZM8.92775 12.4473L16.8643 4.51952L15.3438 3.0078L7.41603 10.9355L6.65139 12.7812C6.55471 13.0273 6.8008 13.2646 7.0381 13.1767L8.92775 12.4473ZM7.49514 13.9414C10.2988 16.8594 15.124 17.9492 17.7608 15.3213C19.9053 13.168 19.7207 9.34471 17.3828 6.04003L16.2578 7.16503C17.9805 9.70506 18.2969 12.5703 16.6533 14.2139C14.6319 16.2353 11.336 15.3213 9.18264 13.2646L7.49514 13.9414Z" fill="#1C1C1E"/>
</svg>
