<svg width="24" height="25" viewBox="0 0 24 25" fill="none" xmlns="http://www.w3.org/2000/svg">
<g clip-path="url(#clip0_3_919)">
<path d="M12.079 0.532691L21.6861 4.46372C21.7471 4.48837 21.8015 4.52691 21.845 4.57628C23.2098 6.06203 23.9774 7.99986 24 10.0172C24 14.0761 20.8092 17.5988 16.2745 18.9092C16.1523 18.9446 16.0403 19.0084 15.9476 19.0954L10.5021 24.2716C10.2624 24.5001 9.90954 24.5637 9.60514 24.4333C9.30074 24.3029 9.10339 24.0036 9.10345 23.6724V19.9152C9.10458 19.538 8.84855 19.2086 8.48276 19.1166C3.56897 17.9335 0 14.3033 0 10.0172C0 4.78441 5.32469 0.536829 11.9139 0.500001C11.9706 0.499881 12.0267 0.510991 12.079 0.532691V0.532691Z" fill="#F18F15"/>
<path d="M10.7586 7.1207V13.7414C10.7586 13.9699 10.5733 14.1552 10.3448 14.1552H9.51722C9.28869 14.1552 9.10343 13.9699 9.10343 13.7414V11.6724C9.10343 11.4439 8.91817 11.2586 8.68964 11.2586H7.86205C7.63352 11.2586 7.44826 11.4439 7.44826 11.6724V13.7414C7.44826 13.9699 7.263 14.1552 7.03447 14.1552H6.20688C5.97835 14.1552 5.79309 13.9699 5.79309 13.7414V7.1207C5.79309 6.89217 5.97835 6.70691 6.20688 6.70691H7.03447C7.263 6.70691 7.44826 6.89217 7.44826 7.1207V9.18967C7.44826 9.4182 7.63352 9.60346 7.86205 9.60346H8.68964C8.91817 9.60346 9.10343 9.4182 9.10343 9.18967V7.1207C9.10343 6.89217 9.28869 6.70691 9.51722 6.70691H10.3448C10.5733 6.70691 10.7586 6.89217 10.7586 7.1207Z" fill="#282828"/>
<path d="M13.6552 10.0173H12.8276C12.5991 10.0173 12.4138 10.2025 12.4138 10.4311V13.7414C12.4138 13.9699 12.5991 14.1552 12.8276 14.1552H13.6552C13.8837 14.1552 14.069 13.9699 14.069 13.7414V10.4311C14.069 10.2025 13.8837 10.0173 13.6552 10.0173Z" fill="#282828"/>
<path d="M13.6552 6.70691H12.8276C12.5991 6.70691 12.4138 6.89217 12.4138 7.1207V7.94829C12.4138 8.17682 12.5991 8.36208 12.8276 8.36208H13.6552C13.8837 8.36208 14.069 8.17682 14.069 7.94829V7.1207C14.069 6.89217 13.8837 6.70691 13.6552 6.70691Z" fill="#282828"/>
<path d="M17.3793 6.70691C17.8364 6.70691 18.2069 7.07743 18.2069 7.5345V10.0173C18.2069 10.4743 17.8364 10.8448 17.3793 10.8448C16.9223 10.8448 16.5518 10.4743 16.5518 10.0173V7.5345C16.5518 7.07743 16.9223 6.70691 17.3793 6.70691Z" fill="#282828"/>
<path d="M17.3793 14.1552C17.8364 14.1552 18.2069 13.7847 18.2069 13.3276C18.2069 12.8705 17.8364 12.5 17.3793 12.5C16.9223 12.5 16.5518 12.8705 16.5518 13.3276C16.5518 13.7847 16.9223 14.1552 17.3793 14.1552Z" fill="#282828"/>
<path d="M21.7697 4.50554C18.6124 6.28899 12.0124 3.81037 12 0.508301C12.0248 0.516577 12.0542 0.524439 12.079 0.532715L21.6861 4.46375C21.7147 4.47601 21.7426 4.48997 21.7697 4.50554Z" fill="#DADADA"/>
</g>
<defs>
<clipPath id="clip0_3_919">
<rect width="24" height="24" fill="white" transform="translate(0 0.5)"/>
</clipPath>
</defs>
</svg>
