<svg width="25" height="22" viewBox="0 0 25 22" fill="none" xmlns="http://www.w3.org/2000/svg">
<path d="M23.8541 9.58175C23.8536 9.58125 23.853 9.58075 23.8525 9.58026L14.0624 0.728071C13.6451 0.350572 13.0903 0.142616 12.5001 0.142616C11.91 0.142616 11.3552 0.350406 10.9377 0.727905L1.15273 9.57562C1.14944 9.5786 1.14614 9.58175 1.14285 9.58473C0.285913 10.3641 0.287378 11.6285 1.14706 12.4059C1.53982 12.7612 2.05856 12.967 2.61318 12.9885C2.63571 12.9905 2.65841 12.9915 2.6813 12.9915H3.0715V19.5062C3.0715 20.7953 4.23147 21.8442 5.65749 21.8442H9.48769C9.87588 21.8442 10.1908 21.5596 10.1908 21.2084V16.1009C10.1908 15.5126 10.72 15.0341 11.3706 15.0341H13.6297C14.2803 15.0341 14.8095 15.5126 14.8095 16.1009V21.2084C14.8095 21.5596 15.1242 21.8442 15.5126 21.8442H19.3428C20.7688 21.8442 21.9288 20.7953 21.9288 19.5062V12.9915H22.2906C22.8806 12.9915 23.4354 12.7837 23.853 12.4062C24.7136 11.6275 24.714 10.3609 23.8541 9.58175Z" fill="#747474"/>
</svg>
