<svg width="24" height="24" viewBox="0 0 24 24" fill="none" xmlns="http://www.w3.org/2000/svg">
<path d="M4.34519 9.238L4.55168 9.35741V10.6679L3.61075 10.9031L5.79306 12.1762L5.7773 12.9413L5.74376 13.0585L7.03443 12.7712V12.4647C7.03443 11.9085 7.25911 11.3991 7.62704 11.0227L6.20725 10.6679L6.20564 9.35842L6.41253 9.23881C7.05141 8.86886 7.44823 8.1827 7.44823 7.44826V6.72493C7.44823 5.56054 6.54871 4.58606 5.44291 4.55293C4.88263 4.5311 4.34357 4.74285 3.93847 5.13563C3.53336 5.52861 3.3103 6.05636 3.3103 6.62068V7.44826C3.3103 8.1827 3.70672 8.86886 4.34519 9.238Z" fill="white"/>
<path d="M7.42888 4.61719C8.40133 3.05172 10.1296 2.06897 12 2.06897C13.857 2.06897 15.5805 3.04263 16.5558 4.59274C16.5723 4.57617 16.5869 4.55799 16.6039 4.54142C16.8617 4.29108 17.1579 4.09813 17.4773 3.96074L17.9467 2.8618L16.6263 1.54102L15.4627 2.29829L15.24 2.16171C14.6822 1.81984 14.0793 1.5695 13.4483 1.41858L13.1933 1.35715L12.9058 0H11.0938L10.8067 1.35715L10.5521 1.41797C9.92113 1.5691 9.31822 1.81944 8.76037 2.1613L8.53771 2.29789L7.37412 1.54061L6.05212 2.86261L6.51643 3.96942C6.8591 4.12379 7.16864 4.34483 7.42888 4.61719Z" fill="white"/>
<path d="M0 9.51724V17.0809L1.776 17.6731L3.27761 11.6668L0 9.51724Z" fill="white"/>
<path d="M16.9655 9.82253C16.1943 9.28387 15.7241 8.39547 15.7241 7.44827V6.62068C15.7241 6.16466 15.8312 5.72723 16.0282 5.33223C15.2453 3.84698 13.6879 2.89655 12 2.89655C10.2959 2.89655 8.73186 3.85991 7.95479 5.36556C8.15865 5.77572 8.27584 6.23801 8.27584 6.72494V7.44827C8.27584 8.39547 7.80527 9.28468 7.03406 9.82293V10.0211L8.68963 10.4355L10.3448 10.0211V9.82253C9.57359 9.28387 9.10343 8.39547 9.10343 7.44827V6.62068C9.10343 5.83027 9.41579 5.09219 9.98314 4.54182C10.5501 3.99144 11.2969 3.70271 12.0889 3.72534C13.637 3.77222 14.8965 5.11745 14.8965 6.72494V7.44827C14.8965 8.39547 14.426 9.28468 13.6547 9.82293V10.0211L15.3103 10.4355L16.9655 10.0211V9.82253Z" fill="white"/>
<path d="M4.96554 12.6514L4.02177 12.101L2.56299 17.9355L3.37744 18.2069H3.41219L4.96554 12.7696V12.6514Z" fill="white"/>
<path d="M8.80219 11.2601C8.24898 11.3987 7.86206 11.8941 7.86206 12.4647V12.5871L8.09926 12.5346C8.97312 12.341 9.89708 12.3819 10.7507 12.6554L12.6239 13.2541C12.8312 13.262 13.0377 13.2848 13.2377 13.342L15.7821 14.0689H16.0357L16.1379 14.0152V12.4647C16.1379 11.8941 15.751 11.3987 15.1978 11.2601L12.828 10.6679L12.8264 9.35842L13.0333 9.23881C13.6721 8.86886 14.0689 8.1827 14.0689 7.44826V6.72493C14.0689 5.56054 13.1694 4.58606 12.0636 4.55293C11.5052 4.5311 10.9643 4.74285 10.5592 5.13563C10.1541 5.52861 9.93102 6.05636 9.93102 6.62068V7.44826C9.93102 8.1827 10.3274 8.86886 10.9659 9.238L11.1724 9.35741V10.6679L8.80219 11.2601Z" fill="white"/>
<path d="M16.5517 6.62068V7.44826C16.5517 8.1827 16.9482 8.86886 17.5866 9.238L17.7931 9.35741V10.6679L16.3729 11.0227C16.7404 11.3991 16.9655 11.9081 16.9655 12.4647V13.5794L21.5161 11.1843L19.4487 10.6679L19.4471 9.35842L19.654 9.23881C20.2929 8.86886 20.6897 8.1827 20.6897 7.44826V6.72493C20.6897 5.56054 19.7902 4.58606 18.6844 4.55293C18.1229 4.5311 17.5854 4.74285 17.1799 5.13563C16.7748 5.52861 16.5517 6.05636 16.5517 6.62068Z" fill="white"/>
<path d="M12.9078 16.3535C12.6405 16.1131 12.2251 16.0721 11.9156 16.258L10.3746 17.1819C10.1604 17.311 9.9133 17.3793 9.66215 17.3793C8.89781 17.3793 8.27591 16.7574 8.27591 15.9931V15.9112C8.27591 15.3831 8.56928 14.9081 9.04227 14.6715L11.1088 13.6382L10.4992 13.4432C9.78419 13.2145 9.01156 13.179 8.27914 13.3428L5.48563 13.9639L4.37134 17.8638L5.64262 18.6266C5.67899 18.5777 5.71495 18.5284 5.75839 18.4849L6.48577 17.7575C6.72539 17.5171 7.05817 17.3793 7.39821 17.3793C8.09467 17.3793 8.66081 17.9345 8.68505 18.6253C9.36009 18.6492 9.90259 19.1917 9.92643 19.8667C10.6015 19.8906 11.144 20.4331 11.1678 21.1081C11.6574 21.1255 12.0754 21.4154 12.2789 21.8312L13.2024 22.601C13.3239 22.7023 13.4786 22.7586 13.6374 22.7586C13.8755 22.7586 14.069 22.5651 14.069 22.3271C14.069 22.1983 14.0122 22.0775 13.9138 21.9955L11.7348 20.1799L12.2649 19.5439L14.5125 21.4166C14.5899 21.4817 14.6881 21.5172 14.7885 21.5172H14.8788C15.1168 21.5172 15.3104 21.3237 15.3104 21.0857C15.3104 20.957 15.2536 20.8361 15.1552 20.7541L12.9761 18.9385L13.5063 18.3025L15.7502 20.1724C15.8297 20.2391 15.9315 20.2759 16.0349 20.2759H16.1065C16.3524 20.2759 16.5518 20.0764 16.5518 19.831C16.5518 19.7049 16.498 19.5845 16.4045 19.5L12.9078 16.3535Z" fill="white"/>
<path d="M16.2401 14.8966L15.6107 14.8808L13.0104 14.1381C12.5847 14.0156 12.1157 14.0603 11.7207 14.2577L9.41253 15.4118C9.22179 15.5074 9.10339 15.6985 9.10339 15.9113V15.9931C9.10339 16.301 9.35373 16.5517 9.66205 16.5517C9.76308 16.5517 9.86188 16.5245 9.94836 16.4727L11.4898 15.5484C11.7492 15.3924 12.045 15.3104 12.3471 15.3104C12.7596 15.3104 13.1557 15.4623 13.462 15.7383L16.9576 18.8848C16.9824 18.907 17.0061 18.9298 17.0287 18.9539L23.9999 15.4684V10.8124L16.2401 14.8966Z" fill="white"/>
<path d="M12.2962 22.9237C12.2326 23.0657 12.1465 23.1973 12.0356 23.3082L11.7249 23.6189L12.0344 23.8919C12.113 23.9616 12.2144 24 12.3195 24H12.3961C12.6341 24 12.8276 23.8064 12.8276 23.5684C12.8276 23.4397 12.7709 23.3189 12.6725 23.2369L12.2962 22.9237Z" fill="white"/>
<path d="M11.1223 21.931C11.0003 21.931 10.8807 21.9803 10.7942 22.0668L10.0668 22.7942C9.98033 22.8807 9.93103 23.0003 9.93103 23.1223C9.93103 23.3781 10.1391 23.5862 10.3949 23.5862C10.517 23.5862 10.6366 23.5369 10.7231 23.4504L11.4504 22.7231C11.5369 22.6366 11.5862 22.517 11.5862 22.3949C11.5862 22.1391 11.3781 21.931 11.1223 21.931Z" fill="white"/>
<path d="M9.10341 19.9122C9.10341 19.6564 8.8953 19.4483 8.63951 19.4483C8.51747 19.4483 8.39786 19.4976 8.31139 19.584L7.58402 20.3114C7.49754 20.3979 7.44824 20.5175 7.44824 20.6396C7.44824 20.8953 7.65635 21.1035 7.91214 21.1035C8.03418 21.1035 8.15379 21.0542 8.24027 20.9677L8.96764 20.2403C9.05411 20.1538 9.10341 20.0342 9.10341 19.9122Z" fill="white"/>
<path d="M10.3449 21.1536C10.3449 20.8978 10.1368 20.6897 9.88097 20.6897C9.75893 20.6897 9.63932 20.739 9.55284 20.8254L8.82547 21.5528C8.739 21.6393 8.6897 21.7589 8.6897 21.8809C8.6897 22.1367 8.89781 22.3448 9.1536 22.3448C9.27563 22.3448 9.39525 22.2955 9.48172 22.2091L10.2091 21.4817C10.2956 21.3952 10.3449 21.2756 10.3449 21.1536Z" fill="white"/>
<path d="M7.86208 18.6708C7.86208 18.415 7.65397 18.2069 7.39818 18.2069C7.27614 18.2069 7.15653 18.2562 7.07005 18.3427L6.34268 19.0701C6.25621 19.1565 6.20691 19.2762 6.20691 19.3982C6.20691 19.654 6.41502 19.8621 6.67081 19.8621C6.79285 19.8621 6.91246 19.8128 6.99893 19.7263L7.7263 18.9989C7.81278 18.9125 7.86208 18.7929 7.86208 18.6708Z" fill="white"/>
</svg>
