<svg width="24" height="24" viewBox="0 0 24 24" fill="none" xmlns="http://www.w3.org/2000/svg">
<path d="M18.9143 0.674297C18.6737 0.258375 18.2259 0 17.7457 0H12.7273V5.93611H21.9576L18.9143 0.674297Z" fill="white"/>
<path d="M11.3206 0H6.25482C5.77369 0 5.3259 0.258844 5.08533 0.675703L2.05322 5.93611H11.3206V0H11.3206Z" fill="white"/>
<path d="M1.54956 7.34286V22.3461C1.54956 23.2581 2.29187 24 3.20392 24H20.7961C21.7081 24 22.4505 23.2581 22.4505 22.3461V7.34286H1.54956ZM15.1929 13.6522L11.555 17.2902C11.4176 17.4275 11.2375 17.4965 11.0574 17.4965C10.8774 17.4965 10.6973 17.4275 10.5604 17.2902L8.85493 15.5851C8.58062 15.3108 8.58062 14.8653 8.85493 14.5905C9.12971 14.3158 9.57521 14.3158 9.84999 14.5905L11.0575 15.7985L14.1984 12.6576C14.4731 12.3829 14.9186 12.3829 15.1929 12.6576C15.4677 12.9324 15.4677 13.3775 15.1929 13.6522Z" fill="white"/>
</svg>
