<svg width="21" height="22" viewBox="0 0 21 22" fill="none" xmlns="http://www.w3.org/2000/svg">
<path d="M17.4143 0.752337C17.1737 0.376247 16.7259 0.142616 16.2457 0.142616H11.2273V5.51023H20.4576L17.4143 0.752337Z" fill="#F18F15"/>
<path d="M9.8206 0.142616H4.75482C4.27369 0.142616 3.8259 0.376671 3.58533 0.753608L0.553223 5.51023H9.82055V0.142616H9.8206Z" fill="#F18F15"/>
<path d="M0.0495605 6.78227V20.3487C0.0495605 21.1734 0.791873 21.8442 1.70392 21.8442H19.2961C20.2081 21.8442 20.9505 21.1734 20.9505 20.3487V6.78227H0.0495605ZM13.6929 12.4874L10.055 15.7769C9.91759 15.9012 9.73749 15.9635 9.55745 15.9635C9.3774 15.9635 9.19731 15.9012 9.06038 15.7769L7.35493 14.2352C7.08062 13.9871 7.08062 13.5843 7.35493 13.3358C7.62971 13.0874 8.07521 13.0874 8.34999 13.3358L9.55749 14.4281L12.6984 11.5881C12.9731 11.3396 13.4186 11.3396 13.6929 11.5881C13.9677 11.8365 13.9677 12.2389 13.6929 12.4874Z" fill="#F18F15"/>
</svg>
