<svg width="13" height="13" viewBox="0 0 13 13" fill="none" xmlns="http://www.w3.org/2000/svg">
<g clip-path="url(#clip0_43_1117)">
<path d="M11.5426 0.527802H1.45718C0.725283 0.527802 0.129883 1.1232 0.129883 1.8551C0.129883 2.587 0.725283 3.1824 1.45718 3.1824H1.72238V8.2251C1.72238 8.957 2.31778 9.5524 3.04968 9.5524H6.23468V10.595L4.81118 12.0185L5.18688 12.3942L6.23468 11.3464V12.4722H6.76508V11.3451L7.81418 12.3929L8.18988 12.0172L6.76508 10.595V9.5524H9.95008C10.682 9.5524 11.2774 8.957 11.2774 8.2251V3.1824H11.5426C12.2745 3.1824 12.8699 2.587 12.8699 1.8551C12.8699 1.1232 12.2745 0.527802 11.5426 0.527802ZM10.747 8.2251C10.747 8.6645 10.3895 9.022 9.95008 9.022H3.04968C2.61028 9.022 2.25278 8.6645 2.25278 8.2251V3.1824H10.7457V8.2251H10.747ZM11.5426 2.652H1.45718C1.01778 2.652 0.661583 2.2945 0.661583 1.8551C0.661583 1.4157 1.01908 1.0595 1.45718 1.0595H11.5426C11.982 1.0595 12.3395 1.417 12.3395 1.8551C12.3395 2.2945 11.982 2.652 11.5426 2.652Z" fill="#F18F15"/>
<path d="M3.31494 4.5097H6.23474V5.0414H3.31494V4.5097Z" fill="#F18F15"/>
<path d="M3.31494 5.83569H8.88934V6.36609H3.31494V5.83569Z" fill="#F18F15"/>
<path d="M3.31494 7.16299H8.88934V7.69469H3.31494V7.16299Z" fill="#F18F15"/>
</g>
<defs>
<clipPath id="clip0_43_1117">
<rect width="13" height="13" fill="white"/>
</clipPath>
</defs>
</svg>
