<svg width="17" height="17" viewBox="0 0 17 17" fill="none" xmlns="http://www.w3.org/2000/svg">
<g clip-path="url(#clip0_42_1112)">
<path d="M8.55262 16.6243L6.16922 14.297H2.66892V10.9939L0.169922 8.5527L2.58052 6.2169V2.7914H5.95842L8.44722 0.375702L10.8306 2.703H14.3309V6.0044L16.8299 8.4473L14.4193 10.7831V14.2069H11.0431L8.55262 16.6243ZM3.29112 13.6731H6.42252L8.55432 15.7539L10.7915 13.5847H13.7988V10.5196L15.9391 8.4456L13.7087 6.2679V3.3269H10.5773L8.44552 1.2461L6.21002 3.4153H3.20272V6.4804L1.06242 8.5544L3.29112 10.7321V13.6731Z" fill="#F18F15"/>
<path d="M8.49985 11.5974C7.63115 11.5974 6.87805 11.2914 6.26265 10.6879C5.64555 10.0827 5.33105 9.34661 5.33105 8.49831C5.33105 7.65171 5.64385 6.91391 6.26265 6.31041C6.87805 5.70691 7.63115 5.40091 8.49985 5.40091C9.36855 5.40091 10.1217 5.70691 10.7371 6.31041C11.3542 6.91561 11.6687 7.65171 11.6687 8.50001C11.6687 9.34831 11.3559 10.0844 10.7371 10.6896C10.1217 11.2914 9.36855 11.5974 8.49985 11.5974ZM8.49985 6.02481C7.79095 6.02481 7.20105 6.26451 6.69785 6.75581C6.19805 7.24541 5.95325 7.81661 5.95325 8.50001C5.95325 9.18341 6.19635 9.75291 6.69785 10.2442C7.20105 10.7355 7.78925 10.9752 8.49985 10.9752C9.20875 10.9752 9.79865 10.7355 10.3019 10.2442C10.8017 9.75461 11.0465 9.18341 11.0465 8.50001C11.0465 7.81661 10.8034 7.24711 10.3019 6.75581C9.79865 6.26451 9.21045 6.02481 8.49985 6.02481Z" fill="#F18F15"/>
</g>
<defs>
<clipPath id="clip0_42_1112">
<rect width="17" height="17" fill="white"/>
</clipPath>
</defs>
</svg>
