<svg width="25" height="24" viewBox="0 0 25 24" fill="none" xmlns="http://www.w3.org/2000/svg">
<path d="M12.5 9.89062C11.3368 9.89062 10.3906 10.8368 10.3906 12C10.3906 13.1632 11.3368 14.1094 12.5 14.1094C13.6632 14.1094 14.6094 13.1632 14.6094 12C14.6094 10.8368 13.6632 9.89062 12.5 9.89062Z" fill="#747474"/>
<path d="M23.9122 9.90023L21.2767 9.46833C21.0879 8.81395 20.8263 8.18363 20.4946 7.58484L22.021 5.448C22.2208 5.16853 22.1892 4.78538 21.9461 4.54233L19.9576 2.5538C19.7138 2.3107 19.3293 2.27916 19.0519 2.47894L16.9151 4.00467C16.317 3.67369 15.6867 3.41208 15.0316 3.22327L14.5997 0.587719C14.5435 0.248578 14.2503 0 13.9062 0H11.0938C10.7497 0 10.4565 0.248578 10.4002 0.587766L9.96833 3.22331C9.31325 3.41213 8.68292 3.67373 8.08484 4.00472L5.948 2.47898C5.66923 2.27916 5.28472 2.31075 5.04233 2.55384L3.0538 4.54233C2.8107 4.78542 2.77916 5.16853 2.97894 5.448L4.50533 7.58484C4.17369 8.18358 3.91208 8.81395 3.72322 9.46833L1.08767 9.90023C0.748578 9.95653 0.5 10.2497 0.5 10.5938V13.4062C0.5 13.7503 0.748578 14.0435 1.08777 14.0998L3.72331 14.5317C3.91213 15.1868 4.17373 15.8171 4.50472 16.4152L2.97898 18.552C2.77916 18.8315 2.81075 19.2146 3.05384 19.4577L5.04238 21.4462C5.28477 21.6886 5.66928 21.7202 5.94805 21.5211L8.08489 19.9953C8.68297 20.3263 9.3133 20.5879 9.96838 20.7767L10.4003 23.4123C10.4565 23.7514 10.7497 24 11.0938 24H13.9062C14.2503 24 14.5435 23.7514 14.5998 23.4122L15.0317 20.7767C15.6868 20.5879 16.3171 20.3263 16.9152 19.9953L19.052 21.521C19.3294 21.7201 19.7139 21.6885 19.9577 21.4462L21.9462 19.4576C22.1893 19.2145 22.2208 18.8314 22.0211 18.552L20.4953 16.4151C20.8263 15.817 21.0879 15.1867 21.2767 14.5316L23.9123 14.0997C24.2514 14.0435 24.5 13.7503 24.5 13.4062V10.5938C24.5 10.2497 24.2514 9.95653 23.9122 9.90023ZM12.5 16.9219C9.78636 16.9219 7.57812 14.7136 7.57812 12C7.57812 9.28636 9.78636 7.07812 12.5 7.07812C15.2136 7.07812 17.4219 9.28636 17.4219 12C17.4219 14.7136 15.2136 16.9219 12.5 16.9219Z" fill="#747474"/>
</svg>
