<svg width="24" height="24" viewBox="0 0 24 24" fill="none" xmlns="http://www.w3.org/2000/svg">
<g clip-path="url(#clip0_3_868)">
<path d="M4.80002 3.99999V14.8C4.80024 15.3906 4.58213 15.9605 4.18762 16.4H8.00002V3.99999C8.00002 3.57565 7.83145 3.16868 7.53139 2.86862C7.23133 2.56856 6.82437 2.39999 6.40002 2.39999C5.97568 2.39999 5.56871 2.56856 5.26865 2.86862C4.96859 3.16868 4.80002 3.57565 4.80002 3.99999Z" fill="white"/>
<path d="M12.8001 1.19999C12.8001 1.0939 12.7579 0.99216 12.6829 0.917145C12.6079 0.842131 12.5061 0.799988 12.4001 0.799988H1.20005C1.09396 0.799988 0.992221 0.842131 0.917206 0.917145C0.842192 0.99216 0.800049 1.0939 0.800049 1.19999V14.8C0.800049 15.2243 0.96862 15.6313 1.26868 15.9314C1.56874 16.2314 1.9757 16.4 2.40005 16.4C2.8244 16.4 3.23136 16.2314 3.53142 15.9314C3.83148 15.6313 4.00005 15.2243 4.00005 14.8V3.99999C4.00069 3.36366 4.25375 2.75358 4.7037 2.30363C5.15365 1.85368 5.76373 1.60062 6.40005 1.59999H12.8001V1.19999Z" fill="white"/>
<path d="M17.022 12.9708C18.2866 12.6493 19.624 12.7829 20.8 13.348V3.99999C20.8 3.57565 20.6315 3.16868 20.3314 2.86862C20.0313 2.56856 19.6244 2.39999 19.2 2.39999H8.18762C8.5819 2.83967 8.79998 3.40943 8.80002 3.99999V21.1912C8.80014 21.2847 8.82861 21.376 8.88168 21.453C8.93474 21.53 9.0099 21.5891 9.09725 21.6225C9.18459 21.6559 9.28001 21.662 9.37092 21.6401C9.46182 21.6182 9.54393 21.5692 9.60642 21.4996C9.64 21.4623 9.68102 21.4324 9.72684 21.4118C9.77266 21.3913 9.82227 21.3805 9.87249 21.3803C9.92271 21.3801 9.97241 21.3904 10.0184 21.4105C10.0644 21.4306 10.1057 21.4602 10.1396 21.4972L10.6444 22.052C10.6857 22.0975 10.7356 22.1342 10.7913 22.1601C10.8469 22.1861 10.9072 22.2006 10.9685 22.203C11.0299 22.2053 11.0911 22.1954 11.1485 22.1738C11.206 22.1522 11.2586 22.1194 11.3032 22.0772L11.9908 21.4288C12.0575 21.3664 12.1455 21.3316 12.2368 21.3316C12.3282 21.3316 12.4161 21.3664 12.4828 21.4288L13.2028 22.1048C13.2885 22.1851 13.4014 22.2298 13.5188 22.2298C13.6362 22.2298 13.7492 22.1851 13.8348 22.1048L14.0408 21.9112C13.4503 21.1815 13.053 20.3148 12.8856 19.3911C12.7182 18.4674 12.786 17.5164 13.0828 16.6259C13.3796 15.7353 13.8958 14.9338 14.5839 14.2952C15.272 13.6566 16.1098 13.2016 17.02 12.972L17.022 12.9708ZM13.2484 5.2C13.3185 4.92227 13.4622 4.66862 13.6645 4.46585C13.8668 4.26307 14.1201 4.1187 14.3976 4.04799H14.4V3.99999C14.4 3.89391 14.4422 3.79217 14.5172 3.71715C14.5922 3.64214 14.6939 3.59999 14.8 3.59999C14.9061 3.59999 15.0079 3.64214 15.0829 3.71715C15.1579 3.79217 15.2 3.89391 15.2 3.99999V4.05279C15.4059 4.10512 15.5992 4.19821 15.7685 4.32655C15.9378 4.45489 16.0796 4.61588 16.1856 4.79999C16.2349 4.89157 16.2466 4.99875 16.2182 5.09879C16.1898 5.19883 16.1235 5.28388 16.0335 5.33591C15.9434 5.38793 15.8367 5.40283 15.7358 5.37746C15.6349 5.35209 15.5479 5.28844 15.4932 5.2C15.4041 5.04762 15.2676 4.92856 15.1046 4.86096C14.9415 4.79337 14.7608 4.78095 14.59 4.8256C14.4542 4.8613 14.3302 4.93256 14.231 5.03204C14.1319 5.13152 14.0609 5.25562 14.0256 5.3916C13.994 5.5087 13.9894 5.63146 14.0122 5.7506C14.035 5.86973 14.0846 5.98212 14.1572 6.07927C14.2299 6.17642 14.3237 6.25577 14.4315 6.31134C14.5393 6.3669 14.6584 6.39722 14.7796 6.4C15.1665 6.40449 15.5394 6.54505 15.833 6.79702C16.1266 7.04899 16.3221 7.39629 16.3852 7.778C16.4408 8.16673 16.3504 8.56227 16.1316 8.88831C15.9127 9.21436 15.5808 9.44779 15.2 9.5436V9.6C15.2 9.70608 15.1579 9.80783 15.0829 9.88284C15.0079 9.95785 14.9061 10 14.8 10C14.6939 10 14.5922 9.95785 14.5172 9.88284C14.4422 9.80783 14.4 9.70608 14.4 9.6V9.548C14.1944 9.49468 14.0015 9.40112 13.8323 9.27272C13.6631 9.14433 13.5211 8.98365 13.4144 8.8C13.3651 8.70842 13.3535 8.60125 13.3819 8.5012C13.4103 8.40116 13.4765 8.31611 13.5666 8.26409C13.6566 8.21206 13.7634 8.19716 13.8642 8.22253C13.9651 8.2479 14.0521 8.31156 14.1068 8.4C14.1704 8.51035 14.2594 8.60392 14.3665 8.67292C14.4735 8.74193 14.5955 8.78438 14.7223 8.79675C14.8491 8.80911 14.9769 8.79103 15.0953 8.74401C15.2137 8.69698 15.3191 8.62238 15.4028 8.5264C15.4789 8.43983 15.5352 8.33774 15.5679 8.22723C15.6006 8.11671 15.6088 8.00041 15.592 7.8864C15.5541 7.69343 15.4505 7.51957 15.2988 7.39442C15.1471 7.26927 14.9567 7.20056 14.76 7.2C14.5208 7.19437 14.286 7.13501 14.0729 7.0263C13.8597 6.91759 13.6738 6.76232 13.5288 6.572C13.3819 6.3791 13.2804 6.15557 13.2319 5.91803C13.1834 5.68048 13.189 5.43505 13.2484 5.2ZM10.4 11.2H19.2C19.3061 11.2 19.4079 11.2421 19.4829 11.3172C19.5579 11.3922 19.6 11.4939 19.6 11.6C19.6 11.7061 19.5579 11.8078 19.4829 11.8828C19.4079 11.9579 19.3061 12 19.2 12H10.4C10.2939 12 10.1922 11.9579 10.1172 11.8828C10.0422 11.8078 10 11.7061 10 11.6C10 11.4939 10.0422 11.3922 10.1172 11.3172C10.1922 11.2421 10.2939 11.2 10.4 11.2ZM11.6 20H10.4C10.2939 20 10.1922 19.9579 10.1172 19.8828C10.0422 19.8078 10 19.7061 10 19.6C10 19.4939 10.0422 19.3922 10.1172 19.3172C10.1922 19.2421 10.2939 19.2 10.4 19.2H11.6C11.7061 19.2 11.8079 19.2421 11.8829 19.3172C11.9579 19.3922 12 19.4939 12 19.6C12 19.7061 11.9579 19.8078 11.8829 19.8828C11.8079 19.9579 11.7061 20 11.6 20ZM11.6 18H10.4C10.2939 18 10.1922 17.9579 10.1172 17.8828C10.0422 17.8078 10 17.7061 10 17.6C10 17.4939 10.0422 17.3922 10.1172 17.3172C10.1922 17.2421 10.2939 17.2 10.4 17.2H11.6C11.7061 17.2 11.8079 17.2421 11.8829 17.3172C11.9579 17.3922 12 17.4939 12 17.6C12 17.7061 11.9579 17.8078 11.8829 17.8828C11.8079 17.9579 11.7061 18 11.6 18ZM12.4 16H10.4C10.2939 16 10.1922 15.9579 10.1172 15.8828C10.0422 15.8078 10 15.7061 10 15.6C10 15.4939 10.0422 15.3922 10.1172 15.3172C10.1922 15.2421 10.2939 15.2 10.4 15.2H12.4C12.5061 15.2 12.6079 15.2421 12.6829 15.3172C12.7579 15.3922 12.8 15.4939 12.8 15.6C12.8 15.7061 12.7579 15.8078 12.6829 15.8828C12.6079 15.9579 12.5061 16 12.4 16ZM10.4 14C10.2939 14 10.1922 13.9579 10.1172 13.8828C10.0422 13.8078 10 13.7061 10 13.6C10 13.4939 10.0422 13.3922 10.1172 13.3172C10.1922 13.2421 10.2939 13.2 10.4 13.2H13.6C13.7061 13.2 13.8079 13.2421 13.8829 13.3172C13.9579 13.3922 14 13.4939 14 13.6C14 13.7061 13.9579 13.8078 13.8829 13.8828C13.8079 13.9579 13.7061 14 13.6 14H10.4Z" fill="white"/>
<path d="M18.4001 13.6C17.4507 13.6 16.5227 13.8815 15.7334 14.409C14.944 14.9364 14.3288 15.686 13.9655 16.5631C13.6022 17.4402 13.5071 18.4053 13.6923 19.3364C13.8775 20.2675 14.3347 21.1228 15.006 21.7941C15.6773 22.4654 16.5326 22.9226 17.4637 23.1078C18.3948 23.293 19.3599 23.1979 20.237 22.8346C21.1141 22.4713 21.8637 21.8561 22.3911 21.0667C22.9186 20.2774 23.2001 19.3493 23.2001 18.4C23.1987 17.1274 22.6926 15.9073 21.7927 15.0074C20.8928 14.1075 19.6727 13.6014 18.4001 13.6ZM20.6829 20.1172C20.7211 20.1541 20.7516 20.1982 20.7725 20.247C20.7935 20.2958 20.8045 20.3483 20.805 20.4014C20.8055 20.4545 20.7953 20.5072 20.7752 20.5564C20.7551 20.6055 20.7254 20.6502 20.6878 20.6878C20.6503 20.7253 20.6056 20.755 20.5565 20.7751C20.5073 20.7952 20.4546 20.8054 20.4015 20.8049C20.3484 20.8044 20.2959 20.7934 20.2471 20.7724C20.1983 20.7515 20.1542 20.721 20.1173 20.6828L18.4001 18.9656L16.6829 20.6828C16.6075 20.7557 16.5064 20.796 16.4015 20.7951C16.2967 20.7942 16.1963 20.7521 16.1222 20.6779C16.048 20.6038 16.0059 20.5034 16.005 20.3986C16.0041 20.2937 16.0444 20.1926 16.1173 20.1172L17.8345 18.4L16.1173 16.6828C16.0444 16.6074 16.0041 16.5063 16.005 16.4014C16.0059 16.2966 16.048 16.1962 16.1222 16.1221C16.1963 16.0479 16.2967 16.0058 16.4015 16.0049C16.5064 16.004 16.6075 16.0443 16.6829 16.1172L18.4001 17.8344L20.1173 16.1172C20.1927 16.0443 20.2938 16.004 20.3987 16.0049C20.5035 16.0058 20.6039 16.0479 20.678 16.1221C20.7522 16.1962 20.7942 16.2966 20.7952 16.4014C20.7961 16.5063 20.7558 16.6074 20.6829 16.6828L18.9657 18.4L20.6829 20.1172Z" fill="white"/>
</g>
<defs>
<clipPath id="clip0_3_868">
<rect width="24" height="24" fill="white"/>
</clipPath>
</defs>
</svg>
